G04*
G04 #@! TF.GenerationSoftware,Altium Limited,Altium Designer,23.3.1 (30)*
G04*
G04 Layer_Color=65535*
%FSLAX44Y44*%
%MOMM*%
G71*
G04*
G04 #@! TF.SameCoordinates,9D1C814F-3D62-4E25-A1EC-C7D894C9282A*
G04*
G04*
G04 #@! TF.FilePolarity,Positive*
G04*
G01*
G75*
%ADD10C,0.2500*%
%ADD11C,0.6000*%
%ADD12C,0.2000*%
%ADD13C,0.2540*%
%ADD14C,0.1524*%
%ADD15R,0.8000X4.5000*%
D10*
X678860Y175010D02*
G03*
X678860Y175010I-1250J0D01*
G01*
X466734Y286944D02*
G03*
X466734Y286944I-1250J0D01*
G01*
D11*
X457334Y264694D02*
G03*
X457334Y264694I-3000J0D01*
G01*
D12*
X623110Y215010D02*
X663860D01*
X524860D02*
X565610D01*
X524860Y85010D02*
Y113510D01*
Y136510D02*
Y138510D01*
Y161510D02*
Y163510D01*
Y186510D02*
Y215010D01*
X623110Y85010D02*
X663860D01*
X524860D02*
X565610D01*
X663860D02*
Y113510D01*
Y136510D02*
Y163510D01*
Y186510D02*
Y215010D01*
X480060Y629850D02*
X775310D01*
Y370350D02*
Y629850D01*
X57810Y370350D02*
Y629850D01*
X186960Y58520D02*
X188960D01*
X186960Y71020D02*
X188960D01*
X173041Y90319D02*
X202103D01*
X173041Y112881D02*
X202103D01*
X185690Y127100D02*
X187690D01*
X185690Y139600D02*
X187690D01*
X170889Y157629D02*
X199951D01*
X170889Y180191D02*
X199951D01*
X183150Y195680D02*
X185150D01*
X183150Y208180D02*
X185150D01*
X169619Y226209D02*
X198681D01*
X169619Y248771D02*
X198681D01*
X96347Y83969D02*
X125409D01*
X96347Y106531D02*
X125409D01*
X95959Y74781D02*
X125021D01*
X95959Y52219D02*
X125021D01*
X335334Y274694D02*
X464334D01*
X335334Y226694D02*
X464334D01*
Y274694D01*
X335334Y226694D02*
Y274694D01*
X56600Y121990D02*
X146600D01*
Y327590D01*
X56600Y121990D02*
Y327590D01*
X146600D01*
D13*
X622297Y15240D02*
X612140D01*
X622297Y25397D01*
Y27936D01*
X619757Y30475D01*
X614679D01*
X612140Y27936D01*
X627375D02*
X629914Y30475D01*
X634993D01*
X637532Y27936D01*
Y17779D01*
X634993Y15240D01*
X629914D01*
X627375Y17779D01*
Y27936D01*
X652767Y15240D02*
X642610D01*
X652767Y25397D01*
Y27936D01*
X650228Y30475D01*
X645149D01*
X642610Y27936D01*
X668002Y15240D02*
X657845D01*
X668002Y25397D01*
Y27936D01*
X665463Y30475D01*
X660384D01*
X657845Y27936D01*
X673080Y22857D02*
X683237D01*
X698472Y15240D02*
X688315D01*
X698472Y25397D01*
Y27936D01*
X695933Y30475D01*
X690854D01*
X688315Y27936D01*
X703550D02*
X706090Y30475D01*
X711168D01*
X713707Y27936D01*
Y17779D01*
X711168Y15240D01*
X706090D01*
X703550Y17779D01*
Y27936D01*
X728942Y15240D02*
X718785D01*
X728942Y25397D01*
Y27936D01*
X726403Y30475D01*
X721325D01*
X718785Y27936D01*
X734021D02*
X736560Y30475D01*
X741638D01*
X744177Y27936D01*
Y25397D01*
X741638Y22857D01*
X739099D01*
X741638D01*
X744177Y20318D01*
Y17779D01*
X741638Y15240D01*
X736560D01*
X734021Y17779D01*
X408937Y27934D02*
X406398Y30473D01*
X401319D01*
X398780Y27934D01*
Y17778D01*
X401319Y15238D01*
X406398D01*
X408937Y17778D01*
X421633Y15238D02*
X416554D01*
X414015Y17778D01*
Y22856D01*
X416554Y25395D01*
X421633D01*
X424172Y22856D01*
Y20317D01*
X414015D01*
X429250Y25395D02*
Y17778D01*
X431789Y15238D01*
X439407D01*
Y12699D01*
X436868Y10160D01*
X434328D01*
X439407Y15238D02*
Y25395D01*
X444485Y30473D02*
Y15238D01*
Y22856D01*
X447024Y25395D01*
X452103D01*
X454642Y22856D01*
Y15238D01*
X462259Y25395D02*
X467338D01*
X469877Y22856D01*
Y15238D01*
X462259D01*
X459720Y17778D01*
X462259Y20317D01*
X469877D01*
X474955Y15238D02*
Y25395D01*
X482573D01*
X485112Y22856D01*
Y15238D01*
X505425Y30473D02*
Y27934D01*
X510504Y22856D01*
X515582Y27934D01*
Y30473D01*
X510504Y22856D02*
Y15238D01*
X520661D02*
X525739D01*
X523200D01*
Y25395D01*
X520661D01*
X533357Y15238D02*
X538435D01*
X535896D01*
Y30473D01*
X533357D01*
X556209D02*
Y15238D01*
X548591D01*
X546052Y17778D01*
Y22856D01*
X548591Y25395D01*
X556209D01*
X561287Y15238D02*
X566366D01*
X563827D01*
Y25395D01*
X561287D01*
X573983D02*
X584140D01*
X573983Y15238D01*
X584140D01*
X218441Y181608D02*
X215902Y184147D01*
X210823D01*
X208284Y181608D01*
Y171452D01*
X210823Y168913D01*
X215902D01*
X218441Y171452D01*
X231137Y168913D02*
Y184147D01*
X223519Y176530D01*
X233676D01*
X207014Y196852D02*
Y212087D01*
X214632D01*
X217171Y209548D01*
Y204470D01*
X214632Y201931D01*
X207014D01*
X212092D02*
X217171Y196852D01*
X222249Y209548D02*
X224788Y212087D01*
X229867D01*
X232406Y209548D01*
Y207009D01*
X229867Y204470D01*
X227327D01*
X229867D01*
X232406Y201931D01*
Y199392D01*
X229867Y196852D01*
X224788D01*
X222249Y199392D01*
X228604Y127002D02*
Y142238D01*
X236222D01*
X238761Y139698D01*
Y134620D01*
X236222Y132081D01*
X228604D01*
X233682D02*
X238761Y127002D01*
X253996D02*
X243839D01*
X253996Y137159D01*
Y139698D01*
X251457Y142238D01*
X246378D01*
X243839Y139698D01*
X218443Y55883D02*
Y71118D01*
X226061D01*
X228600Y68578D01*
Y63500D01*
X226061Y60961D01*
X218443D01*
X223522D02*
X228600Y55883D01*
X233678D02*
X238757D01*
X236218D01*
Y71118D01*
X233678Y68578D01*
X56896Y352801D02*
Y337566D01*
Y342644D01*
X67053Y352801D01*
X59435Y345183D01*
X67053Y337566D01*
X72131D02*
X77209D01*
X74670D01*
Y352801D01*
X72131Y350262D01*
X84827Y337566D02*
Y340105D01*
X87366D01*
Y337566D01*
X84827D01*
X97523D02*
X102601D01*
X100062D01*
Y352801D01*
X97523Y350262D01*
X577855Y245107D02*
X567698D01*
Y229872D01*
X577855D01*
X567698Y237490D02*
X572777D01*
X582933Y229872D02*
Y245107D01*
X593090Y229872D01*
Y245107D01*
X608325Y242568D02*
X605786Y245107D01*
X600708D01*
X598168Y242568D01*
Y232412D01*
X600708Y229872D01*
X605786D01*
X608325Y232412D01*
X613403Y229872D02*
X618482D01*
X615943D01*
Y245107D01*
X613403Y242568D01*
X605806Y351787D02*
Y336552D01*
X613423D01*
X615962Y339091D01*
Y349248D01*
X613423Y351787D01*
X605806D01*
X621041Y336552D02*
X626119D01*
X623580D01*
Y346708D01*
X621041D01*
X633737Y336552D02*
X641354D01*
X643893Y339091D01*
X641354Y341630D01*
X636276D01*
X633737Y344169D01*
X636276Y346708D01*
X643893D01*
X648972Y331473D02*
Y346708D01*
X656589D01*
X659128Y344169D01*
Y339091D01*
X656589Y336552D01*
X648972D01*
X664207D02*
X669285D01*
X666746D01*
Y351787D01*
X664207D01*
X679442Y346708D02*
X684520D01*
X687059Y344169D01*
Y336552D01*
X679442D01*
X676903Y339091D01*
X679442Y341630D01*
X687059D01*
X692138Y346708D02*
Y339091D01*
X694677Y336552D01*
X702294D01*
Y334012D01*
X699755Y331473D01*
X697216D01*
X702294Y336552D02*
Y346708D01*
X219711Y241298D02*
X217172Y243838D01*
X212093D01*
X209554Y241298D01*
Y231142D01*
X212093Y228603D01*
X217172D01*
X219711Y231142D01*
X234946Y243838D02*
X224789D01*
Y236220D01*
X229867Y238759D01*
X232407D01*
X234946Y236220D01*
Y231142D01*
X232407Y228603D01*
X227328D01*
X224789Y231142D01*
X222251Y99058D02*
X219712Y101597D01*
X214633D01*
X212094Y99058D01*
Y88902D01*
X214633Y86362D01*
X219712D01*
X222251Y88902D01*
X227329Y99058D02*
X229868Y101597D01*
X234947D01*
X237486Y99058D01*
Y96519D01*
X234947Y93980D01*
X232407D01*
X234947D01*
X237486Y91441D01*
Y88902D01*
X234947Y86362D01*
X229868D01*
X227329Y88902D01*
X36831Y71118D02*
X34292Y73657D01*
X29213D01*
X26674Y71118D01*
Y60962D01*
X29213Y58422D01*
X34292D01*
X36831Y60962D01*
X52066Y58422D02*
X41909D01*
X52066Y68579D01*
Y71118D01*
X49527Y73657D01*
X44448D01*
X41909Y71118D01*
X50800Y102868D02*
X48261Y105407D01*
X43183D01*
X40643Y102868D01*
Y92712D01*
X43183Y90173D01*
X48261D01*
X50800Y92712D01*
X55878Y90173D02*
X60957D01*
X58418D01*
Y105407D01*
X55878Y102868D01*
D14*
X83600Y291190D02*
Y287804D01*
Y289497D01*
X93757D01*
X92064Y291190D01*
X109000Y287419D02*
Y294190D01*
X115771Y287419D01*
X117464D01*
X119157Y289112D01*
Y292497D01*
X117464Y294190D01*
X109600Y161390D02*
Y158004D01*
Y159697D01*
X119757D01*
X118064Y161390D01*
Y152926D02*
X119757Y151233D01*
Y147848D01*
X118064Y146155D01*
X111293D01*
X109600Y147848D01*
Y151233D01*
X111293Y152926D01*
X118064D01*
X85893Y161390D02*
X84200Y159697D01*
Y156312D01*
X85893Y154619D01*
X92664D01*
X94357Y156312D01*
Y159697D01*
X92664Y161390D01*
X90971D01*
X89278Y159697D01*
Y154619D01*
D15*
X60600Y224790D02*
D03*
M02*
