G04*
G04 #@! TF.GenerationSoftware,Altium Limited,Altium Designer,23.3.1 (30)*
G04*
G04 Layer_Physical_Order=1*
G04 Layer_Color=255*
%FSLAX44Y44*%
%MOMM*%
G71*
G04*
G04 #@! TF.SameCoordinates,9D1C814F-3D62-4E25-A1EC-C7D894C9282A*
G04*
G04*
G04 #@! TF.FilePolarity,Positive*
G04*
G01*
G75*
%ADD17R,1.3046X1.4562*%
G04:AMPARAMS|DCode=19|XSize=2.4mm|YSize=5mm|CornerRadius=1.2mm|HoleSize=0mm|Usage=FLASHONLY|Rotation=270.000|XOffset=0mm|YOffset=0mm|HoleType=Round|Shape=RoundedRectangle|*
%AMROUNDEDRECTD19*
21,1,2.4000,2.6000,0,0,270.0*
21,1,0.0000,5.0000,0,0,270.0*
1,1,2.4000,-1.3000,0.0000*
1,1,2.4000,-1.3000,0.0000*
1,1,2.4000,1.3000,0.0000*
1,1,2.4000,1.3000,0.0000*
%
%ADD19ROUNDEDRECTD19*%
%ADD20C,1.5500*%
%ADD21R,1.5500X1.5500*%
%ADD28R,1.0500X1.4500*%
G04:AMPARAMS|DCode=29|XSize=0.6mm|YSize=1.65mm|CornerRadius=0.051mm|HoleSize=0mm|Usage=FLASHONLY|Rotation=0.000|XOffset=0mm|YOffset=0mm|HoleType=Round|Shape=RoundedRectangle|*
%AMROUNDEDRECTD29*
21,1,0.6000,1.5480,0,0,0.0*
21,1,0.4980,1.6500,0,0,0.0*
1,1,0.1020,0.2490,-0.7740*
1,1,0.1020,-0.2490,-0.7740*
1,1,0.1020,-0.2490,0.7740*
1,1,0.1020,0.2490,0.7740*
%
%ADD29ROUNDEDRECTD29*%
%ADD30C,0.5080*%
%ADD31C,1.4250*%
%ADD32R,1.4250X1.4250*%
%ADD33R,1.6000X1.6000*%
%ADD34C,1.6000*%
%ADD35C,4.0000*%
%ADD36C,1.2700*%
G36*
X362905Y502207D02*
Y296148D01*
X362722Y295874D01*
X362485Y294684D01*
Y279204D01*
X362440Y279149D01*
X362231D01*
X360984Y280400D01*
Y294684D01*
X360748Y295874D01*
X360672Y295987D01*
Y501933D01*
X361059Y502156D01*
X361635Y502733D01*
X362905Y502207D01*
D02*
G37*
G36*
X680720Y599440D02*
Y57150D01*
X205000D01*
Y74560D01*
X201574D01*
Y91779D01*
X204643D01*
Y103338D01*
X210438Y109133D01*
X223858D01*
X224026Y108841D01*
X225681Y107186D01*
X227709Y106016D01*
X229970Y105410D01*
X232310D01*
X234571Y106016D01*
X236599Y107186D01*
X238254Y108841D01*
X238422Y109133D01*
X508321D01*
X510303Y109527D01*
X511983Y110650D01*
X516466Y115133D01*
X518005Y114720D01*
X520715D01*
X523332Y115421D01*
X525678Y116776D01*
X527594Y118692D01*
X528949Y121038D01*
X529650Y123656D01*
Y126365D01*
X528949Y128982D01*
X527594Y131328D01*
X525678Y133244D01*
X523332Y134599D01*
X520715Y135300D01*
X518005D01*
X515388Y134599D01*
X513042Y133244D01*
X511126Y131328D01*
X509771Y128982D01*
X509070Y126365D01*
Y123656D01*
X509338Y122654D01*
X506176Y119492D01*
X238408D01*
X238254Y119759D01*
X236599Y121414D01*
X234571Y122584D01*
X232310Y123190D01*
X229970D01*
X227709Y122584D01*
X225681Y121414D01*
X224026Y119759D01*
X223872Y119492D01*
X208292D01*
X208292Y119492D01*
X206310Y119097D01*
X204630Y117975D01*
X204630Y117975D01*
X198076Y111421D01*
X183682D01*
Y123560D01*
X185230D01*
Y143140D01*
X182606D01*
Y159089D01*
X189504D01*
Y143140D01*
X188150D01*
Y123560D01*
X203730D01*
Y135815D01*
X210581Y142666D01*
X212469Y141576D01*
X214730Y140970D01*
X217070D01*
X219331Y141576D01*
X221359Y142746D01*
X223014Y144401D01*
X223261Y144830D01*
X510468D01*
X511126Y143692D01*
X513042Y141776D01*
X515388Y140421D01*
X518005Y139720D01*
X520715D01*
X523332Y140421D01*
X525678Y141776D01*
X527594Y143692D01*
X528949Y146038D01*
X529650Y148655D01*
Y151365D01*
X528949Y153982D01*
X527594Y156328D01*
X525678Y158244D01*
X523332Y159599D01*
X520715Y160300D01*
X518005D01*
X515388Y159599D01*
X513042Y158244D01*
X511126Y156328D01*
X510468Y155189D01*
X223088D01*
X223014Y155319D01*
X221359Y156974D01*
X219331Y158144D01*
X217070Y158750D01*
X214730D01*
X212469Y158144D01*
X210441Y156974D01*
X208786Y155319D01*
X208400Y154649D01*
X206938Y153672D01*
X201037Y147772D01*
X199863Y148258D01*
Y159089D01*
X202491D01*
Y178731D01*
X181336D01*
Y192140D01*
X182690D01*
Y211720D01*
X180701D01*
Y227669D01*
X187599D01*
Y211720D01*
X185610D01*
Y192140D01*
X193865D01*
X214658Y171348D01*
X216338Y170225D01*
X218320Y169830D01*
X231100D01*
X233082Y170225D01*
X234763Y171348D01*
X234765Y171350D01*
X241645D01*
X241806Y171071D01*
X243461Y169416D01*
X245489Y168246D01*
X247750Y167640D01*
X250090D01*
X252028Y168159D01*
X257479Y162708D01*
X259160Y161585D01*
X261142Y161190D01*
X510720D01*
X512702Y161585D01*
X514382Y162708D01*
X516735Y165060D01*
X518005Y164720D01*
X520715D01*
X523332Y165421D01*
X525678Y166776D01*
X527594Y168692D01*
X528949Y171038D01*
X529650Y173655D01*
Y176365D01*
X528949Y178982D01*
X527594Y181328D01*
X525678Y183244D01*
X523332Y184599D01*
X520715Y185300D01*
X518005D01*
X515388Y184599D01*
X513042Y183244D01*
X511126Y181328D01*
X509771Y178982D01*
X509070Y176365D01*
Y173655D01*
X509384Y172484D01*
X508573Y171549D01*
X263287D01*
X257810Y177027D01*
Y177700D01*
X257204Y179961D01*
X256034Y181989D01*
X254379Y183644D01*
X252351Y184814D01*
X250090Y185420D01*
X247750D01*
X245489Y184814D01*
X243461Y183644D01*
X241806Y181989D01*
X241645Y181709D01*
X232620D01*
X232620Y181709D01*
X230638Y181315D01*
X228958Y180193D01*
X228958Y180192D01*
X228955Y180190D01*
X220466D01*
X201190Y199465D01*
Y211720D01*
X197958D01*
Y227669D01*
X201221D01*
Y247311D01*
X185305D01*
Y255170D01*
X366591D01*
X366758Y253901D01*
X364869Y253394D01*
X362841Y252224D01*
X361186Y250569D01*
X360016Y248541D01*
X359410Y246280D01*
Y243940D01*
X360016Y241679D01*
X361186Y239651D01*
X362841Y237996D01*
X363013Y237897D01*
Y223810D01*
X362722Y223374D01*
X362485Y222184D01*
Y206704D01*
X362722Y205514D01*
X363396Y204505D01*
X364405Y203831D01*
X365595Y203594D01*
X370575D01*
X371765Y203831D01*
X372774Y204505D01*
X373448Y205514D01*
X373684Y206704D01*
Y222184D01*
X373448Y223374D01*
X373372Y223487D01*
Y237773D01*
X373759Y237996D01*
X375137Y239375D01*
X376275Y238717D01*
X375920Y237390D01*
Y235050D01*
X376526Y232789D01*
X377696Y230761D01*
X379351Y229106D01*
X381379Y227936D01*
X383640Y227330D01*
X385980D01*
X386292Y227413D01*
X388305Y225400D01*
Y223649D01*
X388122Y223374D01*
X387885Y222184D01*
Y212214D01*
X386615Y211535D01*
X386424Y211662D01*
Y213984D01*
X386384Y214184D01*
Y222184D01*
X386148Y223374D01*
X385474Y224383D01*
X384465Y225057D01*
X383275Y225294D01*
X378295D01*
X377105Y225057D01*
X376096Y224383D01*
X375422Y223374D01*
X375185Y222184D01*
Y206704D01*
X375422Y205514D01*
X376096Y204505D01*
X377105Y203831D01*
X378295Y203594D01*
X378874D01*
X407061Y175408D01*
X408741Y174285D01*
X410723Y173890D01*
X439746D01*
X441728Y174285D01*
X443408Y175408D01*
X509123Y241122D01*
X510245Y242802D01*
X510639Y244784D01*
X510639Y244784D01*
Y601430D01*
X511395Y601866D01*
X513194Y603666D01*
X514466Y605869D01*
X515125Y608328D01*
Y610872D01*
X514466Y613330D01*
X513194Y615535D01*
X511395Y617334D01*
X509190Y618606D01*
X506732Y619265D01*
X504188D01*
X501730Y618606D01*
X499525Y617334D01*
X497726Y615535D01*
X496454Y613330D01*
X495795Y610872D01*
Y608328D01*
X496454Y605869D01*
X497726Y603666D01*
X499525Y601866D01*
X500280Y601430D01*
Y246929D01*
X463758Y210407D01*
X462584Y210893D01*
Y222184D01*
X462348Y223374D01*
X461674Y224383D01*
X460665Y225057D01*
X459475Y225294D01*
X454495D01*
X453305Y225057D01*
X452296Y224383D01*
X451622Y223374D01*
X451385Y222184D01*
Y206704D01*
X451622Y205514D01*
X452296Y204505D01*
X453305Y203831D01*
X454495Y203594D01*
X455286D01*
X455772Y202421D01*
X437601Y184249D01*
X427109D01*
X426490Y185520D01*
X427384Y187069D01*
X427990Y189330D01*
Y191670D01*
X427384Y193931D01*
X426214Y195959D01*
X424559Y197614D01*
X424172Y197837D01*
Y205401D01*
X424248Y205514D01*
X424484Y206704D01*
Y216956D01*
X425754Y217635D01*
X425945Y217508D01*
Y214904D01*
X425945Y214902D01*
X425945Y214901D01*
X425985Y214700D01*
Y206704D01*
X426222Y205514D01*
X426896Y204505D01*
X427905Y203831D01*
X429095Y203594D01*
X434075D01*
X435265Y203831D01*
X436273Y204505D01*
X436948Y205514D01*
X437184Y206704D01*
Y222184D01*
X436948Y223374D01*
X436273Y224383D01*
X435265Y225057D01*
X434075Y225294D01*
X433777D01*
X384106Y274965D01*
X384463Y276322D01*
X384508Y276360D01*
X385474Y277005D01*
X386148Y278014D01*
X386384Y279204D01*
Y294684D01*
X386148Y295874D01*
X385964Y296148D01*
Y603436D01*
X386194Y603666D01*
X387466Y605869D01*
X388125Y608328D01*
Y610872D01*
X387466Y613330D01*
X386194Y615535D01*
X384394Y617334D01*
X382191Y618606D01*
X379732Y619265D01*
X377188D01*
X374729Y618606D01*
X372525Y617334D01*
X370726Y615535D01*
X369454Y613330D01*
X368795Y610872D01*
Y608328D01*
X369454Y605869D01*
X370726Y603666D01*
X372525Y601866D01*
X374729Y600594D01*
X375605Y600359D01*
Y296148D01*
X375422Y295874D01*
X375185Y294684D01*
Y279204D01*
X375140Y279149D01*
X374931D01*
X373684Y280400D01*
Y294684D01*
X373448Y295874D01*
X373264Y296148D01*
Y576795D01*
X373264Y576795D01*
X372870Y578778D01*
X371747Y580458D01*
X358240Y593965D01*
Y601430D01*
X358994Y601866D01*
X360794Y603666D01*
X362066Y605869D01*
X362725Y608328D01*
Y610872D01*
X362066Y613330D01*
X360794Y615535D01*
X358994Y617334D01*
X356791Y618606D01*
X354332Y619265D01*
X351788D01*
X349329Y618606D01*
X347126Y617334D01*
X345326Y615535D01*
X344054Y613330D01*
X343395Y610872D01*
Y608328D01*
X344054Y605869D01*
X345326Y603666D01*
X347126Y601866D01*
X347881Y601430D01*
Y591820D01*
X348275Y589838D01*
X349398Y588158D01*
X362905Y574650D01*
Y516333D01*
X361635Y515807D01*
X361059Y516384D01*
X359031Y517554D01*
X356770Y518160D01*
X354430D01*
X352169Y517554D01*
X350141Y516384D01*
X348486Y514729D01*
X347316Y512701D01*
X346710Y510440D01*
Y508100D01*
X347316Y505839D01*
X348486Y503811D01*
X350141Y502156D01*
X350313Y502057D01*
Y296310D01*
X350022Y295874D01*
X349785Y294684D01*
Y279204D01*
X349740Y279149D01*
X349532D01*
X348284Y280400D01*
Y294684D01*
X348048Y295874D01*
X347374Y296883D01*
X346365Y297557D01*
X345175Y297794D01*
X340195D01*
X339005Y297557D01*
X337996Y296883D01*
X337322Y295874D01*
X337085Y294684D01*
Y279204D01*
X336748Y278793D01*
X124353D01*
X124122Y279658D01*
X122734Y282062D01*
X120772Y284024D01*
X118368Y285412D01*
X115688Y286130D01*
X112912D01*
X110232Y285412D01*
X107828Y284024D01*
X105866Y282062D01*
X104478Y279658D01*
X103760Y276978D01*
Y274202D01*
X104478Y271522D01*
X105866Y269118D01*
X107828Y267156D01*
X110232Y265768D01*
X112912Y265050D01*
X115688D01*
X118368Y265768D01*
X120772Y267156D01*
X122050Y268434D01*
X375987D01*
X377718Y266703D01*
X377232Y265529D01*
X183101D01*
X181119Y265135D01*
X179438Y264013D01*
X176463Y261037D01*
X175340Y259356D01*
X174946Y257374D01*
Y247311D01*
X167079D01*
Y227669D01*
X170342D01*
Y211720D01*
X167110D01*
Y192140D01*
X170977D01*
Y178731D01*
X168349D01*
Y159089D01*
X172247D01*
Y143140D01*
X169650D01*
Y123560D01*
X173323D01*
Y111421D01*
X170501D01*
Y91779D01*
X173958D01*
Y74560D01*
X170920D01*
Y69314D01*
X127561D01*
Y73321D01*
X123871D01*
Y85429D01*
X127949D01*
Y105071D01*
X122794D01*
Y107175D01*
X122400Y109157D01*
X121277Y110838D01*
X68679Y163435D01*
Y248045D01*
X85685Y265050D01*
X99440D01*
Y286130D01*
X78360D01*
Y272375D01*
X59837Y253853D01*
X58715Y252172D01*
X58320Y250190D01*
Y161290D01*
X58715Y159308D01*
X59837Y157627D01*
X111221Y106244D01*
X110735Y105071D01*
X104140D01*
Y95250D01*
Y85429D01*
X113512D01*
Y73321D01*
X103752D01*
Y63500D01*
X101212D01*
Y73321D01*
X93419D01*
Y68679D01*
X83475D01*
X83314Y68959D01*
X81659Y70614D01*
X79631Y71784D01*
X77470Y72363D01*
Y63500D01*
X76200D01*
Y62230D01*
X67337D01*
X67916Y60069D01*
X68868Y58420D01*
X68320Y57150D01*
X63500D01*
X53243Y46893D01*
X52070Y47379D01*
Y429260D01*
X252730Y629920D01*
X650240D01*
X680720Y599440D01*
D02*
G37*
G36*
X401005Y232640D02*
Y223649D01*
X400822Y223374D01*
X400585Y222184D01*
Y206704D01*
X400822Y205514D01*
X401496Y204505D01*
X402505Y203831D01*
X403695Y203594D01*
X408675D01*
X409865Y203831D01*
X410873Y204505D01*
X411548Y205514D01*
X411784Y206704D01*
Y222184D01*
X411548Y223374D01*
X411364Y223649D01*
Y231398D01*
X412537Y231884D01*
X417954Y226467D01*
X417468Y225294D01*
X416395D01*
X415205Y225057D01*
X414196Y224383D01*
X413522Y223374D01*
X413285Y222184D01*
Y206704D01*
X413522Y205514D01*
X413813Y205078D01*
Y197713D01*
X413641Y197614D01*
X411986Y195959D01*
X410816Y193931D01*
X410210Y191670D01*
Y189330D01*
X410439Y188475D01*
X409300Y187818D01*
X394697Y202421D01*
X395183Y203594D01*
X395975D01*
X397165Y203831D01*
X398173Y204505D01*
X398848Y205514D01*
X399084Y206704D01*
Y222184D01*
X398848Y223374D01*
X398664Y223649D01*
Y227545D01*
X398270Y229527D01*
X397147Y231208D01*
X393617Y234738D01*
X393700Y235050D01*
Y237390D01*
X393422Y238427D01*
X394561Y239085D01*
X401005Y232640D01*
D02*
G37*
G36*
X191215Y74560D02*
X189420D01*
Y57150D01*
X186500D01*
Y74560D01*
X184317D01*
Y91779D01*
X191215D01*
Y74560D01*
D02*
G37*
%LPC*%
G36*
X565925Y619265D02*
X546595D01*
Y599935D01*
X565925D01*
Y619265D01*
D02*
G37*
G36*
X532132D02*
X529588D01*
X527130Y618606D01*
X524925Y617334D01*
X523126Y615535D01*
X521854Y613330D01*
X521195Y610872D01*
Y608328D01*
X521854Y605869D01*
X523126Y603666D01*
X524925Y601866D01*
X527130Y600594D01*
X529588Y599935D01*
X532132D01*
X534590Y600594D01*
X536795Y601866D01*
X538594Y603666D01*
X539866Y605869D01*
X540525Y608328D01*
Y610872D01*
X539866Y613330D01*
X538594Y615535D01*
X536795Y617334D01*
X534590Y618606D01*
X532132Y619265D01*
D02*
G37*
G36*
X430532D02*
X427988D01*
X425530Y618606D01*
X423326Y617334D01*
X421526Y615535D01*
X420254Y613330D01*
X419595Y610872D01*
Y608328D01*
X420254Y605869D01*
X421526Y603666D01*
X423326Y601866D01*
X425530Y600594D01*
X427988Y599935D01*
X430532D01*
X432990Y600594D01*
X435195Y601866D01*
X436994Y603666D01*
X438266Y605869D01*
X438925Y608328D01*
Y610872D01*
X438266Y613330D01*
X436994Y615535D01*
X435195Y617334D01*
X432990Y618606D01*
X430532Y619265D01*
D02*
G37*
G36*
X328932D02*
X326388D01*
X323929Y618606D01*
X321726Y617334D01*
X319926Y615535D01*
X318654Y613330D01*
X317995Y610872D01*
Y608328D01*
X318654Y605869D01*
X319926Y603666D01*
X321726Y601866D01*
X323929Y600594D01*
X326388Y599935D01*
X328932D01*
X331390Y600594D01*
X333595Y601866D01*
X335394Y603666D01*
X336666Y605869D01*
X337325Y608328D01*
Y610872D01*
X336666Y613330D01*
X335394Y615535D01*
X333595Y617334D01*
X331390Y618606D01*
X328932Y619265D01*
D02*
G37*
G36*
X303532D02*
X300988D01*
X298529Y618606D01*
X296325Y617334D01*
X294526Y615535D01*
X293254Y613330D01*
X292595Y610872D01*
Y608328D01*
X293254Y605869D01*
X294526Y603666D01*
X296325Y601866D01*
X298529Y600594D01*
X300988Y599935D01*
X303532D01*
X305991Y600594D01*
X308195Y601866D01*
X309994Y603666D01*
X311266Y605869D01*
X311925Y608328D01*
Y610872D01*
X311266Y613330D01*
X309994Y615535D01*
X308195Y617334D01*
X305991Y618606D01*
X303532Y619265D01*
D02*
G37*
G36*
X278132D02*
X275588D01*
X273130Y618606D01*
X270926Y617334D01*
X269126Y615535D01*
X267854Y613330D01*
X267195Y610872D01*
Y608328D01*
X267854Y605869D01*
X269126Y603666D01*
X270926Y601866D01*
X273130Y600594D01*
X275588Y599935D01*
X278132D01*
X280590Y600594D01*
X282794Y601866D01*
X284594Y603666D01*
X285866Y605869D01*
X286525Y608328D01*
Y610872D01*
X285866Y613330D01*
X284594Y615535D01*
X282794Y617334D01*
X280590Y618606D01*
X278132Y619265D01*
D02*
G37*
G36*
X481332D02*
X478788D01*
X476329Y618606D01*
X474126Y617334D01*
X472326Y615535D01*
X471054Y613330D01*
X470395Y610872D01*
Y608328D01*
X471054Y605869D01*
X472326Y603666D01*
X474126Y601866D01*
X474880Y601430D01*
Y476039D01*
X427922Y429081D01*
X426799Y427401D01*
X426405Y425419D01*
Y370283D01*
X425135Y369757D01*
X424559Y370334D01*
X422531Y371504D01*
X420270Y372110D01*
X417930D01*
X415669Y371504D01*
X413641Y370334D01*
X412634Y369327D01*
X411364Y369852D01*
Y552629D01*
X456568Y597833D01*
X457691Y599513D01*
X457878Y600456D01*
X458391Y600594D01*
X460594Y601866D01*
X462394Y603666D01*
X463666Y605869D01*
X464325Y608328D01*
Y610872D01*
X463666Y613330D01*
X462394Y615535D01*
X460594Y617334D01*
X458391Y618606D01*
X455932Y619265D01*
X453388D01*
X450929Y618606D01*
X448726Y617334D01*
X446926Y615535D01*
X445654Y613330D01*
X444995Y610872D01*
Y608328D01*
X445654Y605869D01*
X446926Y603666D01*
X447338Y603253D01*
X402522Y558437D01*
X401399Y556757D01*
X401005Y554775D01*
Y296148D01*
X400822Y295874D01*
X400585Y294684D01*
Y279204D01*
X400822Y278014D01*
X401496Y277005D01*
X402505Y276331D01*
X403695Y276094D01*
X408675D01*
X409865Y276331D01*
X410873Y277005D01*
X411548Y278014D01*
X411784Y279204D01*
Y294684D01*
X411548Y295874D01*
X411364Y296148D01*
Y356587D01*
X412634Y357113D01*
X413641Y356106D01*
X413813Y356007D01*
Y296310D01*
X413522Y295874D01*
X413285Y294684D01*
Y279204D01*
X413522Y278014D01*
X414196Y277005D01*
X415205Y276331D01*
X416395Y276094D01*
X421375D01*
X422565Y276331D01*
X423573Y277005D01*
X424248Y278014D01*
X424484Y279204D01*
Y294684D01*
X424248Y295874D01*
X424172Y295987D01*
Y355883D01*
X424559Y356106D01*
X425135Y356683D01*
X426405Y356157D01*
Y296148D01*
X426222Y295874D01*
X425985Y294684D01*
Y279204D01*
X426222Y278014D01*
X426896Y277005D01*
X427905Y276331D01*
X429095Y276094D01*
X434075D01*
X435265Y276331D01*
X436273Y277005D01*
X436948Y278014D01*
X437184Y279204D01*
Y294684D01*
X436948Y295874D01*
X436764Y296148D01*
Y326749D01*
X438034Y327089D01*
X438656Y326011D01*
X439105Y325563D01*
Y296148D01*
X438922Y295874D01*
X438685Y294684D01*
Y279204D01*
X438922Y278014D01*
X439596Y277005D01*
X440605Y276331D01*
X441795Y276094D01*
X446775D01*
X447965Y276331D01*
X448974Y277005D01*
X449648Y278014D01*
X449884Y279204D01*
Y294684D01*
X449648Y295874D01*
X449464Y296148D01*
Y323338D01*
X451229Y324356D01*
X452884Y326011D01*
X454054Y328039D01*
X454660Y330300D01*
Y332640D01*
X454054Y334901D01*
X452884Y336929D01*
X451229Y338584D01*
X449201Y339754D01*
X446940Y340360D01*
X444600D01*
X442339Y339754D01*
X440311Y338584D01*
X438656Y336929D01*
X438034Y335851D01*
X436764Y336191D01*
Y423273D01*
X483722Y470231D01*
X484845Y471912D01*
X485239Y473894D01*
Y601430D01*
X485994Y601866D01*
X487794Y603666D01*
X489066Y605869D01*
X489725Y608328D01*
Y610872D01*
X489066Y613330D01*
X487794Y615535D01*
X485994Y617334D01*
X483791Y618606D01*
X481332Y619265D01*
D02*
G37*
G36*
X459475Y297794D02*
X458255D01*
Y288214D01*
X462584D01*
Y294684D01*
X462348Y295874D01*
X461674Y296883D01*
X460665Y297557D01*
X459475Y297794D01*
D02*
G37*
G36*
X455715D02*
X454495D01*
X453305Y297557D01*
X452296Y296883D01*
X451622Y295874D01*
X451385Y294684D01*
Y288214D01*
X455715D01*
Y297794D01*
D02*
G37*
G36*
X462584Y285674D02*
X458255D01*
Y276094D01*
X459475D01*
X460665Y276331D01*
X461674Y277005D01*
X462348Y278014D01*
X462584Y279204D01*
Y285674D01*
D02*
G37*
G36*
X455715D02*
X451385D01*
Y279204D01*
X451622Y278014D01*
X452296Y277005D01*
X453305Y276331D01*
X454495Y276094D01*
X455715D01*
Y285674D01*
D02*
G37*
G36*
X405132Y619265D02*
X402588D01*
X400130Y618606D01*
X397925Y617334D01*
X396126Y615535D01*
X394854Y613330D01*
X394195Y610872D01*
Y608328D01*
X394854Y605869D01*
X396126Y603666D01*
X397925Y601866D01*
X398680Y601430D01*
Y586345D01*
X389822Y577487D01*
X388699Y575807D01*
X388305Y573825D01*
Y296148D01*
X388122Y295874D01*
X387885Y294684D01*
Y279204D01*
X388122Y278014D01*
X388796Y277005D01*
X389805Y276331D01*
X390995Y276094D01*
X395975D01*
X397165Y276331D01*
X398173Y277005D01*
X398848Y278014D01*
X399084Y279204D01*
Y294684D01*
X398848Y295874D01*
X398664Y296148D01*
Y571679D01*
X407523Y580537D01*
X408645Y582218D01*
X409039Y584200D01*
Y601430D01*
X409795Y601866D01*
X411594Y603666D01*
X412866Y605869D01*
X413525Y608328D01*
Y610872D01*
X412866Y613330D01*
X411594Y615535D01*
X409795Y617334D01*
X407590Y618606D01*
X405132Y619265D01*
D02*
G37*
G36*
X115688Y260730D02*
X112912D01*
X110232Y260012D01*
X107828Y258624D01*
X105866Y256662D01*
X104478Y254258D01*
X103760Y251578D01*
Y248802D01*
X104478Y246122D01*
X105866Y243718D01*
X107828Y241756D01*
X110232Y240368D01*
X112912Y239650D01*
X115688D01*
X118368Y240368D01*
X120772Y241756D01*
X122734Y243718D01*
X124122Y246122D01*
X124840Y248802D01*
Y251578D01*
X124122Y254258D01*
X122734Y256662D01*
X120772Y258624D01*
X118368Y260012D01*
X115688Y260730D01*
D02*
G37*
G36*
X90288D02*
X87512D01*
X84832Y260012D01*
X82428Y258624D01*
X80466Y256662D01*
X79078Y254258D01*
X78360Y251578D01*
Y248802D01*
X79078Y246122D01*
X80466Y243718D01*
X82428Y241756D01*
X84832Y240368D01*
X87512Y239650D01*
X90288D01*
X92968Y240368D01*
X95372Y241756D01*
X97334Y243718D01*
X98722Y246122D01*
X99440Y248802D01*
Y251578D01*
X98722Y254258D01*
X97334Y256662D01*
X95372Y258624D01*
X92968Y260012D01*
X90288Y260730D01*
D02*
G37*
G36*
X115688Y235330D02*
X112912D01*
X110232Y234612D01*
X107828Y233224D01*
X105866Y231262D01*
X104478Y228858D01*
X103760Y226178D01*
Y223402D01*
X104478Y220722D01*
X105866Y218318D01*
X107828Y216356D01*
X110232Y214968D01*
X112912Y214250D01*
X115688D01*
X118368Y214968D01*
X120772Y216356D01*
X122734Y218318D01*
X124122Y220722D01*
X124840Y223402D01*
Y226178D01*
X124122Y228858D01*
X122734Y231262D01*
X120772Y233224D01*
X118368Y234612D01*
X115688Y235330D01*
D02*
G37*
G36*
X90288D02*
X87512D01*
X84832Y234612D01*
X82428Y233224D01*
X80466Y231262D01*
X79078Y228858D01*
X78360Y226178D01*
Y223402D01*
X79078Y220722D01*
X80466Y218318D01*
X82428Y216356D01*
X84832Y214968D01*
X87512Y214250D01*
X90288D01*
X92968Y214968D01*
X95372Y216356D01*
X97334Y218318D01*
X98722Y220722D01*
X99440Y223402D01*
Y226178D01*
X98722Y228858D01*
X97334Y231262D01*
X95372Y233224D01*
X92968Y234612D01*
X90288Y235330D01*
D02*
G37*
G36*
X446775Y225294D02*
X441795D01*
X440605Y225057D01*
X439596Y224383D01*
X438922Y223374D01*
X438685Y222184D01*
Y206704D01*
X438922Y205514D01*
X439596Y204505D01*
X440605Y203831D01*
X441795Y203594D01*
X446775D01*
X447965Y203831D01*
X448974Y204505D01*
X449648Y205514D01*
X449884Y206704D01*
Y222184D01*
X449648Y223374D01*
X448974Y224383D01*
X447965Y225057D01*
X446775Y225294D01*
D02*
G37*
G36*
X349150Y248920D02*
X346810D01*
X344549Y248314D01*
X342521Y247144D01*
X340866Y245489D01*
X339696Y243461D01*
X339090Y241200D01*
Y238860D01*
X339696Y236599D01*
X340866Y234571D01*
X342521Y232916D01*
X344549Y231746D01*
X346810Y231140D01*
X347483D01*
X350205Y228418D01*
Y223649D01*
X350022Y223374D01*
X349785Y222184D01*
Y206704D01*
X350022Y205514D01*
X350696Y204505D01*
X351705Y203831D01*
X352895Y203594D01*
X357875D01*
X359065Y203831D01*
X360074Y204505D01*
X360748Y205514D01*
X360984Y206704D01*
Y222184D01*
X360748Y223374D01*
X360564Y223649D01*
Y230563D01*
X360564Y230563D01*
X360170Y232546D01*
X359047Y234226D01*
X359047Y234226D01*
X356351Y236922D01*
X356870Y238860D01*
Y241200D01*
X356264Y243461D01*
X355094Y245489D01*
X353439Y247144D01*
X351411Y248314D01*
X349150Y248920D01*
D02*
G37*
G36*
X345175Y225294D02*
X340195D01*
X339005Y225057D01*
X337996Y224383D01*
X337322Y223374D01*
X337085Y222184D01*
Y206704D01*
X337322Y205514D01*
X337996Y204505D01*
X339005Y203831D01*
X340195Y203594D01*
X345175D01*
X346365Y203831D01*
X347374Y204505D01*
X348048Y205514D01*
X348284Y206704D01*
Y222184D01*
X348048Y223374D01*
X347374Y224383D01*
X346365Y225057D01*
X345175Y225294D01*
D02*
G37*
G36*
X607360Y221675D02*
X581360D01*
X577564Y221176D01*
X574027Y219711D01*
X570990Y217380D01*
X568659Y214343D01*
X567194Y210806D01*
X566694Y207010D01*
X567194Y203214D01*
X568659Y199677D01*
X570990Y196640D01*
X574027Y194309D01*
X577564Y192844D01*
X581360Y192344D01*
X607360D01*
X611156Y192844D01*
X614693Y194309D01*
X617730Y196640D01*
X620061Y199677D01*
X621526Y203214D01*
X622025Y207010D01*
X621526Y210806D01*
X620061Y214343D01*
X617730Y217380D01*
X614693Y219711D01*
X611156Y221176D01*
X607360Y221675D01*
D02*
G37*
G36*
X115688Y209930D02*
X112912D01*
X110232Y209212D01*
X107828Y207824D01*
X105866Y205862D01*
X104478Y203458D01*
X103760Y200778D01*
Y198002D01*
X104478Y195322D01*
X105866Y192918D01*
X107828Y190956D01*
X110232Y189568D01*
X112912Y188850D01*
X115688D01*
X118368Y189568D01*
X120772Y190956D01*
X122734Y192918D01*
X124122Y195322D01*
X124840Y198002D01*
Y200778D01*
X124122Y203458D01*
X122734Y205862D01*
X120772Y207824D01*
X118368Y209212D01*
X115688Y209930D01*
D02*
G37*
G36*
X90288D02*
X87512D01*
X84832Y209212D01*
X82428Y207824D01*
X80466Y205862D01*
X79078Y203458D01*
X78360Y200778D01*
Y198002D01*
X79078Y195322D01*
X80466Y192918D01*
X82428Y190956D01*
X84832Y189568D01*
X87512Y188850D01*
X90288D01*
X92968Y189568D01*
X95372Y190956D01*
X97334Y192918D01*
X98722Y195322D01*
X99440Y198002D01*
Y200778D01*
X98722Y203458D01*
X97334Y205862D01*
X95372Y207824D01*
X92968Y209212D01*
X90288Y209930D01*
D02*
G37*
G36*
X674650Y185300D02*
X665630D01*
Y176280D01*
X674650D01*
Y185300D01*
D02*
G37*
G36*
X663090D02*
X654070D01*
Y176280D01*
X663090D01*
Y185300D01*
D02*
G37*
G36*
X115688Y184530D02*
X115570D01*
Y175260D01*
X124840D01*
Y175378D01*
X124122Y178058D01*
X122734Y180462D01*
X120772Y182424D01*
X118368Y183812D01*
X115688Y184530D01*
D02*
G37*
G36*
X113030D02*
X112912D01*
X110232Y183812D01*
X107828Y182424D01*
X105866Y180462D01*
X104478Y178058D01*
X103760Y175378D01*
Y175260D01*
X113030D01*
Y184530D01*
D02*
G37*
G36*
X674650Y173740D02*
X665630D01*
Y164720D01*
X674650D01*
Y173740D01*
D02*
G37*
G36*
X663090D02*
X654070D01*
Y164720D01*
X663090D01*
Y173740D01*
D02*
G37*
G36*
X124840Y172720D02*
X115570D01*
Y163450D01*
X115688D01*
X118368Y164168D01*
X120772Y165556D01*
X122734Y167518D01*
X124122Y169922D01*
X124840Y172602D01*
Y172720D01*
D02*
G37*
G36*
X113030D02*
X103760D01*
Y172602D01*
X104478Y169922D01*
X105866Y167518D01*
X107828Y165556D01*
X110232Y164168D01*
X112912Y163450D01*
X113030D01*
Y172720D01*
D02*
G37*
G36*
X90288Y184530D02*
X87512D01*
X84832Y183812D01*
X82428Y182424D01*
X80466Y180462D01*
X79078Y178058D01*
X78360Y175378D01*
Y172602D01*
X79078Y169922D01*
X80466Y167518D01*
X82428Y165556D01*
X84832Y164168D01*
X87512Y163450D01*
X90288D01*
X92968Y164168D01*
X95372Y165556D01*
X97334Y167518D01*
X98722Y169922D01*
X99440Y172602D01*
Y175378D01*
X98722Y178058D01*
X97334Y180462D01*
X95372Y182424D01*
X92968Y183812D01*
X90288Y184530D01*
D02*
G37*
G36*
X665715Y135300D02*
X665630D01*
Y126280D01*
X674650D01*
Y126365D01*
X673949Y128982D01*
X672594Y131328D01*
X670678Y133244D01*
X668332Y134599D01*
X665715Y135300D01*
D02*
G37*
G36*
X663090D02*
X663005D01*
X660388Y134599D01*
X658042Y133244D01*
X656126Y131328D01*
X654771Y128982D01*
X654070Y126365D01*
Y126280D01*
X663090D01*
Y135300D01*
D02*
G37*
G36*
X674650Y123740D02*
X665630D01*
Y114720D01*
X665715D01*
X668332Y115421D01*
X670678Y116776D01*
X672594Y118692D01*
X673949Y121038D01*
X674650Y123656D01*
Y123740D01*
D02*
G37*
G36*
X663090D02*
X654070D01*
Y123656D01*
X654771Y121038D01*
X656126Y118692D01*
X658042Y116776D01*
X660388Y115421D01*
X663005Y114720D01*
X663090D01*
Y123740D01*
D02*
G37*
G36*
X101600Y105071D02*
X93807D01*
Y100429D01*
X83475D01*
X83314Y100709D01*
X81659Y102364D01*
X79631Y103534D01*
X77470Y104113D01*
Y95250D01*
Y86387D01*
X79631Y86966D01*
X81659Y88136D01*
X83314Y89791D01*
X83475Y90070D01*
X93807D01*
Y85429D01*
X101600D01*
Y95250D01*
Y105071D01*
D02*
G37*
G36*
X74930Y104113D02*
X72769Y103534D01*
X70741Y102364D01*
X69086Y100709D01*
X67916Y98681D01*
X67337Y96520D01*
X74930D01*
Y104113D01*
D02*
G37*
G36*
Y93980D02*
X67337D01*
X67916Y91819D01*
X69086Y89791D01*
X70741Y88136D01*
X72769Y86966D01*
X74930Y86387D01*
Y93980D01*
D02*
G37*
G36*
X607360Y107676D02*
X581360D01*
X577564Y107176D01*
X574027Y105711D01*
X570990Y103380D01*
X568659Y100343D01*
X567194Y96806D01*
X566694Y93010D01*
X567194Y89214D01*
X568659Y85677D01*
X570990Y82640D01*
X574027Y80309D01*
X577564Y78844D01*
X581360Y78345D01*
X607360D01*
X611156Y78844D01*
X614693Y80309D01*
X617730Y82640D01*
X620061Y85677D01*
X621526Y89214D01*
X622025Y93010D01*
X621526Y96806D01*
X620061Y100343D01*
X617730Y103380D01*
X614693Y105711D01*
X611156Y107176D01*
X607360Y107676D01*
D02*
G37*
G36*
X74930Y72363D02*
X72769Y71784D01*
X70741Y70614D01*
X69086Y68959D01*
X67916Y66931D01*
X67337Y64770D01*
X74930D01*
Y72363D01*
D02*
G37*
%LPD*%
D17*
X179564Y101600D02*
D03*
X195580D02*
D03*
X177412Y168910D02*
D03*
X193428D02*
D03*
X176142Y237490D02*
D03*
X192158D02*
D03*
X102870Y95250D02*
D03*
X118886D02*
D03*
X118498Y63500D02*
D03*
X102482D02*
D03*
D19*
X594360Y93010D02*
D03*
Y207010D02*
D03*
D20*
X519360Y125010D02*
D03*
Y150010D02*
D03*
Y175010D02*
D03*
X664360Y125010D02*
D03*
D21*
Y175010D02*
D03*
D28*
X197210Y64770D02*
D03*
X178710D02*
D03*
X195940Y133350D02*
D03*
X177440D02*
D03*
X193400Y201930D02*
D03*
X174900D02*
D03*
D29*
X456985Y286944D02*
D03*
X444285D02*
D03*
X431585D02*
D03*
X418885D02*
D03*
X406185D02*
D03*
X393485D02*
D03*
X380785D02*
D03*
X368085D02*
D03*
X355385D02*
D03*
X342685D02*
D03*
X456985Y214444D02*
D03*
X444285D02*
D03*
X431585D02*
D03*
X418885D02*
D03*
X406185D02*
D03*
X393485D02*
D03*
X380785D02*
D03*
X368085D02*
D03*
X355385D02*
D03*
X342685D02*
D03*
D30*
X245400Y176530D02*
X246920Y175010D01*
X232620Y176530D02*
X245400D01*
X218320Y175010D02*
X231100D01*
X232620Y176530D01*
X246920Y175010D02*
X248920D01*
X248982Y175072D01*
X76200Y95250D02*
X102870D01*
X76200Y63500D02*
X102482D01*
X444285Y327923D02*
X445770Y329408D01*
Y331470D01*
X444285Y286944D02*
Y327923D01*
X355385Y286944D02*
X355492Y287052D01*
Y509162D02*
X355600Y509270D01*
X355492Y287052D02*
Y509162D01*
X384810Y236220D02*
X393485Y227545D01*
Y214444D02*
Y227545D01*
X505460Y244784D02*
Y609600D01*
X439746Y179070D02*
X505460Y244784D01*
X418992Y287052D02*
Y363112D01*
X419100Y363220D01*
X418885Y286944D02*
X418992Y287052D01*
X406185Y286944D02*
Y554775D01*
X452905Y601495D01*
X393485Y286944D02*
Y573825D01*
X403860Y584200D01*
X378460Y607119D02*
X380785Y604794D01*
Y286944D02*
Y604794D01*
X378460Y607119D02*
Y609600D01*
X261142Y166370D02*
X510720D01*
X519360Y175010D01*
X252440Y175072D02*
X261142Y166370D01*
X381245Y208549D02*
X410723Y179070D01*
X439746D01*
X380785Y214444D02*
X381245Y213984D01*
Y208549D02*
Y213984D01*
X248982Y175072D02*
X252440D01*
X215900Y150010D02*
X519360D01*
X480060Y473894D02*
Y609600D01*
X431585Y425419D02*
X480060Y473894D01*
X431585Y286944D02*
Y425419D01*
X452905Y607845D02*
X454660Y609600D01*
X452905Y601495D02*
Y607845D01*
X368085Y286944D02*
Y576795D01*
X353060Y591820D02*
X368085Y576795D01*
X347980Y237968D02*
X355385Y230563D01*
Y214444D02*
Y230563D01*
X347980Y237968D02*
Y240030D01*
X368192Y214552D02*
Y245002D01*
X368085Y214444D02*
X368192Y214552D01*
Y245002D02*
X368300Y245110D01*
X353060Y591820D02*
Y609600D01*
X403860Y584200D02*
Y609498D01*
X378132Y273614D02*
X431124Y220622D01*
X406185Y214444D02*
Y234786D01*
X116276Y273614D02*
X378132D01*
X183101Y260350D02*
X380620D01*
X180125Y257374D02*
X183101Y260350D01*
X175521Y236869D02*
X180125Y241473D01*
X380620Y260350D02*
X406185Y234786D01*
X180125Y241473D02*
Y257374D01*
X431124Y214904D02*
Y220622D01*
Y214904D02*
X431585Y214444D01*
X208292Y114312D02*
X508321D01*
X114300Y275590D02*
X116276Y273614D01*
X418992Y190608D02*
Y214336D01*
Y190608D02*
X419100Y190500D01*
X418885Y214444D02*
X418992Y214336D01*
X63500Y161290D02*
Y250190D01*
Y161290D02*
X117615Y107175D01*
Y96521D02*
X118886Y95250D01*
X117615Y96521D02*
Y107175D01*
X63500Y250190D02*
X88900Y275590D01*
X118692Y95056D02*
X118886Y95250D01*
X192779Y202551D02*
Y236869D01*
Y202551D02*
X193400Y201930D01*
X192158Y237490D02*
X192779Y236869D01*
X195580Y101600D02*
X196395Y100785D01*
Y65585D02*
Y100785D01*
Y65585D02*
X197210Y64770D01*
X194684Y134606D02*
Y167654D01*
Y134606D02*
X195940Y133350D01*
X193428Y168910D02*
X194684Y167654D01*
X177412Y168910D02*
X177426Y168896D01*
Y133364D02*
Y168896D01*
Y133364D02*
X177440Y133350D01*
X178502Y132288D01*
X176156Y170166D02*
X177412Y168910D01*
X193400Y199930D02*
X218320Y175010D01*
X195940Y135350D02*
X210600Y150010D01*
X193400Y199930D02*
Y201930D01*
X195580Y102358D02*
X199563Y106341D01*
X195580Y101600D02*
Y102358D01*
X199563Y106341D02*
X200321D01*
X208292Y114312D01*
X519019Y125010D02*
X519360D01*
X508321Y114312D02*
X519019Y125010D01*
X175521Y202551D02*
Y236869D01*
X174900Y201930D02*
X175521Y202551D01*
X176156Y170166D02*
Y200674D01*
X174900Y201930D02*
X176156Y200674D01*
X178502Y102662D02*
X179564Y101600D01*
X178502Y102662D02*
Y132288D01*
X179137Y65197D02*
Y101173D01*
X179564Y101600D01*
X178710Y64770D02*
X179137Y65197D01*
X118692Y63694D02*
X119133Y64135D01*
X118498Y63500D02*
X118692Y63694D01*
X178075Y64135D02*
X178710Y64770D01*
X119133Y64135D02*
X178075D01*
X118692Y63694D02*
Y95056D01*
D31*
X327660Y609600D02*
D03*
X353060D02*
D03*
X378460D02*
D03*
X302260D02*
D03*
X403860D02*
D03*
X429260D02*
D03*
X480060D02*
D03*
X454660D02*
D03*
X530860D02*
D03*
X505460D02*
D03*
X276860D02*
D03*
D32*
X556260D02*
D03*
D33*
X88900Y275590D02*
D03*
D34*
X114300D02*
D03*
X88900Y250190D02*
D03*
X114300D02*
D03*
X88900Y224790D02*
D03*
X114300D02*
D03*
X88900Y199390D02*
D03*
Y173990D02*
D03*
X114300Y199390D02*
D03*
Y173990D02*
D03*
D35*
X26670Y646430D02*
D03*
X798830Y647700D02*
D03*
X27940Y26670D02*
D03*
X797560Y34290D02*
D03*
D36*
X76200Y95250D02*
D03*
Y63500D02*
D03*
X445770Y331470D02*
D03*
X355600Y509270D02*
D03*
X384810Y236220D02*
D03*
X419100Y363220D02*
D03*
X347980Y240030D02*
D03*
X368300Y245110D02*
D03*
X419100Y190500D02*
D03*
X215900Y149860D02*
D03*
X231140Y114300D02*
D03*
X248920Y176530D02*
D03*
M02*
