M48
;Layer_Color=9474304
;FILE_FORMAT=4:4
METRIC,LZ
;TYPE=PLATED
T1F00S00C0.7112
T2F00S00C0.9500
T3F00S00C1.0000
T4F00S00C1.1000
T6F00S00C3.0000
%
T01
X004191Y001905
X0024892Y0017653
X002159Y0014986
X0023114Y001143
X000762Y0009525
Y000635
X0034798Y0024003
X003683Y0024511
X0038481Y0023622
X0044577Y0033147
X004191Y0036322
X003556Y0050927
T02
X0035306Y006096
X0037846
X0040386
X0042926
X0045466
X0048006
X0050546
X0053086
X0055626
X0032766
X0030226
X0027686
T03
X0051936Y0012501
Y0015001
Y0017501
X0066436
Y0012501
T04
X000889Y0017399
X001143
Y0019939
Y0022479
Y0025019
Y0027559
X000889
Y0025019
Y0022479
Y0019939
T06
X0079756Y0003429
X0002794Y0002667
X0079883Y006477
X0002667Y0064643
M30
