G04*
G04 #@! TF.GenerationSoftware,Altium Limited,Altium Designer,23.3.1 (30)*
G04*
G04 Layer_Color=8388736*
%FSLAX44Y44*%
%MOMM*%
G71*
G04*
G04 #@! TF.SameCoordinates,9D1C814F-3D62-4E25-A1EC-C7D894C9282A*
G04*
G04*
G04 #@! TF.FilePolarity,Negative*
G04*
G01*
G75*
%ADD16R,1.2532X1.6532*%
%ADD17R,1.3046X1.4562*%
G04:AMPARAMS|DCode=18|XSize=0.8032mm|YSize=1.8532mm|CornerRadius=0.1526mm|HoleSize=0mm|Usage=FLASHONLY|Rotation=0.000|XOffset=0mm|YOffset=0mm|HoleType=Round|Shape=RoundedRectangle|*
%AMROUNDEDRECTD18*
21,1,0.8032,1.5480,0,0,0.0*
21,1,0.4980,1.8532,0,0,0.0*
1,1,0.3052,0.2490,-0.7740*
1,1,0.3052,-0.2490,-0.7740*
1,1,0.3052,-0.2490,0.7740*
1,1,0.3052,0.2490,0.7740*
%
%ADD18ROUNDEDRECTD18*%
G04:AMPARAMS|DCode=19|XSize=2.4mm|YSize=5mm|CornerRadius=1.2mm|HoleSize=0mm|Usage=FLASHONLY|Rotation=270.000|XOffset=0mm|YOffset=0mm|HoleType=Round|Shape=RoundedRectangle|*
%AMROUNDEDRECTD19*
21,1,2.4000,2.6000,0,0,270.0*
21,1,0.0000,5.0000,0,0,270.0*
1,1,2.4000,-1.3000,0.0000*
1,1,2.4000,-1.3000,0.0000*
1,1,2.4000,1.3000,0.0000*
1,1,2.4000,1.3000,0.0000*
%
%ADD19ROUNDEDRECTD19*%
%ADD20C,1.5500*%
%ADD21R,1.5500X1.5500*%
%ADD22C,1.6282*%
%ADD23R,1.6282X1.6282*%
%ADD24R,1.8032X1.8032*%
%ADD25C,1.8032*%
%ADD26C,4.2032*%
%ADD27C,1.4732*%
D16*
X197210Y64770D02*
D03*
X178710D02*
D03*
X195940Y133350D02*
D03*
X177440D02*
D03*
X193400Y201930D02*
D03*
X174900D02*
D03*
D17*
X179564Y101600D02*
D03*
X195580D02*
D03*
X177412Y168910D02*
D03*
X193428D02*
D03*
X176142Y237490D02*
D03*
X192158D02*
D03*
X102870Y95250D02*
D03*
X118886D02*
D03*
X118498Y63500D02*
D03*
X102482D02*
D03*
D18*
X456985Y286944D02*
D03*
X444285D02*
D03*
X431585D02*
D03*
X418885D02*
D03*
X406185D02*
D03*
X393485D02*
D03*
X380785D02*
D03*
X368085D02*
D03*
X355385D02*
D03*
X342685D02*
D03*
X456985Y214444D02*
D03*
X444285D02*
D03*
X431585D02*
D03*
X418885D02*
D03*
X406185D02*
D03*
X393485D02*
D03*
X380785D02*
D03*
X368085D02*
D03*
X355385D02*
D03*
X342685D02*
D03*
D19*
X594360Y93010D02*
D03*
Y207010D02*
D03*
D20*
X519360Y125010D02*
D03*
Y150010D02*
D03*
Y175010D02*
D03*
X664360Y125010D02*
D03*
D21*
Y175010D02*
D03*
D22*
X327660Y609600D02*
D03*
X353060D02*
D03*
X378460D02*
D03*
X302260D02*
D03*
X403860D02*
D03*
X429260D02*
D03*
X480060D02*
D03*
X454660D02*
D03*
X530860D02*
D03*
X505460D02*
D03*
X276860D02*
D03*
D23*
X556260D02*
D03*
D24*
X88900Y275590D02*
D03*
D25*
X114300D02*
D03*
X88900Y250190D02*
D03*
X114300D02*
D03*
X88900Y224790D02*
D03*
X114300D02*
D03*
X88900Y199390D02*
D03*
Y173990D02*
D03*
X114300Y199390D02*
D03*
Y173990D02*
D03*
D26*
X26670Y646430D02*
D03*
X798830Y647700D02*
D03*
X27940Y26670D02*
D03*
X797560Y34290D02*
D03*
D27*
X76200Y95250D02*
D03*
Y63500D02*
D03*
X445770Y331470D02*
D03*
X355600Y509270D02*
D03*
X384810Y236220D02*
D03*
X419100Y363220D02*
D03*
X347980Y240030D02*
D03*
X368300Y245110D02*
D03*
X419100Y190500D02*
D03*
X215900Y149860D02*
D03*
X231140Y114300D02*
D03*
X248920Y176530D02*
D03*
M02*
