M48
;Layer_Color=9474304
;FILE_FORMAT=4:4
METRIC,LZ
;TYPE=PLATED
T1F00S00C0.7112
T2F00S00C0.8000
T3F00S00C1.0200
T4F00S00C1.0800
T5F00S00C1.1000
T6F00S00C1.4000
T7F00S00C3.0000
%
T01
X00310639Y00310376
X0037558Y0024706
X00325879Y00158904
X00364255Y000842
X00460374Y00100112
X00513585Y00163056
X00610867Y00157722
X00611208Y00268632
X00995423Y00230874
X01044699Y00203696
X01047239Y00262116
X01134361Y0023316
X01134107Y00189472
X01174239Y00348476
X01134615Y0046303
X01125851Y00495835
X01143759Y00500876
X01158745Y00522212
X01117324Y0052365
X01115819Y00584696
X01161031Y00574536
X01179827Y00576717
X01192019Y00602476
X01212197Y00587056
X01207259Y00564376
X01192864Y0054639
X01260599Y00528816
X01247899Y00490716
X01250439Y00470396
X01245359Y00444996
X01262123Y00601714
X01242819Y00635496
X01245359Y00678676
X01254503Y00702806
X01275839Y00688836
X01205227Y00657848
X01189479Y00671056
X01121661Y00641592
X01131369Y00625981
X0110389Y00637689
X01098039Y00612636
X01100579Y00594856
X01097277Y00564376
X01102907Y00542874
X01083053Y00495542
X01075471Y00475476
X01057399Y00439916
X01098039Y00432296
X00976119Y00475476
X01013203Y00564122
X01049779Y00584696
X01062479Y00610096
X00894839Y00597396
X00879599Y00663436
X00828799Y00554216
X00836419Y00444996
X00742439Y00462776
X00894839Y00356096
X00665731Y00465824
X00691639Y00564376
X00405771Y00578658
X0050162Y00413164
X00183639Y00411976
Y00335776
X00158239Y00513576
Y00589776
X00178032Y00691376
X0023961Y00533632
T02
X00183639Y00159576
Y00259576
T03
X01268219Y00767576
X01293619
T04
X00386839Y00386576
Y00412576
Y00437576
T05
X00742439Y00208776
X00767839
X00793239
X00795779Y00267196
Y00292596
X00770379
Y00267196
Y00317996
X00795779
X00869439Y00284976
Y00259576
Y00234176
Y00208776
X00940021Y00211244
Y00236644
Y00262044
Y00287444
Y00312844
X00965421
Y00287444
Y00262044
Y00236644
Y00211244
X00678939Y00696456
Y00721856
X00259439Y00742176
X00209439
X00132039
X00082039
X00336439
X00386439
X00513839
X00563839
X00678939Y00747256
X00823719Y00759956
X00849119
X00874519
X00899919
X00925319
X01176779Y00767576
X01202179
X01227579
T06
X00336239Y00565576
Y00640576
X00183639
X00133239
X00082839
Y00565576
X00133239
X00183639
T07
X00025651Y00025134
X01340609Y0003631
X00024127Y00822186
X01344419Y0081736
M30
