G04*
G04 #@! TF.GenerationSoftware,Altium Limited,Altium Designer,23.3.1 (30)*
G04*
G04 Layer_Physical_Order=2*
G04 Layer_Color=16711680*
%FSLAX44Y44*%
%MOMM*%
G71*
G04*
G04 #@! TF.SameCoordinates,6291D12B-1A57-4E1F-9114-C69F7EA01FE8*
G04*
G04*
G04 #@! TF.FilePolarity,Positive*
G04*
G01*
G75*
%ADD14C,0.2540*%
%ADD59C,1.5700*%
%ADD60R,1.5700X1.5700*%
%ADD64C,1.2700*%
%ADD65C,0.5080*%
%ADD66C,2.5400*%
%ADD67C,0.2286*%
%ADD71C,2.1000*%
%ADD72C,1.6000*%
%ADD73R,1.6000X1.6000*%
%ADD74C,1.6500*%
%ADD75R,1.6500X1.6500*%
%ADD76C,1.2000*%
%ADD77C,1.5190*%
%ADD78R,1.6000X1.6000*%
%ADD79C,4.0000*%
%ADD80C,1.2700*%
%ADD81C,0.9144*%
D14*
X1194768Y605225D02*
X1205227Y615684D01*
Y657848D01*
X1194768Y602476D02*
Y605225D01*
X1132075Y432296D02*
X1192864Y493086D01*
Y546390D01*
X1098039Y432296D02*
X1132075D01*
X1079177Y462776D02*
X1190185Y573784D01*
X742439Y462776D02*
X1079177D01*
X1151003Y572592D02*
X1159087D01*
X1161031Y574536D01*
X1087057Y506972D02*
Y508646D01*
X1151003Y572592D01*
X1084997Y504912D02*
X1087057Y506972D01*
X1103739Y534202D02*
Y539818D01*
X1077591Y475476D02*
X1115605Y513490D01*
Y521932D01*
X1102907Y542874D02*
X1104851Y540930D01*
X1045013Y475476D02*
X1103739Y534202D01*
X1115605Y521932D02*
X1117324Y523650D01*
X1103739Y539818D02*
X1104851Y540930D01*
X1049779Y584696D02*
X1115819D01*
X1083053Y495542D02*
X1084997Y497486D01*
X1075471Y475476D02*
X1077591D01*
X1084997Y497486D02*
Y504912D01*
X1190185Y573784D02*
Y582862D01*
X1143251Y178550D02*
X1288539Y323838D01*
X737626Y198682D02*
X757759Y178550D01*
X1143251D01*
X1134107Y189472D02*
X1134361Y189726D01*
X1288539Y323838D02*
Y676136D01*
X1134361Y189726D02*
Y233160D01*
X611208Y198682D02*
Y268632D01*
Y198682D02*
X737626D01*
X899919Y648196D02*
X1093383D01*
X1103890Y637689D01*
X900564Y625981D02*
X1131369D01*
X828799Y554216D02*
X900564Y625981D01*
X1254503Y702806D02*
X1262123Y695186D01*
Y601714D02*
Y695186D01*
X985443Y223751D02*
X1004405Y204789D01*
X952914Y223751D02*
X985443D01*
X1004405Y204789D02*
X1043606D01*
X940021Y236644D02*
X952914Y223751D01*
X1179319Y577225D02*
Y660896D01*
Y577225D02*
X1179827Y576717D01*
X1207259Y564376D02*
X1209203Y566320D01*
Y573760D01*
X1212339Y576896D01*
Y586915D01*
X1212197Y587056D02*
X1212339Y586915D01*
X1192019Y602476D02*
X1194768D01*
X310639Y677188D02*
X313905Y680454D01*
X1212237D01*
X1214015Y678676D02*
X1245359D01*
X1179319Y660896D02*
X1189479Y671056D01*
X1212237Y680454D02*
X1214015Y678676D01*
X1087879Y262116D02*
X1174239Y348476D01*
X1190185Y582862D02*
X1242819Y635496D01*
X1043606Y204789D02*
X1044699Y203696D01*
X1047239Y262116D02*
X1087879D01*
X1074684Y274321D02*
X1245359Y444996D01*
X1156459Y399276D02*
X1247899Y490716D01*
X1004059Y399276D02*
X1156459D01*
X940021Y335238D02*
X1004059Y399276D01*
X1080259Y300216D02*
X1250439Y470396D01*
X950752Y274321D02*
X1074684D01*
X957616Y300216D02*
X1080259D01*
X1147569Y420866D02*
X1253575Y526872D01*
X894839Y356096D02*
X959609Y420866D01*
X1253575Y526872D02*
X1258655D01*
X959609Y420866D02*
X1147569D01*
X1258655Y526872D02*
X1260599Y528816D01*
X940021Y262044D02*
Y263589D01*
X950752Y274321D01*
X806251Y305608D02*
X940559Y439916D01*
X944942Y429059D02*
X1066862D01*
X940559Y439916D02*
X1057399D01*
X1088488Y442456D02*
X1140689Y494657D01*
X1066862Y429059D02*
X1080259Y442456D01*
X1088488D01*
X813559Y297676D02*
X944942Y429059D01*
X940021Y287444D02*
X942596Y290019D01*
X947420D01*
X957616Y300216D01*
X1275839Y688836D02*
X1288539Y676136D01*
X940021Y312844D02*
Y335238D01*
X1140689Y495057D02*
X1143759Y498127D01*
Y500876D01*
X1140689Y494657D02*
Y495057D01*
X1085172Y455156D02*
X1125851Y495835D01*
X846579Y455156D02*
X1085172D01*
X836419Y444996D02*
X846579Y455156D01*
X976119Y475476D02*
X1045013D01*
X813559Y287516D02*
Y297676D01*
X795779Y269736D02*
X813559Y287516D01*
X795779Y267196D02*
Y269736D01*
X783391Y305608D02*
X806251D01*
X770379Y292596D02*
X783391Y305608D01*
X894839Y597396D02*
X897379Y594856D01*
X1100579D01*
X1062479Y610096D02*
X1065019Y612636D01*
X1098039D01*
X884679Y663436D02*
X899919Y648196D01*
X879599Y663436D02*
X884679D01*
X310639Y310376D02*
Y677188D01*
D59*
X1268219Y767576D02*
D03*
D60*
X1293619D02*
D03*
D64*
X513585Y163056D02*
X518919Y157722D01*
X610867D01*
X381333Y56376D02*
X412239D01*
X455975Y100112D01*
X460374D01*
X364255Y73453D02*
X381333Y56376D01*
X364255Y73453D02*
Y84200D01*
D65*
X665731Y465824D02*
X701832D01*
X704880Y462776D02*
X742439D01*
X701832Y465824D02*
X704880Y462776D01*
X463039Y411976D02*
X554813Y320202D01*
X769884D01*
X995423Y230874D02*
X1026665Y262116D01*
X1047239D01*
X742439Y208776D02*
Y319602D01*
X742533Y319697D01*
X463039Y411976D02*
X500432D01*
X412439D02*
X463039D01*
X420054Y564376D02*
X691639D01*
X405771Y578658D02*
X420054Y564376D01*
X500432Y411976D02*
X501620Y413164D01*
X386839Y437576D02*
X412439Y411976D01*
D66*
X97718Y594602D02*
X153413D01*
X82839Y609481D02*
X97718Y594602D01*
X160804Y628087D02*
X173293Y615598D01*
X82839Y609481D02*
Y640576D01*
X82039Y691776D02*
X145728Y628087D01*
X160804D01*
X153413Y594602D02*
X158239Y589776D01*
X173293Y615598D02*
X199363D01*
X214242Y600719D01*
Y555216D02*
Y600719D01*
X325879Y197359D02*
X375580Y247060D01*
X325879Y158904D02*
Y197359D01*
X240425Y534447D02*
X240774D01*
X239610Y533632D02*
X240425Y534447D01*
X240774D02*
X259839Y553511D01*
X172602Y513576D02*
X214242Y555216D01*
X259839Y553511D02*
Y676497D01*
X158239Y513576D02*
X172602D01*
X244960Y691376D02*
X259839Y676497D01*
X178032Y691376D02*
X244960D01*
X183639Y335776D02*
Y411976D01*
X158839Y590376D02*
X183639Y565576D01*
X82039Y691776D02*
Y742176D01*
D67*
X1013203Y564122D02*
X1013457Y564376D01*
X1097277D01*
X1134615Y463030D02*
Y464554D01*
X1158745Y488684D01*
Y522212D01*
D71*
X336239Y640576D02*
D03*
X183639D02*
D03*
X133239D02*
D03*
X82839D02*
D03*
Y565576D02*
D03*
X133239D02*
D03*
X183639D02*
D03*
X336239D02*
D03*
D72*
X940021Y312844D02*
D03*
Y287444D02*
D03*
X965421Y312844D02*
D03*
Y287444D02*
D03*
X940021Y262044D02*
D03*
X965421D02*
D03*
X940021Y236644D02*
D03*
X965421D02*
D03*
X940021Y211244D02*
D03*
X678939Y721856D02*
D03*
Y696456D02*
D03*
X1176779Y767576D02*
D03*
X1202179D02*
D03*
X874519Y759956D02*
D03*
X899919D02*
D03*
X849119D02*
D03*
X823719D02*
D03*
X742439Y208776D02*
D03*
X767839D02*
D03*
X869439Y284976D02*
D03*
Y259576D02*
D03*
Y234176D02*
D03*
X336439Y742176D02*
D03*
X563839D02*
D03*
X209439D02*
D03*
X82039D02*
D03*
D73*
X965421Y211244D02*
D03*
X678939Y747256D02*
D03*
X869439Y208776D02*
D03*
D74*
X795779Y267196D02*
D03*
Y292596D02*
D03*
X770379Y267196D02*
D03*
Y292596D02*
D03*
X795779Y317996D02*
D03*
D75*
X770379D02*
D03*
D76*
X183639Y159576D02*
D03*
Y259576D02*
D03*
D77*
X386839Y386576D02*
D03*
Y412576D02*
D03*
Y437576D02*
D03*
D78*
X1227579Y767576D02*
D03*
X925319Y759956D02*
D03*
X793239Y208776D02*
D03*
X386439Y742176D02*
D03*
X513839D02*
D03*
X259439D02*
D03*
X132039D02*
D03*
D79*
X1344419Y817360D02*
D03*
X1340609Y36310D02*
D03*
X25651Y25134D02*
D03*
X24127Y822186D02*
D03*
D80*
X610867Y157722D02*
D03*
X1205227Y657848D02*
D03*
X665731Y465824D02*
D03*
X513585Y163056D02*
D03*
X1254503Y702806D02*
D03*
X1013203Y564122D02*
D03*
X1097277Y564376D02*
D03*
X1134615Y463030D02*
D03*
X1117324Y523650D02*
D03*
X1102907Y542874D02*
D03*
X1083053Y495542D02*
D03*
X1158745Y522212D02*
D03*
X1134107Y189472D02*
D03*
X1134361Y233160D02*
D03*
X1103890Y637689D02*
D03*
X1262123Y601714D02*
D03*
X1131369Y625981D02*
D03*
X1121661Y641592D02*
D03*
X995423Y230874D02*
D03*
X1075471Y475476D02*
D03*
X1161031Y574536D02*
D03*
X1179827Y576717D02*
D03*
X1192019Y602476D02*
D03*
X1189479Y671056D02*
D03*
X1174239Y348476D02*
D03*
X1192864Y546390D02*
D03*
X1207259Y564376D02*
D03*
X1044699Y203696D02*
D03*
X1098039Y432296D02*
D03*
X1047239Y262116D02*
D03*
X1245359Y444996D02*
D03*
X1250439Y470396D02*
D03*
X1247899Y490716D02*
D03*
X1049779Y584696D02*
D03*
X1260599Y528816D02*
D03*
X894839Y356096D02*
D03*
X1143759Y500876D02*
D03*
X1125851Y495835D02*
D03*
X1057399Y439916D02*
D03*
X836419Y444996D02*
D03*
X976119Y475476D02*
D03*
X1115819Y584696D02*
D03*
X894839Y597396D02*
D03*
X1100579Y594856D02*
D03*
X1062479Y610096D02*
D03*
X1098039Y612636D02*
D03*
X879599Y663436D02*
D03*
X828799Y554216D02*
D03*
X1242819Y635496D02*
D03*
X1245359Y678676D02*
D03*
X325879Y158904D02*
D03*
X1275839Y688836D02*
D03*
X691639Y564376D02*
D03*
X742439Y462776D02*
D03*
X405771Y578658D02*
D03*
X310639Y310376D02*
D03*
X611208Y268632D02*
D03*
X501620Y413164D02*
D03*
X364255Y84200D02*
D03*
X460374Y100112D02*
D03*
X375580Y247060D02*
D03*
X239610Y533632D02*
D03*
X178032Y691376D02*
D03*
X183639Y411976D02*
D03*
Y335776D02*
D03*
X158239Y589776D02*
D03*
Y513576D02*
D03*
D81*
X1212197Y587056D02*
D03*
M02*
