G04*
G04 #@! TF.GenerationSoftware,Altium Limited,Altium Designer,23.3.1 (30)*
G04*
G04 Layer_Physical_Order=1*
G04 Layer_Color=255*
%FSLAX44Y44*%
%MOMM*%
G71*
G04*
G04 #@! TF.SameCoordinates,6291D12B-1A57-4E1F-9114-C69F7EA01FE8*
G04*
G04*
G04 #@! TF.FilePolarity,Positive*
G04*
G01*
G75*
%ADD14C,0.2540*%
%ADD18O,0.3500X1.7000*%
%ADD19R,1.4500X1.0500*%
%ADD20R,1.3046X1.4562*%
%ADD21R,1.4562X1.3046*%
%ADD22R,1.0500X1.4500*%
%ADD23R,1.7000X1.5000*%
%ADD24R,0.8000X0.9000*%
%ADD25R,1.5500X1.2500*%
G04:AMPARAMS|DCode=26|XSize=1.6552mm|YSize=0.2525mm|CornerRadius=0mm|HoleSize=0mm|Usage=FLASHONLY|Rotation=135.000|XOffset=0mm|YOffset=0mm|HoleType=Round|Shape=Rectangle|*
%AMROTATEDRECTD26*
4,1,4,0.6745,-0.4960,0.4960,-0.6745,-0.6745,0.4960,-0.4960,0.6745,0.6745,-0.4960,0.0*
%
%ADD26ROTATEDRECTD26*%

G04:AMPARAMS|DCode=27|XSize=1.6552mm|YSize=0.2525mm|CornerRadius=0.1262mm|HoleSize=0mm|Usage=FLASHONLY|Rotation=135.000|XOffset=0mm|YOffset=0mm|HoleType=Round|Shape=RoundedRectangle|*
%AMROUNDEDRECTD27*
21,1,1.6552,0.0000,0,0,135.0*
21,1,1.4028,0.2525,0,0,135.0*
1,1,0.2525,-0.4960,0.4960*
1,1,0.2525,0.4960,-0.4960*
1,1,0.2525,0.4960,-0.4960*
1,1,0.2525,-0.4960,0.4960*
%
%ADD27ROUNDEDRECTD27*%
G04:AMPARAMS|DCode=28|XSize=0.2525mm|YSize=1.6552mm|CornerRadius=0.1262mm|HoleSize=0mm|Usage=FLASHONLY|Rotation=135.000|XOffset=0mm|YOffset=0mm|HoleType=Round|Shape=RoundedRectangle|*
%AMROUNDEDRECTD28*
21,1,0.2525,1.4028,0,0,135.0*
21,1,0.0000,1.6552,0,0,135.0*
1,1,0.2525,0.4960,0.4960*
1,1,0.2525,0.4960,0.4960*
1,1,0.2525,-0.4960,-0.4960*
1,1,0.2525,-0.4960,-0.4960*
%
%ADD28ROUNDEDRECTD28*%
%ADD29R,1.1000X2.9000*%
%ADD30R,0.9000X0.8000*%
%ADD31R,0.9100X1.2200*%
%ADD32R,1.3562X1.1046*%
%ADD33R,4.2700X1.7800*%
%ADD34R,1.1046X1.3562*%
%ADD35R,5.6500X6.9000*%
%ADD36R,1.0000X2.8500*%
%ADD37R,1.2200X0.9100*%
%ADD59C,1.5700*%
%ADD60R,1.5700X1.5700*%
%ADD64C,1.2700*%
%ADD65C,0.5080*%
%ADD66C,2.5400*%
%ADD67C,0.2286*%
%ADD68C,0.4318*%
%ADD69C,0.4826*%
%ADD70C,0.4572*%
%ADD71C,2.1000*%
%ADD72C,1.6000*%
%ADD73R,1.6000X1.6000*%
%ADD74C,1.6500*%
%ADD75R,1.6500X1.6500*%
%ADD76C,1.2000*%
%ADD77C,1.5190*%
%ADD78R,1.6000X1.6000*%
%ADD79C,4.0000*%
%ADD80C,1.2700*%
%ADD81C,0.9144*%
G36*
X1320800Y101600D02*
X812800D01*
X741680Y30480D01*
X223520D01*
X50800Y203200D01*
Y792480D01*
X175419D01*
X175905Y791307D01*
X167707Y783108D01*
X165386Y780084D01*
X163927Y776562D01*
X163430Y772782D01*
Y691376D01*
Y646182D01*
X163927Y642403D01*
X165386Y638881D01*
X167707Y635856D01*
X173313Y630250D01*
X176337Y627929D01*
X179859Y626471D01*
X183639Y625973D01*
X187418Y626471D01*
X190940Y627929D01*
X193965Y630250D01*
X196285Y633274D01*
X197744Y636796D01*
X197813Y637317D01*
X199083Y637233D01*
Y633541D01*
X169921Y604379D01*
X158239D01*
X154459Y603881D01*
X150937Y602422D01*
X147913Y600102D01*
X145592Y597077D01*
X144133Y593555D01*
X143636Y589776D01*
X144133Y585996D01*
X145592Y582475D01*
X147913Y579450D01*
X150937Y577129D01*
X154459Y575671D01*
X158239Y575173D01*
X174213D01*
X174699Y574000D01*
X173814Y573115D01*
X172197Y570315D01*
X171361Y567192D01*
Y563960D01*
X172197Y560837D01*
X173814Y558037D01*
X176100Y555751D01*
X178900Y554135D01*
X182022Y553298D01*
X185255D01*
X188378Y554135D01*
X191178Y555751D01*
X193464Y558037D01*
X195080Y560837D01*
X195917Y563960D01*
Y567192D01*
X195080Y570315D01*
X193464Y573115D01*
X191178Y575401D01*
X188378Y577017D01*
X186031Y577646D01*
X185754Y579035D01*
X186295Y579450D01*
X224011Y617166D01*
X226332Y620191D01*
X227791Y623713D01*
X228288Y627492D01*
Y737929D01*
X227791Y741709D01*
X226332Y745231D01*
X224011Y748255D01*
X219765Y752502D01*
X216740Y754822D01*
X213218Y756281D01*
X209439Y756779D01*
X205659Y756281D01*
X202137Y754822D01*
X199113Y752502D01*
X196792Y749477D01*
X195333Y745955D01*
X194836Y742176D01*
X195333Y738396D01*
X196792Y734874D01*
X199083Y731890D01*
Y643918D01*
X197813Y643835D01*
X197744Y644355D01*
X196285Y647877D01*
X193965Y650902D01*
X192635Y652231D01*
Y691376D01*
Y766733D01*
X198960Y773058D01*
X207905D01*
X249113Y731850D01*
X252137Y729529D01*
X255659Y728071D01*
X259439Y727573D01*
X263218Y728071D01*
X266740Y729529D01*
X269765Y731850D01*
X272085Y734874D01*
X273544Y738396D01*
X274042Y742176D01*
X273544Y745956D01*
X272085Y749477D01*
X269765Y752502D01*
X230960Y791307D01*
X231446Y792480D01*
X342456D01*
X342982Y791210D01*
X326113Y774341D01*
X323792Y771317D01*
X322333Y767795D01*
X321836Y764015D01*
Y742176D01*
X322333Y738396D01*
X323792Y734874D01*
X326113Y731850D01*
X329137Y729529D01*
X332659Y728071D01*
X336439Y727573D01*
X340218Y728071D01*
X343740Y729529D01*
X346765Y731850D01*
X349085Y734874D01*
X350544Y738396D01*
X351042Y742176D01*
Y757967D01*
X359754Y766679D01*
X392484D01*
X448436Y710727D01*
Y640576D01*
X448576Y639509D01*
X447739Y638554D01*
X437661D01*
Y618208D01*
X437661Y617198D01*
X436498Y616938D01*
X430976D01*
X401042Y646873D01*
Y742176D01*
X400544Y745956D01*
X399085Y749477D01*
X396765Y752502D01*
X393740Y754822D01*
X390218Y756281D01*
X386439Y756779D01*
X382659Y756281D01*
X379137Y754822D01*
X376113Y752502D01*
X373792Y749477D01*
X372333Y745956D01*
X371836Y742176D01*
Y640824D01*
X372333Y637045D01*
X373792Y633523D01*
X376113Y630499D01*
X414602Y592010D01*
X417626Y589689D01*
X421148Y588230D01*
X424928Y587732D01*
X460648D01*
X464428Y588230D01*
X467950Y589689D01*
X470698Y591798D01*
X483917D01*
Y613154D01*
X470656D01*
X468090Y615122D01*
X466146Y615928D01*
X466398Y617198D01*
X483917D01*
Y638554D01*
X478339D01*
X477501Y639509D01*
X477642Y640576D01*
Y716776D01*
X477144Y720555D01*
X475685Y724077D01*
X473365Y727102D01*
X409256Y791210D01*
X409782Y792480D01*
X1320800D01*
Y101600D01*
D02*
G37*
%LPC*%
G36*
X1238119Y778116D02*
X1228849D01*
Y768846D01*
X1238119D01*
Y778116D01*
D02*
G37*
G36*
X1226309D02*
X1217039D01*
Y768846D01*
X1226309D01*
Y778116D01*
D02*
G37*
G36*
X1238119Y766306D02*
X1228849D01*
Y757036D01*
X1238119D01*
Y766306D01*
D02*
G37*
G36*
X1226309D02*
X1217039D01*
Y757036D01*
X1226309D01*
Y766306D01*
D02*
G37*
G36*
X524379Y752716D02*
X515109D01*
Y743446D01*
X524379D01*
Y752716D01*
D02*
G37*
G36*
X512569D02*
X503299D01*
Y743446D01*
X512569D01*
Y752716D01*
D02*
G37*
G36*
X83326Y751954D02*
X80751D01*
X78265Y751288D01*
X76035Y750000D01*
X74214Y748180D01*
X72927Y745950D01*
X72261Y743463D01*
Y740889D01*
X72927Y738402D01*
X74214Y736172D01*
X76035Y734352D01*
X78265Y733064D01*
X80751Y732398D01*
X83326D01*
X85813Y733064D01*
X88043Y734352D01*
X89863Y736172D01*
X91150Y738402D01*
X91817Y740889D01*
Y743463D01*
X91150Y745950D01*
X89863Y748180D01*
X88043Y750000D01*
X85813Y751288D01*
X83326Y751954D01*
D02*
G37*
G36*
X524379Y740906D02*
X515109D01*
Y731636D01*
X524379D01*
Y740906D01*
D02*
G37*
G36*
X512569D02*
X503299D01*
Y731636D01*
X512569D01*
Y740906D01*
D02*
G37*
G36*
X1255773Y711669D02*
Y704076D01*
X1263366D01*
X1262787Y706237D01*
X1261617Y708264D01*
X1259961Y709920D01*
X1257934Y711090D01*
X1255773Y711669D01*
D02*
G37*
G36*
X1253233D02*
X1251071Y711090D01*
X1249044Y709920D01*
X1247389Y708264D01*
X1246219Y706237D01*
X1245639Y704076D01*
X1253233D01*
Y711669D01*
D02*
G37*
G36*
X1263366Y701536D02*
X1255773D01*
Y693943D01*
X1257934Y694522D01*
X1259961Y695692D01*
X1261617Y697347D01*
X1262787Y699374D01*
X1263366Y701536D01*
D02*
G37*
G36*
X1253233D02*
X1245639D01*
X1246219Y699374D01*
X1247389Y697347D01*
X1249044Y695692D01*
X1251071Y694522D01*
X1253233Y693943D01*
Y701536D01*
D02*
G37*
G36*
X1178066Y777354D02*
X1175491D01*
X1173005Y776688D01*
X1170775Y775400D01*
X1168954Y773580D01*
X1167667Y771350D01*
X1167001Y768863D01*
Y766289D01*
X1167667Y763802D01*
X1168954Y761572D01*
X1170775Y759752D01*
X1173005Y758464D01*
X1175491Y757798D01*
X1178066D01*
X1180553Y758464D01*
X1181151Y758809D01*
X1186371Y753589D01*
Y678638D01*
X1186341Y678630D01*
X1184488Y677560D01*
X1182975Y676047D01*
X1181905Y674193D01*
X1181351Y672126D01*
Y669986D01*
X1181905Y667919D01*
X1182975Y666065D01*
X1184488Y664552D01*
X1186341Y663482D01*
X1188409Y662928D01*
X1190549D01*
X1192616Y663482D01*
X1194470Y664552D01*
X1195983Y666065D01*
X1197053Y667919D01*
X1197607Y669986D01*
Y672126D01*
X1197053Y674193D01*
X1195983Y676047D01*
X1194470Y677560D01*
X1192616Y678630D01*
X1192587Y678638D01*
Y754876D01*
X1192350Y756065D01*
X1191676Y757073D01*
X1185545Y763204D01*
X1185890Y763802D01*
X1186557Y766289D01*
Y768863D01*
X1185890Y771350D01*
X1184603Y773580D01*
X1182783Y775400D01*
X1180553Y776688D01*
X1178066Y777354D01*
D02*
G37*
G36*
X688717Y757034D02*
X669161D01*
Y737478D01*
X688717D01*
Y744148D01*
X751311D01*
X834221Y661238D01*
X835229Y660565D01*
X836419Y660328D01*
X872017D01*
X872025Y660299D01*
X873095Y658445D01*
X874608Y656932D01*
X876461Y655862D01*
X878529Y655308D01*
X880669D01*
X882736Y655862D01*
X884589Y656932D01*
X886103Y658445D01*
X887173Y660299D01*
X887727Y662366D01*
Y664506D01*
X887173Y666573D01*
X886103Y668427D01*
X884589Y669940D01*
X882736Y671010D01*
X880669Y671564D01*
X878529D01*
X876461Y671010D01*
X874608Y669940D01*
X873095Y668427D01*
X872025Y666573D01*
X872017Y666544D01*
X837706D01*
X754796Y749453D01*
X753788Y750127D01*
X752599Y750364D01*
X688717D01*
Y757034D01*
D02*
G37*
G36*
X1203466Y777354D02*
X1200891D01*
X1198405Y776688D01*
X1196175Y775400D01*
X1194354Y773580D01*
X1193067Y771350D01*
X1192401Y768863D01*
Y766289D01*
X1193067Y763802D01*
X1194354Y761572D01*
X1196175Y759752D01*
X1198405Y758464D01*
X1199071Y758286D01*
Y669278D01*
X1199308Y668089D01*
X1199981Y667081D01*
X1200341Y666721D01*
Y664413D01*
X1200236Y664352D01*
X1198723Y662839D01*
X1197653Y660985D01*
X1197099Y658918D01*
Y656778D01*
X1197653Y654711D01*
X1198723Y652857D01*
X1200236Y651344D01*
X1202089Y650274D01*
X1204157Y649720D01*
X1206297D01*
X1208364Y650274D01*
X1210218Y651344D01*
X1211731Y652857D01*
X1212801Y654711D01*
X1213355Y656778D01*
Y658918D01*
X1212801Y660985D01*
X1211731Y662839D01*
X1210218Y664352D01*
X1208364Y665422D01*
X1206556Y665906D01*
Y668008D01*
X1206320Y669197D01*
X1205646Y670205D01*
X1205286Y670565D01*
Y758286D01*
X1205953Y758464D01*
X1208183Y759752D01*
X1210003Y761572D01*
X1211290Y763802D01*
X1211957Y766289D01*
Y768863D01*
X1211290Y771350D01*
X1210003Y773580D01*
X1208183Y775400D01*
X1205953Y776688D01*
X1203466Y777354D01*
D02*
G37*
G36*
X132039Y756779D02*
X128259Y756281D01*
X124737Y754822D01*
X121713Y752502D01*
X119392Y749477D01*
X117933Y745956D01*
X117436Y742176D01*
Y703992D01*
X102193Y688749D01*
X99872Y685724D01*
X98413Y682203D01*
X97916Y678423D01*
Y661223D01*
X95614Y658224D01*
X94155Y654702D01*
X93658Y650922D01*
Y648781D01*
X92388Y648391D01*
X90378Y650401D01*
X87578Y652017D01*
X84455Y652854D01*
X81222D01*
X78100Y652017D01*
X75300Y650401D01*
X73014Y648115D01*
X71398Y645315D01*
X70561Y642192D01*
Y638960D01*
X71398Y635837D01*
X73014Y633037D01*
X75300Y630751D01*
X78100Y629135D01*
X81222Y628298D01*
X84455D01*
X87578Y629135D01*
X90378Y630751D01*
X92388Y632761D01*
X93658Y632371D01*
Y590554D01*
X94155Y586774D01*
X95614Y583252D01*
X97935Y580228D01*
X112587Y565576D01*
X71713Y524702D01*
X69392Y521677D01*
X67933Y518156D01*
X67436Y514376D01*
Y493334D01*
X67933Y489554D01*
X69392Y486032D01*
X71713Y483008D01*
X94161Y460560D01*
X97186Y458239D01*
X100708Y456780D01*
X104487Y456283D01*
X224769D01*
X228548Y456780D01*
X232070Y458239D01*
X235094Y460560D01*
X270165Y495630D01*
X272485Y498655D01*
X273944Y502176D01*
X274442Y505956D01*
X273944Y509735D01*
X272485Y513257D01*
X270165Y516282D01*
X267140Y518602D01*
X263618Y520061D01*
X259839Y520559D01*
X256059Y520061D01*
X252537Y518602D01*
X249513Y516282D01*
X218720Y485489D01*
X110536D01*
X96642Y499383D01*
Y508327D01*
X143565Y555250D01*
X145885Y558274D01*
X147344Y561796D01*
X147842Y565576D01*
X147344Y569355D01*
X145885Y572877D01*
X143565Y575902D01*
X122864Y596603D01*
Y631791D01*
X124134Y632317D01*
X125700Y630751D01*
X128500Y629135D01*
X131622Y628298D01*
X134855D01*
X137978Y629135D01*
X140778Y630751D01*
X143064Y633037D01*
X144680Y635837D01*
X145517Y638960D01*
Y642192D01*
X144680Y645315D01*
X143064Y648115D01*
X140778Y650401D01*
X137978Y652017D01*
X134855Y652854D01*
X131622D01*
X128500Y652017D01*
X127944Y651696D01*
X126767Y652483D01*
X127122Y655180D01*
Y672374D01*
X142365Y687617D01*
X144685Y690642D01*
X146144Y694164D01*
X146642Y697943D01*
Y742176D01*
X146144Y745956D01*
X144685Y749477D01*
X142365Y752502D01*
X139340Y754822D01*
X135818Y756281D01*
X132039Y756779D01*
D02*
G37*
G36*
X590779Y639316D02*
X568159D01*
Y629146D01*
X590779D01*
Y639316D01*
D02*
G37*
G36*
X565619D02*
X542999D01*
Y629146D01*
X565619D01*
Y639316D01*
D02*
G37*
G36*
X590779Y626606D02*
X568159D01*
Y616436D01*
X590779D01*
Y626606D01*
D02*
G37*
G36*
X565619D02*
X542999D01*
Y616436D01*
X565619D01*
Y626606D01*
D02*
G37*
G36*
X1303247Y777204D02*
X1283991D01*
Y757948D01*
X1298852D01*
X1303160Y753640D01*
Y669854D01*
X1239480Y606174D01*
X1238307Y606660D01*
Y610293D01*
X1296344Y668331D01*
X1297018Y669339D01*
X1297254Y670528D01*
Y704307D01*
X1297018Y705497D01*
X1296344Y706505D01*
X1271327Y731523D01*
Y758441D01*
X1271935Y758604D01*
X1274130Y759872D01*
X1275923Y761664D01*
X1277191Y763860D01*
X1277847Y766308D01*
Y768844D01*
X1277191Y771292D01*
X1275923Y773488D01*
X1274130Y775280D01*
X1271935Y776548D01*
X1269486Y777204D01*
X1266951D01*
X1264502Y776548D01*
X1262307Y775280D01*
X1260514Y773488D01*
X1259247Y771292D01*
X1258591Y768844D01*
Y766308D01*
X1259247Y763860D01*
X1260514Y761664D01*
X1262307Y759872D01*
X1264502Y758604D01*
X1265111Y758441D01*
Y730235D01*
X1265348Y729046D01*
X1266021Y728038D01*
X1291039Y703020D01*
Y671815D01*
X1251753Y632530D01*
X1250615Y633187D01*
X1250947Y634426D01*
Y636566D01*
X1250393Y638633D01*
X1249323Y640487D01*
X1247810Y642000D01*
X1245956Y643070D01*
X1243889Y643624D01*
X1241749D01*
X1239681Y643070D01*
X1237828Y642000D01*
X1236315Y640487D01*
X1235245Y638633D01*
X1234691Y636566D01*
Y634426D01*
X1235245Y632359D01*
X1236026Y631005D01*
X1232499Y627478D01*
X1231326Y627964D01*
Y637388D01*
X1274672Y680734D01*
X1274769Y680708D01*
X1276909D01*
X1278976Y681262D01*
X1280829Y682332D01*
X1282343Y683845D01*
X1283413Y685699D01*
X1283967Y687766D01*
Y689906D01*
X1283413Y691973D01*
X1282343Y693827D01*
X1280829Y695340D01*
X1278976Y696410D01*
X1276909Y696964D01*
X1274769D01*
X1272701Y696410D01*
X1270848Y695340D01*
X1269335Y693827D01*
X1268265Y691973D01*
X1267711Y689906D01*
Y687766D01*
X1268265Y685699D01*
X1269210Y684062D01*
X1249708Y664560D01*
X1249264Y664642D01*
X1248466Y665115D01*
Y671094D01*
X1248496Y671102D01*
X1250350Y672172D01*
X1251863Y673685D01*
X1252933Y675539D01*
X1253487Y677606D01*
Y679746D01*
X1252933Y681813D01*
X1251863Y683667D01*
X1250350Y685180D01*
X1248496Y686250D01*
X1246429Y686804D01*
X1244289D01*
X1242222Y686250D01*
X1240368Y685180D01*
X1238855Y683667D01*
X1237785Y681813D01*
X1237231Y679746D01*
Y677606D01*
X1237785Y675539D01*
X1238855Y673685D01*
X1240368Y672172D01*
X1242222Y671102D01*
X1242251Y671094D01*
Y666077D01*
X1220301Y644127D01*
X1219628Y643119D01*
X1219391Y641929D01*
Y628512D01*
X1215296Y624417D01*
X1214122Y624903D01*
Y627358D01*
X1213886Y628547D01*
X1213212Y629555D01*
X1210687Y632080D01*
X1209679Y632754D01*
X1208490Y632991D01*
X1206539D01*
X1128176Y711353D01*
X1127168Y712027D01*
X1125979Y712264D01*
X977406D01*
X935097Y754573D01*
Y769734D01*
X915541D01*
Y750178D01*
X930702D01*
X973921Y706958D01*
X974930Y706285D01*
X976119Y706048D01*
X1124691D01*
X1203054Y627685D01*
X1202970Y626222D01*
X1201750Y625002D01*
X1184766Y641986D01*
Y642829D01*
X1184530Y644018D01*
X1183856Y645027D01*
X1127689Y701193D01*
X1126681Y701867D01*
X1125492Y702104D01*
X949466D01*
X903027Y748543D01*
Y750666D01*
X903693Y750844D01*
X905923Y752132D01*
X907743Y753952D01*
X909030Y756182D01*
X909697Y758669D01*
Y761243D01*
X909030Y763730D01*
X907743Y765960D01*
X905923Y767780D01*
X903693Y769068D01*
X901206Y769734D01*
X898632D01*
X896145Y769068D01*
X893915Y767780D01*
X892094Y765960D01*
X890807Y763730D01*
X890141Y761243D01*
Y758669D01*
X890807Y756182D01*
X892094Y753952D01*
X893915Y752132D01*
X896145Y750844D01*
X896811Y750666D01*
Y747256D01*
X897048Y746067D01*
X897721Y745059D01*
X945981Y696798D01*
X946990Y696125D01*
X948179Y695888D01*
X1123267D01*
X1123347Y695754D01*
X1122628Y694484D01*
X934226D01*
X878952Y749758D01*
X879161Y751345D01*
X880523Y752132D01*
X882343Y753952D01*
X883630Y756182D01*
X884297Y758669D01*
Y761243D01*
X883630Y763730D01*
X882343Y765960D01*
X880523Y767780D01*
X878293Y769068D01*
X875806Y769734D01*
X873232D01*
X870745Y769068D01*
X868515Y767780D01*
X866694Y765960D01*
X865407Y763730D01*
X864741Y761243D01*
Y758669D01*
X865407Y756182D01*
X866694Y753952D01*
X868515Y752132D01*
X870745Y750844D01*
X871573Y750622D01*
Y749634D01*
X871810Y748445D01*
X872483Y747436D01*
X930741Y689178D01*
X931749Y688505D01*
X932939Y688268D01*
X1122151D01*
X1174233Y636187D01*
Y634934D01*
X1174470Y633745D01*
X1175143Y632737D01*
X1178056Y629823D01*
X1177431Y628653D01*
X1177333Y628672D01*
X1176147Y628436D01*
X1175141Y627764D01*
X1174789Y627237D01*
X1173306Y626924D01*
X1172266Y627963D01*
Y632956D01*
X1172030Y634145D01*
X1171356Y635153D01*
X1120556Y685953D01*
X1119548Y686627D01*
X1118359Y686864D01*
X916446D01*
X853552Y749758D01*
X853761Y751345D01*
X855123Y752132D01*
X856943Y753952D01*
X858230Y756182D01*
X858897Y758669D01*
Y761243D01*
X858230Y763730D01*
X856943Y765960D01*
X855123Y767780D01*
X852893Y769068D01*
X850406Y769734D01*
X847831D01*
X845345Y769068D01*
X843115Y767780D01*
X841294Y765960D01*
X840007Y763730D01*
X839341Y761243D01*
Y758669D01*
X840007Y756182D01*
X841294Y753952D01*
X843115Y752132D01*
X845345Y750844D01*
X846173Y750622D01*
Y749634D01*
X846410Y748445D01*
X847083Y747436D01*
X912961Y681559D01*
X913969Y680885D01*
X915159Y680648D01*
X1117072D01*
X1166051Y631669D01*
Y628767D01*
X1164878Y628281D01*
X1114825Y678333D01*
X1113817Y679007D01*
X1112627Y679244D01*
X896126D01*
X826826Y748543D01*
Y750666D01*
X827493Y750844D01*
X829723Y752132D01*
X831543Y753952D01*
X832830Y756182D01*
X833497Y758669D01*
Y761243D01*
X832830Y763730D01*
X831543Y765960D01*
X829723Y767780D01*
X827493Y769068D01*
X825006Y769734D01*
X822431D01*
X819945Y769068D01*
X817715Y767780D01*
X815894Y765960D01*
X814607Y763730D01*
X813941Y761243D01*
Y758669D01*
X814607Y756182D01*
X815894Y753952D01*
X817715Y752132D01*
X819945Y750844D01*
X820611Y750666D01*
Y747256D01*
X820848Y746067D01*
X821521Y745059D01*
X892641Y673939D01*
X893650Y673265D01*
X894839Y673028D01*
X1110293D01*
X1110383Y672894D01*
X1109704Y671624D01*
X1084287D01*
X1083097Y671387D01*
X1082089Y670713D01*
X1080601Y669225D01*
X1079928Y668217D01*
X1079691Y667028D01*
Y518656D01*
X1079928Y517467D01*
X1080601Y516459D01*
X1106080Y490979D01*
Y437163D01*
X1104810Y436823D01*
X1104543Y437287D01*
X1103029Y438800D01*
X1101176Y439870D01*
X1099109Y440424D01*
X1096969D01*
X1094902Y439870D01*
X1093048Y438800D01*
X1091535Y437287D01*
X1090465Y435433D01*
X1089911Y433366D01*
Y431226D01*
X1090465Y429159D01*
X1090480Y429132D01*
X1019641Y358293D01*
X1018968Y357285D01*
X1018731Y356096D01*
Y250454D01*
X1012811D01*
Y247829D01*
X975157D01*
X975157Y247829D01*
X973473Y247493D01*
X972044Y246539D01*
X972044Y246539D01*
X970505Y244999D01*
X969195Y245756D01*
X966708Y246422D01*
X964133D01*
X961646Y245756D01*
X959417Y244468D01*
X957596Y242648D01*
X956309Y240418D01*
X955642Y237931D01*
Y235357D01*
X956309Y232870D01*
X957596Y230640D01*
X959417Y228820D01*
X961646Y227532D01*
X964133Y226866D01*
X966708D01*
X969195Y227532D01*
X971424Y228820D01*
X973245Y230640D01*
X974532Y232870D01*
X975199Y235357D01*
Y237241D01*
X976981Y239023D01*
X990742D01*
X991082Y237753D01*
X990432Y237378D01*
X989093Y236038D01*
X985812D01*
X984128Y235703D01*
X982699Y234749D01*
X968972Y221022D01*
X955642D01*
Y203507D01*
X954469Y203022D01*
X949320Y208171D01*
X949799Y209957D01*
Y212531D01*
X949132Y215018D01*
X947845Y217248D01*
X946024Y219068D01*
X943795Y220356D01*
X941308Y221022D01*
X938733D01*
X936246Y220356D01*
X934017Y219068D01*
X932196Y217248D01*
X931272Y215647D01*
X879217D01*
Y218554D01*
X859661D01*
Y213179D01*
X818320D01*
X801331Y230168D01*
X799902Y231122D01*
X798218Y231457D01*
X760717D01*
X759033Y231122D01*
X757604Y230168D01*
X745512Y218075D01*
X743726Y218554D01*
X741152D01*
X738665Y217888D01*
X736435Y216600D01*
X734614Y214780D01*
X733327Y212550D01*
X732661Y210063D01*
Y207489D01*
X733327Y205002D01*
X734614Y202772D01*
X736435Y200952D01*
X738665Y199664D01*
X738867Y199610D01*
Y168521D01*
X737071D01*
Y150465D01*
X751127D01*
Y168521D01*
X747672D01*
Y200506D01*
X748443Y200952D01*
X750263Y202772D01*
X751550Y205002D01*
X752217Y207489D01*
Y210063D01*
X751738Y211849D01*
X762541Y222652D01*
X796394D01*
X798557Y220489D01*
X798071Y219316D01*
X794509D01*
Y210046D01*
X803779D01*
Y213608D01*
X804952Y214094D01*
X813383Y205663D01*
X814811Y204708D01*
X816496Y204373D01*
X859661D01*
Y198998D01*
X879217D01*
Y206841D01*
X931272D01*
X932196Y205240D01*
X934017Y203420D01*
X936246Y202132D01*
X938733Y201466D01*
X941308D01*
X943094Y201945D01*
X990175Y154863D01*
X991604Y153909D01*
X993289Y153573D01*
X1012780D01*
Y151023D01*
X1012018D01*
Y143230D01*
X1021839D01*
Y141960D01*
D01*
Y143230D01*
X1031660D01*
Y151023D01*
X1030898D01*
Y153574D01*
X1052749D01*
Y151024D01*
X1051987D01*
Y143230D01*
X1061808D01*
X1071629D01*
Y151024D01*
X1070867D01*
Y153574D01*
X1092021D01*
Y151024D01*
X1091259D01*
Y143230D01*
X1101080D01*
X1110901D01*
Y151024D01*
X1110139D01*
Y166277D01*
X1092021D01*
Y162379D01*
X1070867D01*
Y166277D01*
X1052749D01*
Y162379D01*
X1030898D01*
Y166277D01*
X1026241D01*
Y217898D01*
X1030867D01*
Y220523D01*
X1038211D01*
Y217898D01*
X1056267D01*
Y221145D01*
X1066548D01*
Y217867D01*
X1072071D01*
Y210264D01*
X1072308Y209075D01*
X1072981Y208066D01*
X1074469Y206579D01*
X1075477Y205905D01*
X1076667Y205668D01*
X1136139D01*
X1137328Y205905D01*
X1138336Y206579D01*
X1155354Y223596D01*
X1156028Y224605D01*
X1156264Y225794D01*
Y504769D01*
X1156028Y505958D01*
X1155354Y506966D01*
X1152455Y509866D01*
Y514255D01*
X1153725Y514845D01*
X1155313Y513928D01*
X1157574Y513322D01*
X1158974D01*
X1159500Y512052D01*
X1159341Y511894D01*
X1158668Y510885D01*
X1158431Y509696D01*
Y361176D01*
X1158668Y359987D01*
X1159341Y358979D01*
X1166680Y351640D01*
X1166665Y351613D01*
X1166111Y349546D01*
Y347406D01*
X1166665Y345339D01*
X1167735Y343485D01*
X1169248Y341972D01*
X1171102Y340902D01*
X1173169Y340348D01*
X1175309D01*
X1177376Y340902D01*
X1179230Y341972D01*
X1180743Y343485D01*
X1181813Y345339D01*
X1182367Y347406D01*
Y349546D01*
X1181813Y351613D01*
X1180743Y353467D01*
X1179230Y354980D01*
X1177376Y356050D01*
X1175309Y356604D01*
X1173169D01*
X1171102Y356050D01*
X1171075Y356035D01*
X1164647Y362463D01*
Y508409D01*
X1169958Y513720D01*
X1171131Y513234D01*
Y423470D01*
X1171368Y422281D01*
X1172041Y421272D01*
X1183831Y409482D01*
Y240280D01*
X1147879Y204328D01*
X1052827D01*
Y204766D01*
X1052273Y206833D01*
X1051203Y208687D01*
X1049689Y210200D01*
X1047836Y211270D01*
X1045769Y211824D01*
X1043629D01*
X1041562Y211270D01*
X1039708Y210200D01*
X1038195Y208687D01*
X1037125Y206833D01*
X1036571Y204766D01*
Y202626D01*
X1037125Y200559D01*
X1038195Y198705D01*
X1039708Y197192D01*
X1041562Y196122D01*
X1043629Y195568D01*
X1045769D01*
X1047836Y196122D01*
X1049689Y197192D01*
X1050719Y198221D01*
X1051267Y198112D01*
X1128752D01*
X1129092Y196842D01*
X1128648Y196586D01*
X1126993Y194930D01*
X1125823Y192903D01*
X1125244Y190742D01*
X1142970D01*
X1142391Y192903D01*
X1141221Y194930D01*
X1139565Y196586D01*
X1139121Y196842D01*
X1139462Y198112D01*
X1149166D01*
X1150355Y198349D01*
X1151364Y199022D01*
X1189136Y236795D01*
X1189810Y237803D01*
X1190046Y238992D01*
Y410770D01*
X1189810Y411959D01*
X1189136Y412967D01*
X1177346Y424757D01*
Y514038D01*
X1184490Y521181D01*
X1184512Y521215D01*
X1189444Y526147D01*
X1190116Y527152D01*
X1190352Y528339D01*
X1190116Y529525D01*
X1189444Y530530D01*
X1188438Y531202D01*
X1187252Y531438D01*
X1186816Y531874D01*
X1186581Y533060D01*
X1185909Y534066D01*
X1185387Y534414D01*
X1185077Y535900D01*
X1188628Y539450D01*
X1189727Y538816D01*
X1191794Y538262D01*
X1193934D01*
X1196002Y538816D01*
X1197855Y539886D01*
X1199368Y541399D01*
X1200438Y543253D01*
X1200992Y545320D01*
Y547460D01*
X1200438Y549527D01*
X1199368Y551381D01*
X1197855Y552894D01*
X1196002Y553964D01*
X1193934Y554518D01*
X1191794D01*
X1190736Y554234D01*
X1190078Y555373D01*
X1195974Y561268D01*
X1199677D01*
X1199685Y561239D01*
X1200755Y559385D01*
X1202268Y557872D01*
X1204121Y556802D01*
X1206189Y556248D01*
X1208329D01*
X1210396Y556802D01*
X1212250Y557872D01*
X1213763Y559385D01*
X1214833Y561239D01*
X1215387Y563306D01*
Y565446D01*
X1214833Y567513D01*
X1213763Y569367D01*
X1212250Y570880D01*
X1210396Y571950D01*
X1208964Y572334D01*
X1209131Y573604D01*
X1228554D01*
X1229743Y573840D01*
X1230751Y574514D01*
X1231649Y575411D01*
X1233132Y575098D01*
X1233484Y574571D01*
X1234490Y573899D01*
X1235676Y573663D01*
X1236862Y573899D01*
X1237868Y574571D01*
X1247787Y584490D01*
X1248459Y585495D01*
X1248695Y586682D01*
X1248459Y587868D01*
X1247787Y588874D01*
X1246782Y589546D01*
X1245595Y589781D01*
X1245160Y590217D01*
X1244924Y591403D01*
X1244252Y592409D01*
X1243724Y592762D01*
X1243411Y594245D01*
X1247773Y598606D01*
X1253752D01*
X1253839Y598283D01*
X1255009Y596255D01*
X1256664Y594600D01*
X1258691Y593430D01*
X1260853Y592851D01*
Y601714D01*
Y610577D01*
X1258691Y609998D01*
X1256664Y608828D01*
X1255009Y607173D01*
X1253839Y605145D01*
X1253752Y604822D01*
X1248577D01*
X1248091Y605995D01*
X1308465Y666370D01*
X1309139Y667378D01*
X1309375Y668567D01*
Y754927D01*
X1309139Y756116D01*
X1308465Y757125D01*
X1303247Y762343D01*
Y777204D01*
D02*
G37*
G36*
X1263393Y610577D02*
Y602984D01*
X1270986D01*
X1270407Y605145D01*
X1269237Y607173D01*
X1267581Y608828D01*
X1265554Y609998D01*
X1263393Y610577D01*
D02*
G37*
G36*
X680226Y731634D02*
X677652D01*
X675165Y730968D01*
X672935Y729680D01*
X671114Y727860D01*
X669827Y725630D01*
X669161Y723143D01*
Y720569D01*
X669827Y718082D01*
X671114Y715852D01*
X672935Y714032D01*
X675165Y712744D01*
X677652Y712078D01*
X680226D01*
X682713Y712744D01*
X684943Y714032D01*
X686763Y715852D01*
X686969Y716208D01*
X748772D01*
X857081Y607898D01*
X858090Y607225D01*
X859279Y606988D01*
X1054897D01*
X1054905Y606959D01*
X1055975Y605105D01*
X1057488Y603592D01*
X1059342Y602522D01*
X1061409Y601968D01*
X1063549D01*
X1065616Y602522D01*
X1067469Y603592D01*
X1068983Y605105D01*
X1070053Y606959D01*
X1070607Y609026D01*
Y611166D01*
X1070053Y613233D01*
X1068983Y615087D01*
X1067469Y616600D01*
X1065616Y617670D01*
X1063549Y618224D01*
X1061409D01*
X1059342Y617670D01*
X1057488Y616600D01*
X1055975Y615087D01*
X1054905Y613233D01*
X1054897Y613204D01*
X860566D01*
X752256Y721513D01*
X751248Y722187D01*
X750059Y722424D01*
X688717D01*
Y723143D01*
X688050Y725630D01*
X686763Y727860D01*
X684943Y729680D01*
X682713Y730968D01*
X680226Y731634D01*
D02*
G37*
G36*
X738717Y605054D02*
X726161D01*
Y603679D01*
X701139D01*
X699454Y603343D01*
X698026Y602389D01*
X698026Y602389D01*
X688526Y592889D01*
X687571Y591461D01*
X687236Y589776D01*
Y571219D01*
X686648Y570880D01*
X685135Y569367D01*
X684065Y567513D01*
X683511Y565446D01*
Y563306D01*
X684065Y561239D01*
X685135Y559385D01*
X686648Y557872D01*
X688502Y556802D01*
X690569Y556248D01*
X692709D01*
X694776Y556802D01*
X696629Y557872D01*
X698143Y559385D01*
X699213Y561239D01*
X699767Y563306D01*
Y565446D01*
X699213Y567513D01*
X698143Y569367D01*
X696629Y570880D01*
X696041Y571219D01*
Y587952D01*
X702962Y594873D01*
X726161D01*
Y593498D01*
X738717D01*
Y605054D01*
D02*
G37*
G36*
X1270986Y600444D02*
X1263393D01*
Y592851D01*
X1265554Y593430D01*
X1267581Y594600D01*
X1269237Y596255D01*
X1270407Y598283D01*
X1270986Y600444D01*
D02*
G37*
G36*
X759479Y596316D02*
X753709D01*
Y591046D01*
X759479D01*
Y596316D01*
D02*
G37*
G36*
X751169D02*
X745399D01*
Y591046D01*
X751169D01*
Y596316D01*
D02*
G37*
G36*
X680226Y706234D02*
X677652D01*
X675165Y705568D01*
X672935Y704280D01*
X671114Y702460D01*
X669827Y700230D01*
X669161Y697743D01*
Y695169D01*
X669827Y692682D01*
X671114Y690452D01*
X672935Y688632D01*
X675165Y687344D01*
X677652Y686678D01*
X680226D01*
X682713Y687344D01*
X684943Y688632D01*
X686763Y690452D01*
X688050Y692682D01*
X688229Y693348D01*
X736518D01*
X834668Y595199D01*
X835676Y594525D01*
X836865Y594288D01*
X887257D01*
X887265Y594259D01*
X888335Y592405D01*
X889848Y590892D01*
X891702Y589822D01*
X893769Y589268D01*
X895909D01*
X897976Y589822D01*
X899829Y590892D01*
X901343Y592405D01*
X902413Y594259D01*
X902967Y596326D01*
Y598466D01*
X902413Y600533D01*
X901343Y602387D01*
X899829Y603900D01*
X897976Y604970D01*
X895909Y605524D01*
X893769D01*
X891702Y604970D01*
X889848Y603900D01*
X888335Y602387D01*
X887265Y600533D01*
X887257Y600504D01*
X838152D01*
X740003Y698653D01*
X738995Y699327D01*
X737805Y699564D01*
X688229D01*
X688050Y700230D01*
X686763Y702460D01*
X684943Y704280D01*
X682713Y705568D01*
X680226Y706234D01*
D02*
G37*
G36*
X759479Y588506D02*
X753709D01*
Y583236D01*
X759479D01*
Y588506D01*
D02*
G37*
G36*
X751169D02*
X745399D01*
Y583236D01*
X751169D01*
Y588506D01*
D02*
G37*
G36*
X337855Y652854D02*
X334622D01*
X331500Y652017D01*
X328700Y650401D01*
X326414Y648115D01*
X324798Y645315D01*
X323961Y642192D01*
Y638960D01*
X324798Y635837D01*
X326414Y633037D01*
X328700Y630751D01*
X331500Y629135D01*
X334622Y628298D01*
X337855D01*
X340978Y629135D01*
X341280Y629309D01*
X374616Y595973D01*
X376044Y595019D01*
X377729Y594683D01*
X378961D01*
Y590748D01*
X388491D01*
X398038Y581201D01*
X397643Y579729D01*
Y577588D01*
X398197Y575521D01*
X399267Y573668D01*
X400781Y572154D01*
X402634Y571084D01*
X404701Y570531D01*
X406841D01*
X408909Y571084D01*
X410762Y572154D01*
X412275Y573668D01*
X413345Y575521D01*
X413899Y577588D01*
Y579729D01*
X413345Y581796D01*
X412275Y583649D01*
X410762Y585163D01*
X408909Y586232D01*
X406841Y586786D01*
X405791D01*
X404480Y587662D01*
X403917Y587774D01*
X394717Y596974D01*
Y603404D01*
X385254D01*
X384829Y603489D01*
X379552D01*
X347506Y635535D01*
X347680Y635837D01*
X348517Y638960D01*
Y642192D01*
X347680Y645315D01*
X346064Y648115D01*
X343778Y650401D01*
X340978Y652017D01*
X337855Y652854D01*
D02*
G37*
G36*
X1014473Y572985D02*
Y565392D01*
X1022066D01*
X1021487Y567553D01*
X1020317Y569580D01*
X1018661Y571236D01*
X1016634Y572406D01*
X1014473Y572985D01*
D02*
G37*
G36*
X1011933D02*
X1009771Y572406D01*
X1007744Y571236D01*
X1006089Y569580D01*
X1004919Y567553D01*
X1004340Y565392D01*
X1011933D01*
Y572985D01*
D02*
G37*
G36*
X829869Y562344D02*
X827729D01*
X825661Y561790D01*
X823808Y560720D01*
X822295Y559207D01*
X821225Y557353D01*
X821217Y557324D01*
X803670D01*
Y562282D01*
X789614D01*
Y544226D01*
X803670D01*
Y551108D01*
X821217D01*
X821225Y551079D01*
X822295Y549225D01*
X823808Y547712D01*
X825661Y546642D01*
X827729Y546088D01*
X829869D01*
X831936Y546642D01*
X833790Y547712D01*
X835303Y549225D01*
X836373Y551079D01*
X836927Y553146D01*
Y555286D01*
X836373Y557353D01*
X835303Y559207D01*
X833790Y560720D01*
X831936Y561790D01*
X829869Y562344D01*
D02*
G37*
G36*
X1022066Y562852D02*
X1014473D01*
Y555259D01*
X1016634Y555838D01*
X1018661Y557008D01*
X1020317Y558663D01*
X1021487Y560690D01*
X1022066Y562852D01*
D02*
G37*
G36*
X1011933D02*
X1004340D01*
X1004919Y560690D01*
X1006089Y558663D01*
X1007744Y557008D01*
X1009771Y555838D01*
X1011933Y555259D01*
Y562852D01*
D02*
G37*
G36*
X84455Y577854D02*
X81222D01*
X78100Y577017D01*
X75300Y575401D01*
X73014Y573115D01*
X71398Y570315D01*
X70561Y567192D01*
Y563960D01*
X71398Y560837D01*
X73014Y558037D01*
X75300Y555751D01*
X78100Y554135D01*
X81222Y553298D01*
X84455D01*
X87578Y554135D01*
X90378Y555751D01*
X92664Y558037D01*
X94280Y560837D01*
X95117Y563960D01*
Y567192D01*
X94280Y570315D01*
X92664Y573115D01*
X90378Y575401D01*
X87578Y577017D01*
X84455Y577854D01*
D02*
G37*
G36*
X738717Y586054D02*
X726161D01*
Y580066D01*
X725048Y578953D01*
X724093Y577525D01*
X723758Y575840D01*
Y556230D01*
X724093Y554545D01*
X725048Y553117D01*
X727911Y550254D01*
Y542315D01*
X745967D01*
Y548851D01*
X771114D01*
Y544226D01*
X785170D01*
Y562282D01*
X771114D01*
Y557657D01*
X732960D01*
X732563Y558053D01*
Y574016D01*
X733045Y574498D01*
X738717D01*
Y586054D01*
D02*
G37*
G36*
X630909Y548343D02*
X629720Y548107D01*
X628711Y547433D01*
X628621Y547343D01*
X627948Y546335D01*
X627711Y545145D01*
X627948Y543956D01*
X628621Y542948D01*
X629630Y542274D01*
X630819Y542038D01*
X632008Y542274D01*
X633016Y542948D01*
X633106Y543038D01*
X633780Y544046D01*
X634017Y545235D01*
X633780Y546425D01*
X633106Y547433D01*
X632098Y548107D01*
X630909Y548343D01*
D02*
G37*
G36*
X596449Y549685D02*
X589679D01*
Y533915D01*
X596449D01*
Y549685D01*
D02*
G37*
G36*
X587139D02*
X580369D01*
Y533915D01*
X587139D01*
Y549685D01*
D02*
G37*
G36*
X746729Y538633D02*
X738209D01*
Y532113D01*
X746729D01*
Y538633D01*
D02*
G37*
G36*
X735669D02*
X727149D01*
Y532113D01*
X735669D01*
Y538633D01*
D02*
G37*
G36*
X746729Y529573D02*
X738209D01*
Y523053D01*
X746729D01*
Y529573D01*
D02*
G37*
G36*
X735669D02*
X727149D01*
Y523053D01*
X735669D01*
Y529573D01*
D02*
G37*
G36*
X337855Y577854D02*
X334622D01*
X331500Y577017D01*
X328700Y575401D01*
X326414Y573115D01*
X324798Y570315D01*
X323961Y567192D01*
Y563960D01*
X324798Y560837D01*
X326414Y558037D01*
X328700Y555751D01*
X331500Y554135D01*
X334622Y553298D01*
X337855D01*
X340978Y554135D01*
X343778Y555751D01*
X346064Y558037D01*
X347528Y560573D01*
X378961D01*
Y558048D01*
X382436D01*
Y522635D01*
X379886D01*
Y523397D01*
X372093D01*
Y513576D01*
Y503755D01*
X379886D01*
Y504517D01*
X382436D01*
Y445857D01*
X381084Y445076D01*
X379338Y443331D01*
X378105Y441194D01*
X377466Y438810D01*
Y436342D01*
X378105Y433958D01*
X379338Y431821D01*
X381084Y430076D01*
X383221Y428842D01*
X385605Y428203D01*
X388073D01*
X390457Y428842D01*
X392594Y430076D01*
X394339Y431821D01*
X395573Y433958D01*
X396212Y436342D01*
Y438810D01*
X395573Y441194D01*
X394339Y443331D01*
X392594Y445076D01*
X391241Y445857D01*
Y504517D01*
X395140D01*
Y522635D01*
X391241D01*
Y558048D01*
X394717D01*
Y570704D01*
X378961D01*
Y569379D01*
X347931D01*
X347680Y570315D01*
X346064Y573115D01*
X343778Y575401D01*
X340978Y577017D01*
X337855Y577854D01*
D02*
G37*
G36*
X596449Y531375D02*
X589679D01*
Y515605D01*
X596449D01*
Y531375D01*
D02*
G37*
G36*
X587139D02*
X580369D01*
Y515605D01*
X587139D01*
Y531375D01*
D02*
G37*
G36*
X784910Y523397D02*
X777117D01*
Y514846D01*
X784910D01*
Y523397D01*
D02*
G37*
G36*
X369553D02*
X361760D01*
Y514846D01*
X369553D01*
Y523397D01*
D02*
G37*
G36*
X784910Y512306D02*
X777117D01*
Y503755D01*
X784910D01*
Y512306D01*
D02*
G37*
G36*
X774577Y523397D02*
X766783D01*
Y522635D01*
X751530D01*
Y510743D01*
X739326Y498539D01*
X738371Y497111D01*
X738036Y495426D01*
Y469619D01*
X737448Y469280D01*
X735935Y467767D01*
X734865Y465913D01*
X734311Y463846D01*
Y461706D01*
X734865Y459639D01*
X735935Y457785D01*
X737448Y456272D01*
X739302Y455202D01*
X741369Y454648D01*
X743509D01*
X745576Y455202D01*
X747430Y456272D01*
X748943Y457785D01*
X750013Y459639D01*
X750567Y461706D01*
Y463846D01*
X750013Y465913D01*
X748943Y467767D01*
X747430Y469280D01*
X746841Y469619D01*
Y493602D01*
X757756Y504517D01*
X766783D01*
Y503755D01*
X774577D01*
Y513576D01*
Y523397D01*
D02*
G37*
G36*
X369553Y512306D02*
X361760D01*
Y503755D01*
X369553D01*
Y512306D01*
D02*
G37*
G36*
X158239Y528179D02*
X132839D01*
X129059Y527681D01*
X125537Y526222D01*
X122513Y523902D01*
X120192Y520877D01*
X118733Y517355D01*
X118236Y513576D01*
X118733Y509796D01*
X120192Y506274D01*
X122513Y503250D01*
X122561Y503213D01*
Y496678D01*
X143117D01*
Y498973D01*
X158239D01*
X162018Y499471D01*
X165540Y500929D01*
X168565Y503250D01*
X170885Y506274D01*
X172344Y509796D01*
X172842Y513576D01*
X172344Y517355D01*
X170885Y520877D01*
X168565Y523902D01*
X165540Y526222D01*
X162018Y527681D01*
X158239Y528179D01*
D02*
G37*
G36*
X239610Y548235D02*
X235831Y547737D01*
X232309Y546278D01*
X229285Y543958D01*
X205408Y520081D01*
X205259Y520061D01*
X201737Y518602D01*
X198713Y516282D01*
X196392Y513257D01*
X194933Y509735D01*
X194436Y505956D01*
X194933Y502176D01*
X196392Y498655D01*
X198713Y495630D01*
X201737Y493309D01*
X205259Y491851D01*
X209039Y491353D01*
X211935D01*
X215714Y491851D01*
X219236Y493309D01*
X222260Y495630D01*
X249936Y523306D01*
X252257Y526330D01*
X253716Y529852D01*
X254213Y533632D01*
X253716Y537411D01*
X252257Y540933D01*
X249936Y543958D01*
X246912Y546278D01*
X243390Y547737D01*
X239610Y548235D01*
D02*
G37*
G36*
X1084123Y503670D02*
X1081983D01*
X1079915Y503116D01*
X1078062Y502046D01*
X1076549Y500533D01*
X1075479Y498679D01*
X1074925Y496612D01*
Y495202D01*
X1074433Y494873D01*
X920581Y341021D01*
X919908Y340013D01*
X919671Y338824D01*
Y288803D01*
X873811Y242943D01*
X873213Y243288D01*
X870726Y243954D01*
X868151D01*
X865665Y243288D01*
X863435Y242000D01*
X861614Y240180D01*
X860327Y237950D01*
X859661Y235463D01*
Y232889D01*
X860327Y230402D01*
X861614Y228172D01*
X863435Y226352D01*
X865665Y225064D01*
X868151Y224398D01*
X870726D01*
X873213Y225064D01*
X875443Y226352D01*
X877263Y228172D01*
X878550Y230402D01*
X879217Y232889D01*
Y235463D01*
X878550Y237950D01*
X878205Y238548D01*
X924976Y285318D01*
X925650Y286327D01*
X925887Y287516D01*
Y337537D01*
X1066443Y478093D01*
X1067582Y477436D01*
X1067343Y476546D01*
Y474406D01*
X1067897Y472339D01*
X1067912Y472312D01*
X1055201Y459601D01*
X1054528Y458593D01*
X1054291Y457403D01*
Y447498D01*
X1054261Y447490D01*
X1052408Y446420D01*
X1050895Y444907D01*
X1049825Y443053D01*
X1049271Y440986D01*
Y438846D01*
X1049825Y436779D01*
X1050895Y434925D01*
X1052408Y433412D01*
X1054261Y432342D01*
X1056329Y431788D01*
X1058469D01*
X1060536Y432342D01*
X1062390Y433412D01*
X1063903Y434925D01*
X1064973Y436779D01*
X1065527Y438846D01*
Y440986D01*
X1064973Y443053D01*
X1063903Y444907D01*
X1062390Y446420D01*
X1060536Y447490D01*
X1060507Y447498D01*
Y456116D01*
X1072307Y467917D01*
X1072334Y467902D01*
X1074401Y467348D01*
X1076541D01*
X1078608Y467902D01*
X1080462Y468972D01*
X1081975Y470485D01*
X1083045Y472339D01*
X1083599Y474406D01*
Y476546D01*
X1083045Y478613D01*
X1081975Y480467D01*
X1080462Y481980D01*
X1078608Y483050D01*
X1076541Y483604D01*
X1074401D01*
X1073511Y483366D01*
X1072854Y484504D01*
X1077725Y489375D01*
X1078062Y489038D01*
X1079915Y487968D01*
X1081983Y487414D01*
X1084123D01*
X1086190Y487968D01*
X1088044Y489038D01*
X1089557Y490551D01*
X1090627Y492405D01*
X1091181Y494472D01*
Y496612D01*
X1090627Y498679D01*
X1089557Y500533D01*
X1088044Y502046D01*
X1086190Y503116D01*
X1084123Y503670D01*
D02*
G37*
G36*
X510279Y468366D02*
X501728D01*
Y460573D01*
X510279D01*
Y468366D01*
D02*
G37*
G36*
X499188D02*
X490637D01*
Y460573D01*
X499188D01*
Y468366D01*
D02*
G37*
G36*
X666801Y473952D02*
X664661D01*
X662594Y473398D01*
X660740Y472328D01*
X659227Y470815D01*
X658887Y470227D01*
X651137D01*
X649452Y469891D01*
X648024Y468937D01*
X625491Y446404D01*
X617661D01*
Y428348D01*
X631717D01*
Y440178D01*
X652960Y461421D01*
X658887D01*
X659227Y460833D01*
X660740Y459320D01*
X662594Y458250D01*
X664661Y457696D01*
X666801D01*
X668868Y458250D01*
X670722Y459320D01*
X672235Y460833D01*
X673305Y462687D01*
X673859Y464754D01*
Y466894D01*
X673305Y468961D01*
X672235Y470815D01*
X670722Y472328D01*
X668868Y473398D01*
X666801Y473952D01*
D02*
G37*
G36*
X676029Y454416D02*
X667509D01*
Y447896D01*
X676029D01*
Y454416D01*
D02*
G37*
G36*
X664969D02*
X656449D01*
Y447896D01*
X664969D01*
Y454416D01*
D02*
G37*
G36*
X676029Y445356D02*
X667509D01*
Y438836D01*
X676029D01*
Y445356D01*
D02*
G37*
G36*
X664969D02*
X656449D01*
Y438836D01*
X664969D01*
Y445356D01*
D02*
G37*
G36*
X270879Y428366D02*
X261109D01*
Y419596D01*
X270879D01*
Y428366D01*
D02*
G37*
G36*
X143879D02*
X134109D01*
Y419596D01*
X143879D01*
Y428366D01*
D02*
G37*
G36*
X131569D02*
X121799D01*
Y419596D01*
X131569D01*
Y428366D01*
D02*
G37*
G36*
X258569D02*
X248799D01*
Y419596D01*
X258569D01*
Y428366D01*
D02*
G37*
G36*
X388173Y422711D02*
X388109D01*
Y413846D01*
X396974D01*
Y413910D01*
X396283Y416488D01*
X394949Y418799D01*
X393062Y420686D01*
X390751Y422020D01*
X388173Y422711D01*
D02*
G37*
G36*
X385569D02*
X385504D01*
X382927Y422020D01*
X380616Y420686D01*
X378729Y418799D01*
X377394Y416488D01*
X376704Y413910D01*
Y413846D01*
X385569D01*
Y422711D01*
D02*
G37*
G36*
X270879Y417056D02*
X261109D01*
Y408286D01*
X270879D01*
Y417056D01*
D02*
G37*
G36*
X258569D02*
X248799D01*
Y408286D01*
X258569D01*
Y417056D01*
D02*
G37*
G36*
X143879D02*
X134109D01*
Y408286D01*
X143879D01*
Y417056D01*
D02*
G37*
G36*
X131569D02*
X121799D01*
Y408286D01*
X131569D01*
Y417056D01*
D02*
G37*
G36*
X396974Y411306D02*
X388109D01*
Y402441D01*
X388173D01*
X390751Y403132D01*
X393062Y404466D01*
X394949Y406353D01*
X396283Y408664D01*
X396974Y411242D01*
Y411306D01*
D02*
G37*
G36*
X385569D02*
X376704D01*
Y411242D01*
X377394Y408664D01*
X378729Y406353D01*
X380616Y404466D01*
X382927Y403132D01*
X385504Y402441D01*
X385569D01*
Y411306D01*
D02*
G37*
G36*
X209039Y432929D02*
X189989D01*
X186209Y432431D01*
X182687Y430972D01*
X179663Y428652D01*
X173313Y422302D01*
X170992Y419277D01*
X169533Y415755D01*
X169036Y411976D01*
X169533Y408196D01*
X170992Y404674D01*
X173313Y401650D01*
X176337Y399329D01*
X179859Y397871D01*
X183639Y397373D01*
X187418Y397871D01*
X190940Y399329D01*
X193965Y401650D01*
X196038Y403723D01*
X209039D01*
X212818Y404221D01*
X216340Y405679D01*
X219365Y408000D01*
X221685Y411025D01*
X223144Y414546D01*
X223642Y418326D01*
X223144Y422105D01*
X221685Y425627D01*
X219365Y428652D01*
X216340Y430972D01*
X212818Y432431D01*
X209039Y432929D01*
D02*
G37*
G36*
X657910Y396397D02*
X650117D01*
Y387846D01*
X657910D01*
Y396397D01*
D02*
G37*
G36*
Y385306D02*
X650117D01*
Y376755D01*
X657910D01*
Y385306D01*
D02*
G37*
G36*
X573119Y376447D02*
X572715Y376367D01*
X571296Y375419D01*
X569720Y375346D01*
X569265Y375649D01*
X567889Y375923D01*
X566512Y375649D01*
X565424Y374922D01*
X565057Y374762D01*
X564221D01*
X563853Y374922D01*
X562765Y375649D01*
X561389Y375923D01*
X560012Y375649D01*
X558845Y374869D01*
X558774Y374762D01*
X557504D01*
X557432Y374869D01*
X556265Y375649D01*
X554889Y375923D01*
X553512Y375649D01*
X552345Y374869D01*
X551566Y373703D01*
X551292Y372326D01*
Y367652D01*
X550771Y366872D01*
X550455Y365286D01*
Y321654D01*
X544628D01*
Y316319D01*
X534987D01*
X533303Y315983D01*
X531874Y315029D01*
X524292Y307446D01*
X523337Y306018D01*
X523002Y304333D01*
Y300125D01*
X523337Y298440D01*
X524292Y297012D01*
X558055Y263249D01*
X559483Y262294D01*
X561168Y261959D01*
X572888D01*
X594534Y240313D01*
X595963Y239359D01*
X597648Y239023D01*
X606411D01*
Y236398D01*
X624467D01*
Y250454D01*
X606411D01*
Y247829D01*
X599471D01*
X577825Y269475D01*
X576396Y270429D01*
X574711Y270765D01*
X562991D01*
X545831Y287925D01*
X546317Y289098D01*
X562684D01*
Y290571D01*
X576157D01*
Y284762D01*
X584038D01*
Y280177D01*
X584374Y278492D01*
X585328Y277064D01*
X597334Y265058D01*
X598762Y264103D01*
X600447Y263768D01*
X604631D01*
X604704Y263641D01*
X606217Y262128D01*
X608071Y261058D01*
X610138Y260504D01*
X612278D01*
X614345Y261058D01*
X616199Y262128D01*
X617712Y263641D01*
X618782Y265495D01*
X619336Y267562D01*
Y269702D01*
X618782Y271769D01*
X617712Y273623D01*
X616199Y275136D01*
X614345Y276206D01*
X612278Y276760D01*
X610138D01*
X608071Y276206D01*
X606217Y275136D01*
X604704Y273623D01*
X604098Y272574D01*
X602270D01*
X592844Y282000D01*
Y284000D01*
X599203D01*
Y293821D01*
Y303642D01*
X591410D01*
Y302880D01*
X576157D01*
Y299376D01*
X562684D01*
Y303154D01*
X544628D01*
Y290787D01*
X543455Y290301D01*
X532309Y301447D01*
Y303011D01*
X536811Y307513D01*
X550946D01*
X551371Y307598D01*
X562684D01*
Y309316D01*
X563954Y309842D01*
X566534Y307263D01*
X567962Y306308D01*
X569647Y305973D01*
X607011D01*
X608169Y304815D01*
X607683Y303642D01*
X601743D01*
Y295091D01*
X609537D01*
Y301789D01*
X610710Y302275D01*
X621872Y291113D01*
X623300Y290159D01*
X624985Y289823D01*
X631811D01*
Y287198D01*
X643123D01*
X643549Y287113D01*
X648975D01*
X682611Y253478D01*
Y245648D01*
X700667D01*
Y259704D01*
X688837D01*
X653912Y294629D01*
X652484Y295583D01*
X650799Y295919D01*
X649867D01*
Y301254D01*
X631811D01*
Y298629D01*
X626808D01*
X611948Y313489D01*
X610520Y314443D01*
X608835Y314778D01*
X571470D01*
X571073Y315175D01*
Y343152D01*
X572343Y343678D01*
X583359Y332663D01*
X584787Y331708D01*
X586472Y331373D01*
X599161D01*
Y326748D01*
X613217D01*
Y344804D01*
X610591D01*
Y348704D01*
X618661Y356773D01*
X649930D01*
Y352117D01*
X665183D01*
Y351355D01*
X672977D01*
Y361176D01*
Y370997D01*
X665183D01*
Y370235D01*
X649930D01*
Y365578D01*
X616837D01*
X615152Y365243D01*
X613724Y364289D01*
X603076Y353641D01*
X602121Y352212D01*
X601786Y350528D01*
Y344804D01*
X599161D01*
Y340178D01*
X588295D01*
X575163Y353311D01*
X575581Y354689D01*
X576063Y354785D01*
X577482Y355733D01*
X578430Y357152D01*
X578763Y358826D01*
Y364306D01*
X574389D01*
Y365576D01*
X573119D01*
Y376447D01*
D02*
G37*
G36*
X575659D02*
Y366846D01*
X578763D01*
Y372326D01*
X578430Y374000D01*
X577482Y375419D01*
X576063Y376367D01*
X575659Y376447D01*
D02*
G37*
G36*
X82039Y432929D02*
X78259Y432431D01*
X74737Y430972D01*
X71713Y428652D01*
X69392Y425627D01*
X67933Y422105D01*
X67436Y418326D01*
Y386576D01*
X67933Y382796D01*
X69392Y379274D01*
X71713Y376250D01*
X73398Y374957D01*
Y369673D01*
X72636D01*
Y361879D01*
X82457D01*
X92277D01*
Y369673D01*
X91516D01*
Y375599D01*
X92365Y376250D01*
X94685Y379274D01*
X95844Y382073D01*
X97317Y382396D01*
X111835Y367878D01*
X114860Y365557D01*
X118382Y364098D01*
X122161Y363601D01*
X378466D01*
X382246Y364098D01*
X385768Y365557D01*
X388792Y367878D01*
X397165Y376250D01*
X399485Y379274D01*
X400944Y382796D01*
X401442Y386576D01*
X400944Y390355D01*
X399485Y393877D01*
X397165Y396902D01*
X394140Y399222D01*
X390618Y400681D01*
X386839Y401179D01*
X383059Y400681D01*
X379537Y399222D01*
X376513Y396902D01*
X372418Y392807D01*
X128210D01*
X92365Y428652D01*
X89340Y430972D01*
X85818Y432431D01*
X82039Y432929D01*
D02*
G37*
G36*
X683310Y370997D02*
X675517D01*
Y362446D01*
X683310D01*
Y370997D01*
D02*
G37*
G36*
X92277Y359339D02*
X83727D01*
Y351546D01*
X92277D01*
Y359339D01*
D02*
G37*
G36*
X81187D02*
X72636D01*
Y351546D01*
X81187D01*
Y359339D01*
D02*
G37*
G36*
X683310Y359906D02*
X675517D01*
Y351355D01*
X683310D01*
Y359906D01*
D02*
G37*
G36*
X895909Y364224D02*
X893769D01*
X891702Y363670D01*
X889848Y362600D01*
X888335Y361087D01*
X887265Y359233D01*
X887257Y359204D01*
X836419D01*
X835229Y358967D01*
X834221Y358293D01*
X831681Y355753D01*
X831008Y354745D01*
X830771Y353556D01*
Y242364D01*
X718527D01*
X717337Y242127D01*
X716329Y241453D01*
X714841Y239965D01*
X714168Y238957D01*
X713931Y237768D01*
Y161084D01*
X657117D01*
Y167004D01*
X643061D01*
Y148948D01*
X657117D01*
Y154868D01*
X715551D01*
X716740Y155105D01*
X717748Y155779D01*
X719236Y157266D01*
X719910Y158275D01*
X720146Y159464D01*
Y236148D01*
X832391D01*
X833580Y236385D01*
X834588Y237059D01*
X836076Y238546D01*
X836750Y239555D01*
X836986Y240744D01*
Y352269D01*
X837706Y352988D01*
X887257D01*
X887265Y352959D01*
X888335Y351105D01*
X889848Y349592D01*
X891702Y348522D01*
X893769Y347968D01*
X895909D01*
X897976Y348522D01*
X899829Y349592D01*
X901343Y351105D01*
X902413Y352959D01*
X902967Y355026D01*
Y357166D01*
X902413Y359233D01*
X901343Y361087D01*
X899829Y362600D01*
X897976Y363670D01*
X895909Y364224D01*
D02*
G37*
G36*
X977189Y483604D02*
X975049D01*
X972981Y483050D01*
X971128Y481980D01*
X969615Y480467D01*
X968545Y478613D01*
X967991Y476546D01*
Y474406D01*
X968545Y472339D01*
X969615Y470485D01*
X971128Y468972D01*
X972981Y467902D01*
X973011Y467894D01*
Y431043D01*
X926572Y384604D01*
X856739D01*
X855549Y384367D01*
X854541Y383693D01*
X840211Y369364D01*
X805939D01*
X804750Y369127D01*
X803741Y368453D01*
X793581Y358293D01*
X792908Y357285D01*
X792671Y356096D01*
Y327545D01*
X791908Y327341D01*
X789621Y326020D01*
X789163Y325562D01*
X787989Y326048D01*
Y368704D01*
X796206Y376920D01*
X841730D01*
X843415Y377255D01*
X844843Y378209D01*
X850469Y383835D01*
X851424Y385264D01*
X851759Y386949D01*
Y390268D01*
X859641D01*
Y408386D01*
X839527D01*
Y437414D01*
X839556Y437422D01*
X841410Y438492D01*
X842923Y440005D01*
X843993Y441859D01*
X844547Y443926D01*
Y446066D01*
X843993Y448133D01*
X842923Y449987D01*
X841410Y451500D01*
X839556Y452570D01*
X837489Y453124D01*
X835349D01*
X833281Y452570D01*
X831428Y451500D01*
X829915Y449987D01*
X828845Y448133D01*
X828291Y446066D01*
Y443926D01*
X828845Y441859D01*
X829915Y440005D01*
X831428Y438492D01*
X833281Y437422D01*
X833311Y437414D01*
Y408386D01*
X827023D01*
Y403729D01*
X807970D01*
Y407205D01*
X795314D01*
Y391449D01*
X807970D01*
Y394924D01*
X827023D01*
Y390268D01*
X842954D01*
Y388772D01*
X839907Y385725D01*
X794382D01*
X792697Y385390D01*
X791269Y384436D01*
X780474Y373640D01*
X779519Y372212D01*
X779184Y370527D01*
Y328024D01*
X773344D01*
Y391449D01*
X775270D01*
Y407205D01*
X762614D01*
Y391449D01*
X764539D01*
Y328024D01*
X760351D01*
Y307968D01*
X779184D01*
Y306499D01*
X779519Y304814D01*
X780474Y303386D01*
X786785Y297075D01*
X786434Y296467D01*
X785751Y293916D01*
Y291276D01*
X786434Y288725D01*
X787754Y286439D01*
X789621Y284571D01*
X791908Y283251D01*
X794459Y282568D01*
X797099D01*
X799649Y283251D01*
X801936Y284571D01*
X803803Y286439D01*
X805123Y288725D01*
X805807Y291276D01*
Y293916D01*
X805123Y296467D01*
X803803Y298753D01*
X801936Y300620D01*
X799649Y301940D01*
X797099Y302624D01*
X794459D01*
X793851Y302461D01*
X787989Y308323D01*
Y309944D01*
X789163Y310430D01*
X789621Y309972D01*
X791908Y308651D01*
X794459Y307968D01*
X797099D01*
X799649Y308651D01*
X801936Y309972D01*
X803803Y311839D01*
X805123Y314125D01*
X805807Y316676D01*
Y319316D01*
X805123Y321867D01*
X803803Y324153D01*
X801936Y326020D01*
X799649Y327341D01*
X798886Y327545D01*
Y354809D01*
X807226Y363148D01*
X841499D01*
X842688Y363385D01*
X843696Y364058D01*
X858026Y378388D01*
X927859D01*
X929048Y378625D01*
X930056Y379299D01*
X978316Y427559D01*
X978990Y428567D01*
X979227Y429756D01*
Y467894D01*
X979256Y467902D01*
X981109Y468972D01*
X982623Y470485D01*
X983693Y472339D01*
X984247Y474406D01*
Y476546D01*
X983693Y478613D01*
X982623Y480467D01*
X981109Y481980D01*
X979256Y483050D01*
X977189Y483604D01*
D02*
G37*
G36*
X565126Y751954D02*
X562551D01*
X560065Y751288D01*
X557835Y750000D01*
X556014Y748180D01*
X554727Y745950D01*
X554061Y743463D01*
Y740889D01*
X554727Y738402D01*
X556014Y736172D01*
X557835Y734352D01*
X559436Y733427D01*
Y717576D01*
X559771Y715891D01*
X560726Y714463D01*
X611036Y664152D01*
Y608276D01*
X611371Y606591D01*
X612326Y605163D01*
X657211Y560278D01*
Y550448D01*
X669041D01*
X672311Y547177D01*
X671825Y546004D01*
X657211D01*
Y538174D01*
X627605Y508569D01*
X626651Y507141D01*
X626316Y505456D01*
Y505279D01*
X598085Y477048D01*
X595687D01*
Y488923D01*
X581131D01*
Y477048D01*
X549108D01*
X547423Y476713D01*
X545995Y475759D01*
X536126Y465889D01*
X535171Y464461D01*
X534836Y462776D01*
Y452607D01*
X506615Y424385D01*
X505441Y424871D01*
Y434986D01*
X509517D01*
Y450240D01*
X510279D01*
Y458033D01*
X500458D01*
X490637D01*
Y450240D01*
X491399D01*
Y434986D01*
X496636D01*
Y419672D01*
X496629Y419668D01*
X495116Y418154D01*
X494046Y416301D01*
X493492Y414234D01*
Y412094D01*
X494046Y410027D01*
X495116Y408173D01*
X496629Y406660D01*
X498483Y405590D01*
X500550Y405036D01*
X502690D01*
X504757Y405590D01*
X504930Y405690D01*
X506157Y404463D01*
X507585Y403508D01*
X509270Y403173D01*
X510571Y403432D01*
X551292D01*
Y400826D01*
X551566Y399449D01*
X552345Y398282D01*
X553512Y397503D01*
X554889Y397229D01*
X556265Y397503D01*
X557432Y398282D01*
X557504Y398389D01*
X558774D01*
X558845Y398282D01*
X560012Y397503D01*
X561389Y397229D01*
X562765Y397503D01*
X563853Y398229D01*
X564221Y398389D01*
X565057D01*
X565424Y398229D01*
X566512Y397503D01*
X567889Y397229D01*
X569265Y397503D01*
X570432Y398282D01*
X570504Y398389D01*
X571774D01*
X571845Y398282D01*
X573012Y397503D01*
X574389Y397229D01*
X575765Y397503D01*
X576932Y398282D01*
X577712Y399449D01*
X577986Y400826D01*
Y403159D01*
X592630D01*
X612326Y383463D01*
X613754Y382509D01*
X615439Y382173D01*
X624135D01*
X624530Y381849D01*
Y377517D01*
X639783D01*
Y376755D01*
X647577D01*
Y386576D01*
Y396397D01*
X639783D01*
Y395635D01*
X636254D01*
Y399793D01*
X636651Y400190D01*
X658617D01*
X675344Y383463D01*
X676773Y382508D01*
X678457Y382173D01*
X678458Y382173D01*
X700761D01*
Y377548D01*
X714817D01*
Y395604D01*
X700761D01*
Y390979D01*
X680281D01*
X663554Y407706D01*
X662125Y408660D01*
X660441Y408995D01*
X634827D01*
X633142Y408660D01*
X631714Y407706D01*
X628738Y404730D01*
X627784Y403302D01*
X627449Y401617D01*
Y395635D01*
X624530D01*
Y393197D01*
X622311Y390979D01*
X617262D01*
X597696Y410545D01*
X596268Y411499D01*
X594583Y411835D01*
X593932Y411705D01*
X577986D01*
Y414326D01*
X577712Y415703D01*
X576932Y416870D01*
X575765Y417649D01*
X574389Y417923D01*
X573463Y417739D01*
X572193Y418513D01*
Y421172D01*
X573676Y422655D01*
X574238D01*
X580445Y416447D01*
X581874Y415493D01*
X583559Y415158D01*
X637993D01*
X639678Y415493D01*
X641106Y416447D01*
X648382Y423723D01*
X657211D01*
Y421098D01*
X675267D01*
Y423723D01*
X682389D01*
X684074Y424058D01*
X685502Y425013D01*
X704002Y443513D01*
X704956Y444941D01*
X705291Y446626D01*
Y479148D01*
X707917D01*
Y497204D01*
X693861D01*
Y479148D01*
X696486D01*
Y448450D01*
X680565Y432528D01*
X675267D01*
Y435154D01*
X657211D01*
Y432528D01*
X646559D01*
X644874Y432193D01*
X643446Y431239D01*
X636170Y423963D01*
X585382D01*
X579174Y430171D01*
X577746Y431125D01*
X576061Y431461D01*
X571853D01*
X570168Y431125D01*
X568740Y430171D01*
X566835Y428267D01*
X565662Y428753D01*
Y432173D01*
X566462Y432973D01*
X599161D01*
Y428348D01*
X613217D01*
Y446404D01*
X606952D01*
X606466Y447577D01*
X642662Y483773D01*
X675361D01*
Y479148D01*
X689417D01*
Y497204D01*
X675361D01*
Y492579D01*
X640839D01*
X639154Y492243D01*
X637726Y491289D01*
X588215Y441778D01*
X564639D01*
X562954Y441443D01*
X561526Y440489D01*
X558276Y437239D01*
X557321Y435811D01*
X556986Y434126D01*
X557116Y433475D01*
Y418492D01*
X555846Y417733D01*
X554889Y417923D01*
X553512Y417649D01*
X552345Y416870D01*
X551566Y415703D01*
X551292Y414326D01*
Y411720D01*
X511352D01*
X509748Y413324D01*
Y414234D01*
X509572Y414890D01*
X542352Y447670D01*
X543306Y449098D01*
X543641Y450783D01*
Y460952D01*
X550932Y468243D01*
X581131D01*
Y456367D01*
X595687D01*
Y468243D01*
X599908D01*
X601593Y468578D01*
X603021Y469532D01*
X633832Y500343D01*
X634786Y501771D01*
X635121Y503456D01*
Y503632D01*
X663437Y531948D01*
X675267D01*
Y542562D01*
X676440Y543048D01*
X721886Y497602D01*
Y395604D01*
X719261D01*
Y377548D01*
X721886D01*
Y356100D01*
X693236Y327449D01*
X692704Y326654D01*
X682611D01*
Y324029D01*
X640662D01*
X631717Y332974D01*
Y344804D01*
X617661D01*
Y326748D01*
X625491D01*
X635726Y316513D01*
X637154Y315558D01*
X638839Y315223D01*
X682611D01*
Y312598D01*
X700667D01*
Y321911D01*
X700751Y322336D01*
Y322512D01*
X729402Y351163D01*
X730356Y352591D01*
X730691Y354276D01*
Y377548D01*
X733317D01*
Y395604D01*
X730691D01*
Y499426D01*
X730356Y501111D01*
X729402Y502539D01*
X675267Y556674D01*
Y564504D01*
X665437D01*
X619841Y610099D01*
Y665976D01*
X619506Y667661D01*
X618552Y669089D01*
X568241Y719400D01*
Y733427D01*
X569843Y734352D01*
X571663Y736172D01*
X572950Y738402D01*
X573617Y740889D01*
Y743463D01*
X572950Y745950D01*
X571663Y748180D01*
X569843Y750000D01*
X567613Y751288D01*
X565126Y751954D01*
D02*
G37*
G36*
X966808Y323384D02*
X966691D01*
Y314114D01*
X975960D01*
Y314232D01*
X975242Y316912D01*
X973855Y319316D01*
X971892Y321278D01*
X969489Y322666D01*
X966808Y323384D01*
D02*
G37*
G36*
X964150D02*
X964033D01*
X961352Y322666D01*
X958949Y321278D01*
X956986Y319316D01*
X955599Y316912D01*
X954881Y314232D01*
Y314114D01*
X964150D01*
Y323384D01*
D02*
G37*
G36*
X401910Y319697D02*
X395117D01*
Y311646D01*
X401910D01*
Y319697D01*
D02*
G37*
G36*
X941308Y322622D02*
X938733D01*
X936246Y321956D01*
X934017Y320668D01*
X932196Y318848D01*
X930909Y316618D01*
X930242Y314131D01*
Y311557D01*
X930909Y309070D01*
X932196Y306840D01*
X934017Y305020D01*
X936246Y303732D01*
X938733Y303066D01*
X941308D01*
X943795Y303732D01*
X946024Y305020D01*
X947845Y306840D01*
X949132Y309070D01*
X949799Y311557D01*
Y314131D01*
X949132Y316618D01*
X947845Y318848D01*
X946024Y320668D01*
X943795Y321956D01*
X941308Y322622D01*
D02*
G37*
G36*
X701429Y308916D02*
X692909D01*
Y302396D01*
X701429D01*
Y308916D01*
D02*
G37*
G36*
X690369D02*
X681849D01*
Y302396D01*
X690369D01*
Y308916D01*
D02*
G37*
G36*
X975960Y311574D02*
X966691D01*
Y302304D01*
X966808D01*
X969489Y303022D01*
X971892Y304410D01*
X973855Y306372D01*
X975242Y308776D01*
X975960Y311456D01*
Y311574D01*
D02*
G37*
G36*
X964150D02*
X954881D01*
Y311456D01*
X955599Y308776D01*
X956986Y306372D01*
X958949Y304410D01*
X961352Y303022D01*
X964033Y302304D01*
X964150D01*
Y311574D01*
D02*
G37*
G36*
X401910Y309106D02*
X395117D01*
Y301055D01*
X401910D01*
Y309106D01*
D02*
G37*
G36*
X183639Y350379D02*
X179859Y349881D01*
X176337Y348422D01*
X173313Y346102D01*
X170992Y343077D01*
X169533Y339556D01*
X169036Y335776D01*
Y259576D01*
X169533Y255796D01*
X170992Y252274D01*
X173313Y249250D01*
X182965Y239598D01*
X185989Y237277D01*
X189511Y235819D01*
X193291Y235321D01*
X314242D01*
X352513Y197050D01*
X355537Y194729D01*
X356811Y194202D01*
Y147098D01*
X416867D01*
Y193240D01*
X418082Y194173D01*
X441830D01*
Y177917D01*
X446179D01*
Y145066D01*
X444997D01*
Y132510D01*
X456553D01*
Y145066D01*
X454984D01*
Y177917D01*
X458948D01*
Y180816D01*
X466318D01*
X468003Y181151D01*
X469431Y182106D01*
X490881Y203556D01*
X492182Y203384D01*
X509007D01*
X511128Y203664D01*
X513106Y204483D01*
X514804Y205786D01*
X519096Y210078D01*
X529239D01*
X531361Y210357D01*
X533338Y211176D01*
X535036Y212479D01*
X535050Y212498D01*
X535517D01*
Y213106D01*
X536339Y214177D01*
X537158Y216154D01*
X537437Y218276D01*
X537158Y220398D01*
X536339Y222375D01*
X535517Y223446D01*
Y224054D01*
X535050D01*
X535036Y224073D01*
X533338Y225376D01*
X531361Y226195D01*
X529239Y226474D01*
X515700D01*
X513578Y226195D01*
X511601Y225376D01*
X509903Y224073D01*
X505611Y219781D01*
X493171D01*
X492739Y221050D01*
X493008Y221257D01*
X495329Y224281D01*
X496787Y227803D01*
X497285Y231582D01*
Y232181D01*
X496787Y235961D01*
X495329Y239483D01*
X493008Y242507D01*
X478129Y257386D01*
X475105Y259707D01*
X471583Y261166D01*
X467803Y261663D01*
X375580D01*
X371801Y261166D01*
X368279Y259707D01*
X365255Y257386D01*
X362934Y254362D01*
X361475Y250840D01*
X360978Y247060D01*
X361475Y243281D01*
X362934Y239759D01*
X365255Y236735D01*
X368279Y234414D01*
X371801Y232955D01*
X375580Y232458D01*
X461754D01*
X470381Y223831D01*
X471946Y221791D01*
X471040Y220885D01*
X470340Y221422D01*
X466818Y222881D01*
X463039Y223379D01*
X412239D01*
X408459Y222881D01*
X404937Y221422D01*
X402795Y219779D01*
X402389D01*
X401440Y219654D01*
X394621D01*
X394140Y220022D01*
X390618Y221481D01*
X386839Y221979D01*
X368887D01*
X346701Y244166D01*
X355044Y252509D01*
X356347Y254207D01*
X357166Y256184D01*
X357445Y258306D01*
Y264075D01*
X358401D01*
Y278091D01*
Y286427D01*
X359575Y286912D01*
X366399Y280088D01*
Y275926D01*
X379055D01*
Y280249D01*
X379827Y281255D01*
X380646Y283232D01*
X380925Y285354D01*
X380646Y287476D01*
X379827Y289453D01*
X379055Y290459D01*
Y291682D01*
X377993D01*
X368671Y301005D01*
X369156Y302178D01*
X372530D01*
Y301817D01*
X385783D01*
Y301055D01*
X392577D01*
Y310376D01*
Y319697D01*
X385783D01*
Y318935D01*
X372530D01*
Y318574D01*
X361439D01*
X359317Y318295D01*
X357340Y317476D01*
X355642Y316173D01*
X352953Y313484D01*
X318221D01*
X318213Y313513D01*
X317143Y315367D01*
X315630Y316880D01*
X313776Y317950D01*
X311709Y318504D01*
X309569D01*
X307502Y317950D01*
X305648Y316880D01*
X304135Y315367D01*
X303065Y313513D01*
X302511Y311446D01*
Y309306D01*
X303065Y307239D01*
X304135Y305385D01*
X305648Y303872D01*
X307502Y302802D01*
X309569Y302248D01*
X311709D01*
X313776Y302802D01*
X315630Y303872D01*
X317143Y305385D01*
X318213Y307239D01*
X318221Y307268D01*
X345078D01*
X345564Y306095D01*
X344079Y304610D01*
X342776Y302912D01*
X341957Y300935D01*
X341678Y298813D01*
Y292693D01*
X341283D01*
Y278091D01*
Y272564D01*
X341049Y270781D01*
Y261702D01*
X335107Y255760D01*
X330617Y260250D01*
X327592Y262570D01*
X324070Y264029D01*
X320291Y264527D01*
X199340D01*
X198242Y265625D01*
Y335776D01*
X197744Y339556D01*
X196285Y343077D01*
X193965Y346102D01*
X190940Y348422D01*
X187418Y349881D01*
X183639Y350379D01*
D02*
G37*
G36*
X701429Y299856D02*
X692909D01*
Y293336D01*
X701429D01*
Y299856D01*
D02*
G37*
G36*
X690369D02*
X681849D01*
Y293336D01*
X690369D01*
Y299856D01*
D02*
G37*
G36*
X870826Y295516D02*
X870709D01*
Y286246D01*
X879979D01*
Y286364D01*
X879260Y289044D01*
X877873Y291448D01*
X875910Y293410D01*
X873507Y294798D01*
X870826Y295516D01*
D02*
G37*
G36*
X868169D02*
X868051D01*
X865370Y294798D01*
X862967Y293410D01*
X861005Y291448D01*
X859617Y289044D01*
X858899Y286364D01*
Y286246D01*
X868169D01*
Y295516D01*
D02*
G37*
G36*
X412517Y292444D02*
X406697D01*
Y285074D01*
X412517D01*
Y292444D01*
D02*
G37*
G36*
X404157D02*
X398337D01*
Y285074D01*
X404157D01*
Y292444D01*
D02*
G37*
G36*
X609537Y292551D02*
X601743D01*
Y284000D01*
X609537D01*
Y292551D01*
D02*
G37*
G36*
X771699Y302624D02*
X769059D01*
X766508Y301940D01*
X764221Y300620D01*
X762354Y298753D01*
X761034Y296467D01*
X760351Y293916D01*
Y291276D01*
X761034Y288725D01*
X762354Y286439D01*
X764221Y284571D01*
X766508Y283251D01*
X769059Y282568D01*
X771699D01*
X774249Y283251D01*
X776536Y284571D01*
X778403Y286439D01*
X779723Y288725D01*
X780407Y291276D01*
Y293916D01*
X779723Y296467D01*
X778403Y298753D01*
X776536Y300620D01*
X774249Y301940D01*
X771699Y302624D01*
D02*
G37*
G36*
X966708Y297222D02*
X964133D01*
X961646Y296556D01*
X959417Y295268D01*
X957596Y293448D01*
X956309Y291218D01*
X955642Y288731D01*
Y286157D01*
X956309Y283670D01*
X957596Y281440D01*
X959417Y279620D01*
X961646Y278332D01*
X964133Y277666D01*
X966708D01*
X969195Y278332D01*
X971424Y279620D01*
X973245Y281440D01*
X974532Y283670D01*
X975199Y286157D01*
Y288731D01*
X974532Y291218D01*
X973245Y293448D01*
X971424Y295268D01*
X969195Y296556D01*
X966708Y297222D01*
D02*
G37*
G36*
X941308D02*
X938733D01*
X936246Y296556D01*
X934017Y295268D01*
X932196Y293448D01*
X930909Y291218D01*
X930242Y288731D01*
Y286157D01*
X930909Y283670D01*
X932196Y281440D01*
X934017Y279620D01*
X936246Y278332D01*
X938733Y277666D01*
X941308D01*
X943795Y278332D01*
X946024Y279620D01*
X947845Y281440D01*
X949132Y283670D01*
X949799Y286157D01*
Y288731D01*
X949132Y291218D01*
X947845Y293448D01*
X946024Y295268D01*
X943795Y296556D01*
X941308Y297222D01*
D02*
G37*
G36*
X650629Y283516D02*
X642109D01*
Y276996D01*
X650629D01*
Y283516D01*
D02*
G37*
G36*
X639569D02*
X631049D01*
Y276996D01*
X639569D01*
Y283516D01*
D02*
G37*
G36*
X412517Y282534D02*
X406697D01*
Y275164D01*
X412517D01*
Y282534D01*
D02*
G37*
G36*
X404157D02*
X398337D01*
Y275164D01*
X404157D01*
Y282534D01*
D02*
G37*
G36*
X879979Y283706D02*
X870709D01*
Y274436D01*
X870826D01*
X873507Y275154D01*
X875910Y276542D01*
X877873Y278504D01*
X879260Y280908D01*
X879979Y283588D01*
Y283706D01*
D02*
G37*
G36*
X868169D02*
X858899D01*
Y283588D01*
X859617Y280908D01*
X861005Y278504D01*
X862967Y276542D01*
X865370Y275154D01*
X868051Y274436D01*
X868169D01*
Y283706D01*
D02*
G37*
G36*
X771799Y277986D02*
X771649D01*
Y268466D01*
X781169D01*
Y268617D01*
X780434Y271361D01*
X779013Y273821D01*
X777004Y275830D01*
X774544Y277251D01*
X771799Y277986D01*
D02*
G37*
G36*
X769109D02*
X768958D01*
X766214Y277251D01*
X763754Y275830D01*
X761745Y273821D01*
X760324Y271361D01*
X759589Y268617D01*
Y268466D01*
X769109D01*
Y277986D01*
D02*
G37*
G36*
X1050849Y592824D02*
X1048709D01*
X1046641Y592270D01*
X1044788Y591200D01*
X1043275Y589687D01*
X1042205Y587833D01*
X1041651Y585766D01*
Y583626D01*
X1042205Y581559D01*
X1043275Y579705D01*
X1044788Y578192D01*
X1046641Y577122D01*
X1046671Y577114D01*
Y484383D01*
X907881Y345593D01*
X907208Y344585D01*
X906971Y343396D01*
Y301503D01*
X873811Y268343D01*
X873213Y268688D01*
X870726Y269354D01*
X868151D01*
X865665Y268688D01*
X863435Y267400D01*
X861614Y265580D01*
X860327Y263350D01*
X859661Y260863D01*
Y258289D01*
X860327Y255802D01*
X861614Y253572D01*
X863435Y251752D01*
X865665Y250464D01*
X868151Y249798D01*
X870726D01*
X873213Y250464D01*
X875443Y251752D01*
X877263Y253572D01*
X878550Y255802D01*
X879217Y258289D01*
Y260863D01*
X878550Y263350D01*
X878205Y263948D01*
X912276Y298018D01*
X912950Y299027D01*
X913186Y300216D01*
Y342109D01*
X1051976Y480899D01*
X1052650Y481907D01*
X1052887Y483096D01*
Y577114D01*
X1052916Y577122D01*
X1054770Y578192D01*
X1056283Y579705D01*
X1057353Y581559D01*
X1057907Y583626D01*
Y585766D01*
X1057353Y587833D01*
X1056283Y589687D01*
X1054770Y591200D01*
X1052916Y592270D01*
X1050849Y592824D01*
D02*
G37*
G36*
X650629Y274456D02*
X642109D01*
Y267936D01*
X650629D01*
Y274456D01*
D02*
G37*
G36*
X639569D02*
X631049D01*
Y267936D01*
X639569D01*
Y274456D01*
D02*
G37*
G36*
X797099Y277224D02*
X794459D01*
X791908Y276541D01*
X789621Y275220D01*
X787754Y273353D01*
X786434Y271067D01*
X785751Y268516D01*
Y265876D01*
X786434Y263325D01*
X787754Y261039D01*
X789621Y259172D01*
X791908Y257851D01*
X794459Y257168D01*
X797099D01*
X799649Y257851D01*
X801936Y259172D01*
X803803Y261039D01*
X805123Y263325D01*
X805807Y265876D01*
Y268516D01*
X805123Y271067D01*
X803803Y273353D01*
X801936Y275220D01*
X799649Y276541D01*
X797099Y277224D01*
D02*
G37*
G36*
X781169Y265926D02*
X771649D01*
Y256406D01*
X771799D01*
X774544Y257141D01*
X777004Y258562D01*
X779013Y260571D01*
X780434Y263031D01*
X781169Y265775D01*
Y265926D01*
D02*
G37*
G36*
X769109D02*
X759589D01*
Y265775D01*
X760324Y263031D01*
X761745Y260571D01*
X763754Y258562D01*
X766214Y257141D01*
X768958Y256406D01*
X769109D01*
Y265926D01*
D02*
G37*
G36*
X966708Y271822D02*
X964133D01*
X961646Y271156D01*
X959417Y269868D01*
X957596Y268048D01*
X956309Y265818D01*
X955642Y263331D01*
Y260757D01*
X956309Y258270D01*
X957596Y256040D01*
X959417Y254220D01*
X961646Y252932D01*
X964133Y252266D01*
X966708D01*
X969195Y252932D01*
X971424Y254220D01*
X973245Y256040D01*
X974532Y258270D01*
X975199Y260757D01*
Y263331D01*
X974532Y265818D01*
X973245Y268048D01*
X971424Y269868D01*
X969195Y271156D01*
X966708Y271822D01*
D02*
G37*
G36*
X941308D02*
X938733D01*
X936246Y271156D01*
X934017Y269868D01*
X932196Y268048D01*
X930909Y265818D01*
X930242Y263331D01*
Y260757D01*
X930909Y258270D01*
X932196Y256040D01*
X934017Y254220D01*
X936246Y252932D01*
X938733Y252266D01*
X941308D01*
X943795Y252932D01*
X946024Y254220D01*
X947845Y256040D01*
X949132Y258270D01*
X949799Y260757D01*
Y263331D01*
X949132Y265818D01*
X947845Y268048D01*
X946024Y269868D01*
X943795Y271156D01*
X941308Y271822D01*
D02*
G37*
G36*
X700667Y241204D02*
X682611D01*
Y239667D01*
X634482D01*
X632797Y239332D01*
X631369Y238377D01*
X625505Y232514D01*
X624467Y231954D01*
X606411D01*
Y217898D01*
X624467D01*
Y222729D01*
X626349D01*
X628034Y223064D01*
X629462Y224019D01*
X636306Y230862D01*
X682611D01*
Y227148D01*
X700667D01*
Y241204D01*
D02*
G37*
G36*
X941308Y246422D02*
X938733D01*
X936246Y245756D01*
X934017Y244468D01*
X932196Y242648D01*
X930909Y240418D01*
X930242Y237931D01*
Y235357D01*
X930909Y232870D01*
X932196Y230640D01*
X934017Y228820D01*
X936246Y227532D01*
X938733Y226866D01*
X941308D01*
X943795Y227532D01*
X946024Y228820D01*
X947845Y230640D01*
X949132Y232870D01*
X949799Y235357D01*
Y237931D01*
X949132Y240418D01*
X947845Y242648D01*
X946024Y244468D01*
X943795Y245756D01*
X941308Y246422D01*
D02*
G37*
G36*
X556279Y215316D02*
X550509D01*
Y210046D01*
X556279D01*
Y215316D01*
D02*
G37*
G36*
X547969D02*
X542199D01*
Y210046D01*
X547969D01*
Y215316D01*
D02*
G37*
G36*
X791969Y219316D02*
X782699D01*
Y210046D01*
X791969D01*
Y219316D01*
D02*
G37*
G36*
X556279Y207506D02*
X550509D01*
Y202236D01*
X556279D01*
Y207506D01*
D02*
G37*
G36*
X547969D02*
X542199D01*
Y202236D01*
X547969D01*
Y207506D01*
D02*
G37*
G36*
X803779Y207506D02*
X794509D01*
Y198236D01*
X803779D01*
Y207506D01*
D02*
G37*
G36*
X791969D02*
X782699D01*
Y198236D01*
X791969D01*
Y207506D01*
D02*
G37*
G36*
X1142970Y188202D02*
X1135377D01*
Y180609D01*
X1137538Y181188D01*
X1139565Y182358D01*
X1141221Y184013D01*
X1142391Y186040D01*
X1142970Y188202D01*
D02*
G37*
G36*
X1132837D02*
X1125244D01*
X1125823Y186040D01*
X1126993Y184013D01*
X1128648Y182358D01*
X1130675Y181188D01*
X1132837Y180609D01*
Y188202D01*
D02*
G37*
G36*
X184909Y168077D02*
Y160846D01*
X192140D01*
X191597Y162872D01*
X190473Y164820D01*
X188883Y166410D01*
X186935Y167534D01*
X184909Y168077D01*
D02*
G37*
G36*
X182369D02*
X180343Y167534D01*
X178395Y166410D01*
X176805Y164820D01*
X175681Y162872D01*
X175138Y160846D01*
X182369D01*
Y168077D01*
D02*
G37*
G36*
X192140Y158306D02*
X184909D01*
Y151075D01*
X186935Y151618D01*
X188883Y152742D01*
X190473Y154332D01*
X191597Y156280D01*
X192140Y158306D01*
D02*
G37*
G36*
X182369D02*
X175138D01*
X175681Y156280D01*
X176805Y154332D01*
X178395Y152742D01*
X180343Y151618D01*
X182369Y151075D01*
Y158306D01*
D02*
G37*
G36*
X638617Y167004D02*
X624561D01*
Y166174D01*
X611121D01*
X608999Y165895D01*
X607022Y165076D01*
X606030Y164315D01*
X605876Y164226D01*
X605750Y164100D01*
X605324Y163773D01*
X605070Y163519D01*
X604743Y163093D01*
X604363Y162713D01*
X604094Y162247D01*
X603767Y161821D01*
X603561Y161325D01*
X603293Y160859D01*
X603154Y160340D01*
X602948Y159844D01*
X602878Y159311D01*
X602739Y158792D01*
Y158254D01*
X602669Y157722D01*
X602739Y157189D01*
Y156652D01*
X602878Y156133D01*
X602948Y155600D01*
X603154Y155104D01*
X603293Y154585D01*
X603561Y154119D01*
X603767Y153623D01*
X604094Y153197D01*
X604363Y152731D01*
X604743Y152351D01*
X605070Y151925D01*
X605496Y151598D01*
X605876Y151218D01*
X606342Y150949D01*
X606768Y150622D01*
X607264Y150416D01*
X607729Y150148D01*
X608248Y150009D01*
X608745Y149803D01*
X609278Y149733D01*
X609797Y149594D01*
X610334D01*
X610867Y149524D01*
X611399Y149594D01*
X611937D01*
X612456Y149733D01*
X612796Y149778D01*
X624561D01*
Y148948D01*
X638617D01*
Y153783D01*
X638689Y153877D01*
X639508Y155854D01*
X639787Y157976D01*
X639508Y160098D01*
X638689Y162075D01*
X638617Y162169D01*
Y167004D01*
D02*
G37*
G36*
X476315Y145828D02*
X471045D01*
Y140058D01*
X476315D01*
Y145828D01*
D02*
G37*
G36*
X468505D02*
X463235D01*
Y140058D01*
X468505D01*
Y145828D01*
D02*
G37*
G36*
X528739Y207474D02*
X526617Y207195D01*
X524640Y206376D01*
X522942Y205073D01*
X507788Y189919D01*
X506485Y188221D01*
X505666Y186244D01*
X505387Y184122D01*
Y163056D01*
X505457Y162523D01*
Y161986D01*
X505596Y161467D01*
X505641Y161127D01*
Y150854D01*
X504311D01*
Y134798D01*
X512547D01*
X513839Y134628D01*
X515131Y134798D01*
X523367D01*
Y150854D01*
X522037D01*
Y162802D01*
X521783Y164731D01*
Y180726D01*
X534536Y193479D01*
X534550Y193498D01*
X535517D01*
Y194757D01*
X535839Y195177D01*
X536657Y197154D01*
X536937Y199276D01*
X536658Y201398D01*
X535839Y203375D01*
X535517Y203794D01*
Y205054D01*
X534550D01*
X534536Y205073D01*
X532838Y206376D01*
X530861Y207195D01*
X528739Y207474D01*
D02*
G37*
G36*
X1110901Y140690D02*
X1102350D01*
Y132897D01*
X1110901D01*
Y140690D01*
D02*
G37*
G36*
X1099810D02*
X1091259D01*
Y132897D01*
X1099810D01*
Y140690D01*
D02*
G37*
G36*
X1071629D02*
X1063078D01*
Y132897D01*
X1071629D01*
Y140690D01*
D02*
G37*
G36*
X1060538D02*
X1051987D01*
Y132897D01*
X1060538D01*
Y140690D01*
D02*
G37*
G36*
X1031660Y140690D02*
X1023109D01*
Y132897D01*
X1031660D01*
Y140690D01*
D02*
G37*
G36*
X1020569D02*
X1012018D01*
Y132897D01*
X1020569D01*
Y140690D01*
D02*
G37*
G36*
X476315Y137518D02*
X471045D01*
Y131748D01*
X476315D01*
Y137518D01*
D02*
G37*
G36*
X468505D02*
X463235D01*
Y131748D01*
X468505D01*
Y137518D01*
D02*
G37*
G36*
X1235676Y570329D02*
X1234490Y570093D01*
X1233484Y569421D01*
X1232812Y568416D01*
X1232576Y567229D01*
X1232141Y566794D01*
X1230954Y566558D01*
X1229949Y565886D01*
X1229277Y564880D01*
X1229041Y563694D01*
X1228605Y563258D01*
X1227419Y563022D01*
X1226413Y562350D01*
X1225741Y561344D01*
X1225505Y560158D01*
X1225070Y559723D01*
X1223883Y559487D01*
X1222878Y558815D01*
X1222206Y557809D01*
X1222118Y557366D01*
X1221534Y556187D01*
X1220348Y555951D01*
X1219342Y555279D01*
X1218670Y554273D01*
X1218582Y553830D01*
X1217999Y552652D01*
X1216812Y552416D01*
X1215807Y551744D01*
X1215135Y550738D01*
X1214899Y549552D01*
X1214463Y549116D01*
X1213277Y548880D01*
X1212271Y548208D01*
X1211599Y547202D01*
X1211511Y546759D01*
X1210928Y545580D01*
X1209741Y545345D01*
X1208736Y544673D01*
X1208064Y543667D01*
X1207975Y543224D01*
X1207392Y542045D01*
X1206206Y541809D01*
X1205200Y541137D01*
X1204528Y540131D01*
X1204292Y538945D01*
X1203856Y538509D01*
X1202670Y538274D01*
X1201665Y537602D01*
X1200993Y536596D01*
X1200757Y535410D01*
X1200321Y534974D01*
X1199135Y534738D01*
X1198129Y534066D01*
X1197738Y533481D01*
X1196785Y532638D01*
X1196785Y532638D01*
X1196785Y532638D01*
X1192486Y528339D01*
X1199356Y521469D01*
X1199547Y521181D01*
X1203586Y517143D01*
Y483661D01*
X1203822Y482472D01*
X1204496Y481464D01*
X1237800Y448160D01*
X1237785Y448133D01*
X1237231Y446066D01*
Y443926D01*
X1237785Y441859D01*
X1238855Y440005D01*
X1240368Y438492D01*
X1242222Y437422D01*
X1244289Y436868D01*
X1246429D01*
X1248496Y437422D01*
X1250350Y438492D01*
X1251863Y440005D01*
X1252933Y441859D01*
X1253487Y443926D01*
Y446066D01*
X1252933Y448133D01*
X1251863Y449987D01*
X1250350Y451500D01*
X1248496Y452570D01*
X1246429Y453124D01*
X1244289D01*
X1242222Y452570D01*
X1242195Y452555D01*
X1209801Y484948D01*
Y516203D01*
X1211071Y516729D01*
X1225956Y501844D01*
Y491771D01*
X1226193Y490582D01*
X1226867Y489573D01*
X1242880Y473560D01*
X1242865Y473533D01*
X1242311Y471466D01*
Y469326D01*
X1242865Y467259D01*
X1243935Y465405D01*
X1245448Y463892D01*
X1247301Y462822D01*
X1249369Y462268D01*
X1251509D01*
X1253576Y462822D01*
X1255430Y463892D01*
X1256943Y465405D01*
X1258013Y467259D01*
X1258567Y469326D01*
Y471466D01*
X1258013Y473533D01*
X1256943Y475387D01*
X1255430Y476900D01*
X1253576Y477970D01*
X1251509Y478524D01*
X1249369D01*
X1247301Y477970D01*
X1247275Y477955D01*
X1232172Y493058D01*
Y501040D01*
X1233345Y501526D01*
X1240578Y494293D01*
X1240325Y493853D01*
X1239771Y491786D01*
Y489646D01*
X1240325Y487579D01*
X1241395Y485725D01*
X1242908Y484212D01*
X1244762Y483142D01*
X1246829Y482588D01*
X1248969D01*
X1251036Y483142D01*
X1252889Y484212D01*
X1254403Y485725D01*
X1255473Y487579D01*
X1256027Y489646D01*
Y491786D01*
X1255473Y493853D01*
X1254403Y495707D01*
X1252889Y497220D01*
X1251036Y498290D01*
X1248969Y498844D01*
X1246829D01*
X1245242Y498419D01*
X1218662Y524999D01*
X1218976Y526482D01*
X1219503Y526834D01*
X1220175Y527840D01*
X1220411Y529026D01*
X1220847Y529462D01*
X1222033Y529698D01*
X1223038Y530370D01*
X1223710Y531375D01*
X1223799Y531818D01*
X1224382Y532997D01*
X1225568Y533233D01*
X1226574Y533905D01*
X1227246Y534911D01*
X1227482Y536097D01*
X1227918Y536533D01*
X1229104Y536769D01*
X1230110Y537441D01*
X1230782Y538446D01*
X1231018Y539633D01*
X1232196Y540216D01*
X1232639Y540304D01*
X1233645Y540976D01*
X1234317Y541982D01*
X1234553Y543168D01*
X1234989Y543604D01*
X1236175Y543840D01*
X1237181Y544512D01*
X1237538Y545046D01*
X1239018Y545361D01*
X1252898Y531481D01*
X1252471Y529886D01*
Y527746D01*
X1253025Y525679D01*
X1254095Y523825D01*
X1255608Y522312D01*
X1257461Y521242D01*
X1259529Y520688D01*
X1261669D01*
X1263736Y521242D01*
X1265590Y522312D01*
X1267103Y523825D01*
X1268173Y525679D01*
X1268238Y525922D01*
X1269508Y525755D01*
Y247480D01*
X1150091Y128064D01*
X820419D01*
X786793Y161690D01*
X785785Y162364D01*
X784595Y162600D01*
X771539D01*
X771120Y163870D01*
X771906Y165047D01*
X772241Y166732D01*
Y200027D01*
X773843Y200952D01*
X775663Y202772D01*
X776950Y205002D01*
X777617Y207489D01*
Y210063D01*
X776950Y212550D01*
X775663Y214780D01*
X773843Y216600D01*
X771613Y217888D01*
X769126Y218554D01*
X766552D01*
X764065Y217888D01*
X761835Y216600D01*
X760014Y214780D01*
X758727Y212550D01*
X758061Y210063D01*
Y207489D01*
X758727Y205002D01*
X760014Y202772D01*
X761835Y200952D01*
X763436Y200027D01*
Y168556D01*
X763401Y168521D01*
X755571D01*
Y150465D01*
X769627D01*
Y156385D01*
X783308D01*
X816935Y122759D01*
X817943Y122085D01*
X819132Y121848D01*
X1151379D01*
X1152568Y122085D01*
X1153576Y122759D01*
X1274813Y243995D01*
X1275487Y245004D01*
X1275723Y246193D01*
Y533800D01*
X1275487Y534990D01*
X1274813Y535998D01*
X1265472Y545339D01*
X1264464Y546013D01*
X1263274Y546250D01*
X1253980D01*
X1246947Y553283D01*
X1247260Y554766D01*
X1247787Y555118D01*
X1248459Y556124D01*
X1248695Y557310D01*
X1248459Y558497D01*
X1247787Y559502D01*
X1237868Y569421D01*
X1236862Y570093D01*
X1235676Y570329D01*
D02*
G37*
G36*
X524129Y131116D02*
X515109D01*
Y123596D01*
X524129D01*
Y131116D01*
D02*
G37*
G36*
X512569D02*
X503549D01*
Y123596D01*
X512569D01*
Y131116D01*
D02*
G37*
G36*
X524129Y121056D02*
X515109D01*
Y113536D01*
X524129D01*
Y121056D01*
D02*
G37*
G36*
X512569D02*
X503549D01*
Y113536D01*
X512569D01*
Y121056D01*
D02*
G37*
G36*
X460275Y126986D02*
X458153Y126707D01*
X456176Y125888D01*
X455105Y125066D01*
X454497D01*
Y124599D01*
X454478Y124585D01*
X453175Y122887D01*
X452356Y120910D01*
X452076Y118788D01*
Y100212D01*
X452356Y98090D01*
X452768Y97094D01*
X452800Y96975D01*
X452862Y96868D01*
X453175Y96113D01*
X453672Y95465D01*
X453870Y95122D01*
X454151Y94841D01*
X454478Y94415D01*
X454577Y94315D01*
X455004Y93988D01*
X455384Y93608D01*
X455849Y93340D01*
X456275Y93013D01*
X456772Y92807D01*
X457237Y92538D01*
X457756Y92399D01*
X458253Y92193D01*
X458785Y92123D01*
X459304Y91984D01*
X459842D01*
X460374Y91914D01*
X460907Y91984D01*
X461445D01*
X461964Y92123D01*
X462496Y92193D01*
X462993Y92399D01*
X463512Y92538D01*
X463977Y92807D01*
X464473Y93013D01*
X464900Y93340D01*
X465365Y93608D01*
X465745Y93988D01*
X466171Y94315D01*
X466498Y94741D01*
X466878Y95122D01*
X467147Y95587D01*
X467474Y96013D01*
X467680Y96510D01*
X467948Y96975D01*
X468088Y97494D01*
X468293Y97991D01*
X468363Y98523D01*
X468502Y99042D01*
Y99580D01*
X468573Y100112D01*
X468502Y100645D01*
Y101182D01*
X468473Y101293D01*
Y118788D01*
X468193Y120910D01*
X467374Y122887D01*
X466072Y124585D01*
X466053Y124599D01*
Y125066D01*
X465445D01*
X464374Y125888D01*
X462397Y126707D01*
X460275Y126986D01*
D02*
G37*
G36*
X558239Y613279D02*
X557290Y613154D01*
X543761D01*
Y604850D01*
X505281Y566370D01*
X485368D01*
X481589Y565872D01*
X478067Y564413D01*
X475042Y562092D01*
X446788Y533838D01*
X444468Y530814D01*
X443009Y527292D01*
X442511Y523512D01*
Y310530D01*
X443009Y306750D01*
X444468Y303228D01*
X446788Y300204D01*
X472342Y274650D01*
X475366Y272329D01*
X478888Y270871D01*
X482668Y270373D01*
X507790D01*
X554313Y223850D01*
X557337Y221529D01*
X560557Y220196D01*
Y174546D01*
X554313Y168302D01*
X551992Y165277D01*
X550533Y161756D01*
X550036Y157976D01*
Y90983D01*
X543711Y84659D01*
X444158D01*
X426842Y101975D01*
Y113826D01*
X426344Y117605D01*
X424885Y121127D01*
X422565Y124152D01*
X421015Y125702D01*
X417990Y128022D01*
X416417Y128674D01*
Y131404D01*
X402861D01*
Y128239D01*
X402337Y128022D01*
X399313Y125702D01*
X396992Y122677D01*
X395533Y119156D01*
X395036Y115376D01*
X395533Y111596D01*
X396992Y108075D01*
X397636Y107236D01*
Y95926D01*
X398133Y92147D01*
X399592Y88625D01*
X401913Y85600D01*
X427783Y59730D01*
X430808Y57409D01*
X434330Y55950D01*
X438109Y55453D01*
X549760D01*
X553539Y55950D01*
X557061Y57409D01*
X560086Y59730D01*
X574965Y74609D01*
X577285Y77633D01*
X578744Y81155D01*
X579242Y84935D01*
Y151927D01*
X585486Y158171D01*
X587806Y161196D01*
X589265Y164717D01*
X589763Y168497D01*
Y234176D01*
X589265Y237955D01*
X587806Y241477D01*
X585486Y244502D01*
X582461Y246822D01*
X578939Y248281D01*
X575160Y248779D01*
X570687D01*
X524165Y295302D01*
X521140Y297622D01*
X517618Y299081D01*
X513839Y299579D01*
X488716D01*
X471717Y316578D01*
Y517464D01*
X491417Y537164D01*
X511329D01*
X515109Y537661D01*
X518631Y539120D01*
X521655Y541441D01*
X568565Y588350D01*
X570885Y591375D01*
X571061Y591798D01*
X590017D01*
Y613154D01*
X559188D01*
X558239Y613279D01*
D02*
G37*
G36*
X325879Y173507D02*
X322099Y173009D01*
X318577Y171551D01*
X315553Y169230D01*
X313232Y166206D01*
X311773Y162684D01*
X311276Y158904D01*
Y147386D01*
X311773Y143606D01*
X313232Y140084D01*
X315553Y137060D01*
X346013Y106600D01*
X349037Y104279D01*
X352559Y102821D01*
X356057Y102360D01*
Y84200D01*
X356127Y83667D01*
Y83130D01*
X356266Y82611D01*
X356336Y82078D01*
X356542Y81581D01*
X356681Y81062D01*
X356950Y80597D01*
X357155Y80101D01*
X357482Y79674D01*
X357751Y79209D01*
X358131Y78829D01*
X358458Y78403D01*
X358884Y78076D01*
X359264Y77696D01*
X359730Y77427D01*
X360156Y77100D01*
X360653Y76894D01*
X361118Y76626D01*
X361637Y76487D01*
X362133Y76281D01*
X362666Y76211D01*
X363185Y76072D01*
X363722D01*
X364255Y76002D01*
X364788Y76072D01*
X365325D01*
X365844Y76211D01*
X366377Y76281D01*
X366873Y76487D01*
X367392Y76626D01*
X367858Y76894D01*
X368354Y77100D01*
X368780Y77427D01*
X369246Y77696D01*
X369626Y78076D01*
X370052Y78403D01*
X370379Y78829D01*
X370759Y79209D01*
X371028Y79674D01*
X371355Y80101D01*
X371561Y80597D01*
X371829Y81062D01*
X371968Y81581D01*
X372174Y82078D01*
X372244Y82611D01*
X372383Y83130D01*
Y83667D01*
X372453Y84200D01*
Y115160D01*
X372174Y117281D01*
X371355Y119259D01*
X370817Y119960D01*
Y131404D01*
X362513D01*
X340482Y153435D01*
Y158904D01*
X339984Y162684D01*
X338525Y166206D01*
X336205Y169230D01*
X333180Y171551D01*
X329658Y173009D01*
X325879Y173507D01*
D02*
G37*
%LPD*%
G36*
X1127089Y650190D02*
X1126309Y649174D01*
X1125092Y649876D01*
X1122931Y650455D01*
Y641592D01*
X1120391D01*
Y650455D01*
X1118229Y649876D01*
X1116202Y648706D01*
X1114547Y647050D01*
X1113377Y645023D01*
X1112771Y642762D01*
Y640857D01*
X1111501Y640690D01*
X1111464Y640826D01*
X1110394Y642680D01*
X1108881Y644193D01*
X1107027Y645263D01*
X1104960Y645817D01*
X1102820D01*
X1100753Y645263D01*
X1098899Y644193D01*
X1097386Y642680D01*
X1096316Y640826D01*
X1095762Y638759D01*
Y636619D01*
X1096316Y634552D01*
X1097386Y632699D01*
X1098899Y631185D01*
X1100753Y630115D01*
X1102820Y629561D01*
X1104960D01*
X1107027Y630115D01*
X1107054Y630131D01*
X1112164Y625021D01*
Y623343D01*
X1112400Y622154D01*
X1113074Y621146D01*
X1122511Y611708D01*
X1123520Y611035D01*
X1124709Y610798D01*
X1145286D01*
X1146787Y609297D01*
X1146301Y608124D01*
X1119646D01*
X1110396Y617373D01*
X1109388Y618047D01*
X1108199Y618284D01*
X1103886D01*
X1103029Y619140D01*
X1101176Y620210D01*
X1099109Y620764D01*
X1096969D01*
X1094902Y620210D01*
X1093048Y619140D01*
X1091535Y617627D01*
X1090465Y615773D01*
X1089911Y613706D01*
Y611566D01*
X1090465Y609499D01*
X1091535Y607645D01*
X1093048Y606132D01*
X1094902Y605062D01*
X1096969Y604508D01*
X1099109D01*
X1101176Y605062D01*
X1103029Y606132D01*
X1104543Y607645D01*
X1105613Y609499D01*
X1106051Y611133D01*
X1107123Y611554D01*
X1107430Y611550D01*
X1116161Y602818D01*
X1117169Y602145D01*
X1118359Y601908D01*
X1140270D01*
X1140909Y600638D01*
X1140809Y600504D01*
X1107147D01*
X1106545Y600384D01*
X1105570Y601360D01*
X1103716Y602430D01*
X1101649Y602984D01*
X1099509D01*
X1097441Y602430D01*
X1095588Y601360D01*
X1094075Y599847D01*
X1093005Y597993D01*
X1092451Y595926D01*
Y593786D01*
X1093005Y591719D01*
X1094075Y589865D01*
X1095588Y588352D01*
X1097441Y587282D01*
X1099509Y586728D01*
X1101649D01*
X1103716Y587282D01*
X1105570Y588352D01*
X1107083Y589865D01*
X1108153Y591719D01*
X1108707Y593786D01*
Y594288D01*
X1119357D01*
X1119843Y593115D01*
X1118983Y592255D01*
X1118956Y592270D01*
X1116889Y592824D01*
X1114749D01*
X1112682Y592270D01*
X1110828Y591200D01*
X1109315Y589687D01*
X1108245Y587833D01*
X1107691Y585766D01*
Y583626D01*
X1108245Y581559D01*
X1109315Y579705D01*
X1110828Y578192D01*
X1112682Y577122D01*
X1114749Y576568D01*
X1116889D01*
X1118956Y577122D01*
X1120809Y578192D01*
X1122323Y579705D01*
X1123393Y581559D01*
X1123947Y583626D01*
Y585766D01*
X1123393Y587833D01*
X1123378Y587860D01*
X1124726Y589208D01*
X1134946D01*
X1135625Y587938D01*
X1135578Y587868D01*
X1135342Y586682D01*
X1135578Y585495D01*
X1136250Y584490D01*
X1146169Y574571D01*
X1147175Y573899D01*
X1148361Y573663D01*
X1149548Y573899D01*
X1150553Y574571D01*
X1151225Y575576D01*
X1151330Y576103D01*
X1151754Y576224D01*
X1152161Y576005D01*
X1152903Y575238D01*
Y573466D01*
X1153457Y571399D01*
X1154527Y569545D01*
X1156040Y568032D01*
X1157894Y566962D01*
X1159961Y566408D01*
X1162101D01*
X1164168Y566962D01*
X1166021Y568032D01*
X1166148Y568158D01*
X1167321Y567672D01*
Y555319D01*
X1166364Y554474D01*
X1165048Y554752D01*
X1164695Y555279D01*
X1163690Y555951D01*
X1162503Y556187D01*
X1161920Y557366D01*
X1161832Y557809D01*
X1161160Y558815D01*
X1160154Y559487D01*
X1158968Y559723D01*
X1158532Y560158D01*
X1158296Y561344D01*
X1157624Y562350D01*
X1156619Y563022D01*
X1155432Y563258D01*
X1154997Y563694D01*
X1154761Y564880D01*
X1154089Y565886D01*
X1153083Y566558D01*
X1151897Y566794D01*
X1151461Y567229D01*
X1151225Y568416D01*
X1150553Y569421D01*
X1149548Y570093D01*
X1148361Y570329D01*
X1147175Y570093D01*
X1146169Y569421D01*
X1136250Y559502D01*
X1135578Y558497D01*
X1135342Y557310D01*
X1135578Y556124D01*
X1136250Y555118D01*
X1136778Y554766D01*
X1137091Y553283D01*
X1129127Y545319D01*
X1110666D01*
X1110481Y546011D01*
X1109411Y547864D01*
X1107897Y549378D01*
X1106044Y550448D01*
X1103977Y551002D01*
X1101837D01*
X1099769Y550448D01*
X1097916Y549378D01*
X1097787Y549249D01*
X1096614Y549735D01*
Y555486D01*
X1098447D01*
X1100708Y556092D01*
X1102735Y557262D01*
X1104391Y558917D01*
X1105561Y560945D01*
X1106140Y563106D01*
X1088413D01*
X1088993Y560945D01*
X1090163Y558917D01*
X1090657Y558423D01*
Y526771D01*
X1090884Y525631D01*
X1091530Y524665D01*
X1110401Y505793D01*
Y497108D01*
X1109228Y496622D01*
X1085907Y519943D01*
Y665408D01*
X1111870D01*
X1127089Y650190D01*
D02*
G37*
G36*
X1197355Y620607D02*
X1194593Y617845D01*
X1193921Y616840D01*
X1193686Y615653D01*
X1193921Y614467D01*
X1194593Y613461D01*
X1195599Y612789D01*
X1196785Y612553D01*
X1197221Y612118D01*
X1197457Y610932D01*
X1198129Y609926D01*
X1199135Y609254D01*
X1200321Y609018D01*
X1200757Y608582D01*
X1200993Y607396D01*
X1201665Y606390D01*
X1202670Y605718D01*
X1203856Y605482D01*
X1204292Y605047D01*
X1204528Y603861D01*
X1205200Y602855D01*
X1206206Y602183D01*
X1207392Y601947D01*
X1207828Y601511D01*
X1208064Y600325D01*
X1208736Y599319D01*
X1209741Y598647D01*
X1210184Y598559D01*
X1211363Y597976D01*
X1211599Y596790D01*
X1212271Y595784D01*
X1213277Y595112D01*
X1213604Y595047D01*
X1213969Y594324D01*
X1213866Y594137D01*
X1213185Y593406D01*
X1210934D01*
X1208876Y592553D01*
X1200121Y601309D01*
X1200147Y601406D01*
Y603546D01*
X1199593Y605613D01*
X1198523Y607467D01*
X1197010Y608980D01*
X1195156Y610050D01*
X1193089Y610604D01*
X1190949D01*
X1188882Y610050D01*
X1187028Y608980D01*
X1185515Y607467D01*
X1184445Y605613D01*
X1183891Y603546D01*
Y601406D01*
X1184445Y599339D01*
X1185515Y597485D01*
X1187028Y595972D01*
X1188882Y594902D01*
X1190949Y594348D01*
X1193089D01*
X1195156Y594902D01*
X1196793Y595847D01*
X1205847Y586792D01*
Y585793D01*
X1206814Y583459D01*
X1208600Y581673D01*
X1210010Y581089D01*
X1209757Y579819D01*
X1208010D01*
X1198395Y589433D01*
X1197387Y590107D01*
X1196198Y590344D01*
X1176906D01*
X1175717Y590107D01*
X1174709Y589433D01*
X1168231Y582956D01*
X1167558Y581948D01*
X1167450Y581407D01*
X1166080Y580981D01*
X1166021Y581040D01*
X1164168Y582110D01*
X1162101Y582664D01*
X1161277D01*
X1160467Y583596D01*
X1160675Y584853D01*
X1161160Y585177D01*
X1161832Y586183D01*
X1162068Y587369D01*
X1162503Y587805D01*
X1163690Y588041D01*
X1164695Y588713D01*
X1165367Y589718D01*
X1165603Y590905D01*
X1166782Y591488D01*
X1167225Y591576D01*
X1168231Y592248D01*
X1168903Y593254D01*
X1169139Y594440D01*
X1169575Y594876D01*
X1170761Y595112D01*
X1171767Y595784D01*
X1172438Y596790D01*
X1172626Y597731D01*
X1173110Y597634D01*
X1174594Y597929D01*
X1174775Y598050D01*
X1167253Y605573D01*
X1169048Y607369D01*
X1176571Y599847D01*
X1176692Y600028D01*
X1176987Y601511D01*
X1176891Y601996D01*
X1177832Y602183D01*
X1178838Y602855D01*
X1179510Y603861D01*
X1179745Y605047D01*
X1180181Y605482D01*
X1181367Y605718D01*
X1182373Y606390D01*
X1183045Y607396D01*
X1183281Y608582D01*
X1183717Y609018D01*
X1184903Y609254D01*
X1185909Y609926D01*
X1186581Y610932D01*
X1186816Y612118D01*
X1187252Y612553D01*
X1188438Y612789D01*
X1189444Y613461D01*
X1190116Y614467D01*
X1190352Y615653D01*
X1190116Y616840D01*
X1189444Y617845D01*
X1185400Y621889D01*
Y629982D01*
X1185206Y630961D01*
X1185742Y631457D01*
X1186253Y631710D01*
X1197355Y620607D01*
D02*
G37*
G36*
X1204525Y574514D02*
X1205533Y573840D01*
X1205601Y573661D01*
X1204818Y572137D01*
X1204121Y571950D01*
X1202268Y570880D01*
X1200755Y569367D01*
X1199685Y567513D01*
X1199677Y567484D01*
X1194686D01*
X1193497Y567247D01*
X1192489Y566573D01*
X1180978Y555062D01*
X1179804Y555548D01*
Y568589D01*
X1180897D01*
X1182964Y569143D01*
X1184818Y570213D01*
X1186331Y571726D01*
X1187401Y573579D01*
X1187955Y575647D01*
Y577787D01*
X1187401Y579854D01*
X1186331Y581707D01*
X1185180Y582858D01*
X1185693Y584128D01*
X1194911D01*
X1204525Y574514D01*
D02*
G37*
G36*
X1128798Y537930D02*
X1121495Y530627D01*
X1120461Y531224D01*
X1118393Y531778D01*
X1116253D01*
X1114186Y531224D01*
X1112333Y530154D01*
X1110819Y528641D01*
X1109749Y526787D01*
X1109195Y524720D01*
Y522580D01*
X1109749Y520513D01*
X1110819Y518660D01*
X1112333Y517146D01*
X1114186Y516076D01*
X1116253Y515522D01*
X1118393D01*
X1120461Y516076D01*
X1122314Y517146D01*
X1123828Y518660D01*
X1124898Y520513D01*
X1125452Y522580D01*
Y524720D01*
X1125225Y525566D01*
X1133238Y533580D01*
X1134411Y533094D01*
Y513704D01*
X1129876Y509168D01*
X1129202Y508160D01*
X1128966Y506970D01*
Y505269D01*
X1127504Y503807D01*
X1126921Y503963D01*
X1124781D01*
X1122714Y503409D01*
X1120861Y502339D01*
X1119347Y500826D01*
X1118277Y498972D01*
X1117723Y496905D01*
Y494765D01*
X1118277Y492698D01*
X1119347Y490844D01*
X1120861Y489331D01*
X1122714Y488261D01*
X1124781Y487707D01*
X1126921D01*
X1128989Y488261D01*
X1130842Y489331D01*
X1132355Y490844D01*
X1133425Y492698D01*
X1133979Y494765D01*
Y496905D01*
X1133425Y498972D01*
X1132706Y500219D01*
X1134271Y501784D01*
X1134361Y501919D01*
X1135631Y501534D01*
Y499806D01*
X1136185Y497739D01*
X1137255Y495885D01*
X1138768Y494372D01*
X1140621Y493302D01*
X1142689Y492748D01*
X1144829D01*
X1146896Y493302D01*
X1148749Y494372D01*
X1148876Y494498D01*
X1150049Y494012D01*
Y227081D01*
X1134852Y211884D01*
X1078287D01*
Y217867D01*
X1084666D01*
Y233883D01*
Y237498D01*
X1100129D01*
Y234666D01*
X1099367D01*
Y226872D01*
X1109188D01*
X1119009D01*
Y234666D01*
X1118247D01*
Y249919D01*
X1112296D01*
Y479478D01*
X1113469Y479964D01*
X1126565Y466868D01*
X1126331Y466461D01*
X1125751Y464300D01*
X1133345D01*
Y471893D01*
X1131183Y471314D01*
X1130777Y471079D01*
X1116357Y485499D01*
Y507027D01*
X1116131Y508167D01*
X1115485Y509133D01*
X1096614Y528004D01*
Y536012D01*
X1097787Y536498D01*
X1097916Y536370D01*
X1099769Y535300D01*
X1101837Y534746D01*
X1103977D01*
X1106044Y535300D01*
X1107897Y536370D01*
X1109411Y537883D01*
X1110115Y539103D01*
X1128312D01*
X1128798Y537930D01*
D02*
G37*
G36*
X1106080Y427429D02*
Y249919D01*
X1100129D01*
Y246304D01*
X1084666D01*
Y250485D01*
X1066548D01*
Y233883D01*
Y229950D01*
X1056267D01*
Y231954D01*
X1038211D01*
Y229328D01*
X1030867D01*
Y231954D01*
X1012811D01*
Y217898D01*
X1017436D01*
Y166277D01*
X1012780D01*
Y162379D01*
X995112D01*
X957198Y200293D01*
X957684Y201466D01*
X975199D01*
Y214796D01*
X987035Y226632D01*
X988586Y226460D01*
X988919Y225883D01*
X990432Y224370D01*
X992286Y223300D01*
X994353Y222746D01*
X996493D01*
X998560Y223300D01*
X1000414Y224370D01*
X1001927Y225883D01*
X1002997Y227737D01*
X1003551Y229804D01*
Y231944D01*
X1002997Y234011D01*
X1001927Y235865D01*
X1000414Y237378D01*
X999763Y237753D01*
X1000104Y239023D01*
X1012811D01*
Y236398D01*
X1030867D01*
Y250454D01*
X1024947D01*
Y354809D01*
X1094875Y424737D01*
X1094902Y424722D01*
X1096969Y424168D01*
X1099109D01*
X1101176Y424722D01*
X1103029Y425792D01*
X1104543Y427305D01*
X1104810Y427769D01*
X1106080Y427429D01*
D02*
G37*
%LPC*%
G36*
X1098547Y573239D02*
Y565646D01*
X1106140D01*
X1105561Y567807D01*
X1104391Y569835D01*
X1102735Y571490D01*
X1100708Y572660D01*
X1098547Y573239D01*
D02*
G37*
G36*
X1096007D02*
X1093845Y572660D01*
X1091818Y571490D01*
X1090163Y569835D01*
X1088993Y567807D01*
X1088413Y565646D01*
X1096007D01*
Y573239D01*
D02*
G37*
G36*
X1135885Y471893D02*
Y464300D01*
X1143478D01*
X1142899Y466461D01*
X1141729Y468489D01*
X1140073Y470144D01*
X1138046Y471314D01*
X1135885Y471893D01*
D02*
G37*
G36*
X1143478Y461760D02*
X1135885D01*
Y454167D01*
X1138046Y454746D01*
X1140073Y455916D01*
X1141729Y457571D01*
X1142899Y459599D01*
X1143478Y461760D01*
D02*
G37*
G36*
X1133345D02*
X1125751D01*
X1126331Y459599D01*
X1127501Y457571D01*
X1129156Y455916D01*
X1131183Y454746D01*
X1133345Y454167D01*
Y461760D01*
D02*
G37*
G36*
X1135631Y242023D02*
Y234430D01*
X1143224D01*
X1142645Y236591D01*
X1141475Y238619D01*
X1139819Y240274D01*
X1137792Y241444D01*
X1135631Y242023D01*
D02*
G37*
G36*
X1133091D02*
X1130929Y241444D01*
X1128902Y240274D01*
X1127247Y238619D01*
X1126077Y236591D01*
X1125498Y234430D01*
X1133091D01*
Y242023D01*
D02*
G37*
G36*
X1143224Y231890D02*
X1135631D01*
Y224297D01*
X1137792Y224876D01*
X1139819Y226046D01*
X1141475Y227701D01*
X1142645Y229729D01*
X1143224Y231890D01*
D02*
G37*
G36*
X1133091D02*
X1125498D01*
X1126077Y229729D01*
X1127247Y227701D01*
X1128902Y226046D01*
X1130929Y224876D01*
X1133091Y224297D01*
Y231890D01*
D02*
G37*
G36*
X1119009Y224332D02*
X1110458D01*
Y216539D01*
X1119009D01*
Y224332D01*
D02*
G37*
G36*
X1107918D02*
X1099367D01*
Y216539D01*
X1107918D01*
Y224332D01*
D02*
G37*
G36*
X1048309Y270244D02*
X1046169D01*
X1044101Y269690D01*
X1042248Y268620D01*
X1040735Y267107D01*
X1039665Y265253D01*
X1039111Y263186D01*
Y261046D01*
X1039665Y258979D01*
X1040735Y257125D01*
X1042248Y255612D01*
X1044101Y254542D01*
X1044131Y254534D01*
Y250454D01*
X1038211D01*
Y236398D01*
X1056267D01*
Y250454D01*
X1050347D01*
Y254534D01*
X1050376Y254542D01*
X1052230Y255612D01*
X1053743Y257125D01*
X1054813Y258979D01*
X1055367Y261046D01*
Y263186D01*
X1054813Y265253D01*
X1053743Y267107D01*
X1052230Y268620D01*
X1050376Y269690D01*
X1048309Y270244D01*
D02*
G37*
%LPD*%
D14*
X1203449Y659626D02*
Y668008D01*
X1202179Y669278D02*
X1203449Y668008D01*
X1202179Y669278D02*
Y767576D01*
X1203449Y659626D02*
X1205227Y657848D01*
X1082799Y667028D02*
X1084287Y668516D01*
X1082799Y518656D02*
Y667028D01*
Y518656D02*
X1109188Y492267D01*
Y241618D02*
Y492267D01*
X1153157Y225794D02*
Y504769D01*
X1149347Y508579D02*
X1153157Y504769D01*
X1149347Y532859D02*
X1161079Y544592D01*
X1170429Y553941D01*
X1136139Y208776D02*
X1153157Y225794D01*
X1102907Y542874D02*
X1103569Y542211D01*
X1118913Y523650D02*
X1150462Y555199D01*
X1117324Y523650D02*
X1118913D01*
X1103569Y542211D02*
X1130414D01*
X1080303Y495542D02*
X1083053D01*
X922779Y338824D02*
X1076631Y492676D01*
X1077437D01*
X1080303Y495542D01*
X1149347Y508579D02*
Y532859D01*
X1143759Y500876D02*
Y534343D01*
X1157544Y548128D01*
X1161539Y509696D02*
X1178757Y526914D01*
X1161539Y361176D02*
Y509696D01*
X1132073Y506970D02*
X1137519Y512416D01*
Y535174D02*
X1154008Y551663D01*
X1137519Y512416D02*
Y535174D01*
X1182293Y523379D02*
Y523379D01*
X1174239Y423470D02*
Y515325D01*
X1182293Y523379D01*
X1174239Y423470D02*
X1186939Y410770D01*
X1161539Y361176D02*
X1174239Y348476D01*
X1171686Y533985D02*
X1181859Y544158D01*
Y551548D01*
X1194686Y564376D01*
X1051267Y201220D02*
X1149166D01*
X1186939Y238992D01*
X1044699Y203696D02*
X1046643Y201752D01*
X1050734D01*
X1051267Y201220D01*
X1076667Y208776D02*
X1136139D01*
X1115271Y623343D02*
Y626308D01*
X1103890Y637689D02*
X1115271Y626308D01*
Y623343D02*
X1124709Y613906D01*
X1233565Y588793D02*
X1246486Y601714D01*
X1262123D01*
X1113158Y668516D02*
X1166708Y614966D01*
X1166716D01*
X1084287Y668516D02*
X1113158D01*
X1166716Y614966D02*
X1166727Y614955D01*
X1162942Y611419D02*
X1163202D01*
X1122931Y641338D02*
X1133024D01*
X1163202Y611419D02*
X1168150Y606471D01*
X1133024Y641338D02*
X1162942Y611419D01*
X1131369Y625981D02*
X1141569D01*
X1164615Y602935D01*
X1121661Y641592D02*
X1122677D01*
X1122931Y641338D01*
X1112627Y676136D02*
X1175222Y613542D01*
X1169159Y626676D02*
Y632956D01*
X915159Y683756D02*
X1118359D01*
X1169159Y632956D01*
X894839Y676136D02*
X1112627D01*
X1124709Y613906D02*
X1146573D01*
X1161079Y599400D01*
X836865Y597396D02*
X894839D01*
X737805Y696456D02*
X836865Y597396D01*
X678939Y696456D02*
X737805D01*
X976119Y709156D02*
X1125979D01*
X925319Y759956D02*
X976119Y709156D01*
X1074986Y225547D02*
X1075179Y225354D01*
X922779Y287516D02*
Y338824D01*
X1057399Y457403D02*
X1075471Y475476D01*
X1154008Y592329D02*
X1154008D01*
X1100579Y594856D02*
X1102523Y596800D01*
X1143728Y598063D02*
X1148274D01*
X1143061Y597396D02*
X1143728Y598063D01*
X1102523Y596800D02*
X1106551D01*
X1107147Y597396D02*
X1143061D01*
X1148274Y598063D02*
X1154008Y592329D01*
X1106551Y596800D02*
X1107147Y597396D01*
X1159087Y576480D02*
Y580179D01*
X1150473Y588793D02*
X1159087Y580179D01*
Y576480D02*
X1161031Y574536D01*
X1170429Y580758D02*
X1176906Y587236D01*
X1179827Y574835D02*
Y576717D01*
X1196198Y587236D02*
X1206722Y576711D01*
X1176697Y571705D02*
X1179827Y574835D01*
X1176906Y587236D02*
X1196198D01*
X1176697Y546067D02*
Y571705D01*
X1194559Y602476D02*
X1209979Y587056D01*
X1212197D01*
X1192019Y602476D02*
X1194559D01*
X1222499Y641929D02*
X1245359Y664790D01*
X1222499Y627225D02*
Y641929D01*
X1208816Y613542D02*
X1222499Y627225D01*
X1211015Y622812D02*
Y627358D01*
X1125979Y709156D02*
X1205252Y629883D01*
X1205280Y617077D02*
X1211015Y622812D01*
X1208490Y629883D02*
X1211015Y627358D01*
X1205252Y629883D02*
X1208490D01*
X1189479Y671056D02*
Y754876D01*
X1176779Y767576D02*
X1189479Y754876D01*
X932939Y691376D02*
X1123439D01*
X1177341Y634934D02*
Y637474D01*
X1123439Y691376D02*
X1177341Y637474D01*
X1169159Y626676D02*
X1178757Y617077D01*
X1125492Y698996D02*
X1181659Y642829D01*
X1177341Y634934D02*
X1182293Y629982D01*
X1181659Y640699D02*
X1201740Y620618D01*
X1181659Y640699D02*
Y642829D01*
X948179Y698996D02*
X1125492D01*
X1151379Y124956D02*
X1272616Y246193D01*
X1186939Y238992D02*
Y410770D01*
X1272616Y246193D02*
Y533800D01*
X819132Y124956D02*
X1151379D01*
X1228554Y576711D02*
X1237100Y585258D01*
X1230029Y592329D02*
X1306268Y668567D01*
Y754927D01*
X1293619Y767576D02*
X1306268Y754927D01*
X1235199Y611580D02*
X1294147Y670528D01*
X1268219Y730235D02*
X1294147Y704307D01*
Y670528D02*
Y704307D01*
X1268219Y730235D02*
Y767576D01*
X784595Y159493D02*
X819132Y124956D01*
X1263274Y543142D02*
X1272616Y533800D01*
X1252693Y543142D02*
X1263274D01*
X1237100Y558734D02*
X1252693Y543142D01*
X762599Y159493D02*
X784595D01*
X1170429Y553941D02*
Y580758D01*
X1175232Y530450D02*
X1191172Y546390D01*
X1175222Y530450D02*
X1175232D01*
X1191172Y546390D02*
X1192864D01*
X1168150Y537521D02*
X1176697Y546067D01*
X1194686Y564376D02*
X1207259D01*
X1206722Y576711D02*
X1228554D01*
X1075179Y210264D02*
X1076667Y208776D01*
X1075179Y210264D02*
Y225354D01*
X1021839Y356096D02*
X1098039Y432296D01*
X1045239Y243426D02*
X1047239Y245426D01*
Y262116D01*
X1021839Y243426D02*
Y356096D01*
X1206694Y483661D02*
X1245359Y444996D01*
X1201745Y523379D02*
X1206694Y518430D01*
Y483661D02*
Y518430D01*
X1229064Y491771D02*
X1250439Y470396D01*
X1229064Y491771D02*
Y503131D01*
X1205280Y526914D02*
X1229064Y503131D01*
X1208816Y530450D02*
X1247899Y491367D01*
Y490716D02*
Y491367D01*
X910079Y343396D02*
X1049779Y483096D01*
Y584696D01*
X1233565Y555199D02*
X1233576D01*
X1259958Y528816D01*
X1260599D01*
X1057399Y439916D02*
Y457403D01*
X833879Y353556D02*
X836419Y356096D01*
X894839D01*
X833879Y240744D02*
Y353556D01*
X832391Y239256D02*
X833879Y240744D01*
X718527Y239256D02*
X832391D01*
X717039Y237768D02*
X718527Y239256D01*
X717039Y159464D02*
Y237768D01*
X715551Y157976D02*
X717039Y159464D01*
X650089Y157976D02*
X715551D01*
X1125851Y495835D02*
Y497760D01*
X1132073Y503982D01*
Y506970D01*
X1130414Y542211D02*
X1146937Y558734D01*
X1150462Y555199D02*
X1150473D01*
X795779Y356096D02*
X805939Y366256D01*
X841499D02*
X856739Y381496D01*
X805939Y366256D02*
X841499D01*
X856739Y381496D02*
X927859D01*
X976119Y429756D02*
Y475476D01*
X927859Y381496D02*
X976119Y429756D01*
X795779Y317996D02*
Y356096D01*
X835324Y399327D02*
X836419Y400422D01*
Y444996D01*
X869439Y234176D02*
X922779Y287516D01*
X910079Y300216D02*
Y343396D01*
X869439Y259576D02*
X910079Y300216D01*
X1118359Y586184D02*
Y587236D01*
X1116871Y584696D02*
X1118359Y586184D01*
X1115819Y584696D02*
X1116871D01*
X1146926Y585258D02*
X1146937D01*
X1118359Y587236D02*
X1123439Y592316D01*
X1139868D02*
X1146926Y585258D01*
X1123439Y592316D02*
X1139868D01*
X1108199Y615176D02*
X1118359Y605016D01*
X1148392D01*
X1157544Y595864D01*
X1099527Y615176D02*
X1108199D01*
X681479Y719316D02*
X750059D01*
X678939Y721856D02*
X681479Y719316D01*
X859279Y610096D02*
X1062479D01*
X750059Y719316D02*
X859279Y610096D01*
X1098039Y613688D02*
X1099527Y615176D01*
X1098039Y612636D02*
Y613688D01*
X836419Y663436D02*
X879599D01*
X678939Y747256D02*
X752599D01*
X836419Y663436D01*
X823719Y747256D02*
X894839Y676136D01*
X823719Y747256D02*
Y759956D01*
X797604Y554216D02*
X828799D01*
X796642Y553254D02*
X797604Y554216D01*
X849281Y749634D02*
X915159Y683756D01*
X1205280Y617077D02*
Y617077D01*
X849119Y759956D02*
X849281Y759794D01*
Y749634D02*
Y759794D01*
X874519Y759956D02*
X874681Y759794D01*
Y749634D02*
Y759794D01*
Y749634D02*
X932939Y691376D01*
X899919Y747256D02*
Y759956D01*
Y747256D02*
X948179Y698996D01*
X1182293Y620613D02*
Y629982D01*
X1228218Y638675D02*
X1275839Y686296D01*
X1228218Y625873D02*
Y638675D01*
X1235199Y604569D02*
Y611580D01*
X1212352Y610006D02*
X1228218Y625873D01*
X1242819Y633403D02*
Y635496D01*
X1215887Y606471D02*
X1242819Y633403D01*
X1275839Y686296D02*
Y688836D01*
X1226494Y595864D02*
X1235199Y604569D01*
X1245359Y664790D02*
Y678676D01*
X630819Y545145D02*
X630909Y545235D01*
X310639Y310376D02*
X361439D01*
D18*
X574389Y407576D02*
D03*
X567889D02*
D03*
X561389D02*
D03*
X554889D02*
D03*
X574389Y365576D02*
D03*
X567889D02*
D03*
X561389D02*
D03*
X554889D02*
D03*
D19*
X666239Y538976D02*
D03*
Y557476D02*
D03*
X1047239Y243426D02*
D03*
Y224926D02*
D03*
X1021839Y243426D02*
D03*
Y224926D02*
D03*
X691639Y252676D02*
D03*
Y234176D02*
D03*
X640839Y294226D02*
D03*
Y275726D02*
D03*
X691639Y319626D02*
D03*
Y301126D02*
D03*
X666239Y428126D02*
D03*
Y446626D02*
D03*
X736939Y549343D02*
D03*
Y530843D02*
D03*
X615439Y224926D02*
D03*
Y243426D02*
D03*
X553656Y314626D02*
D03*
Y296126D02*
D03*
D20*
X835324Y399327D02*
D03*
X851339D02*
D03*
X600473Y293821D02*
D03*
X584458D02*
D03*
X658231Y361176D02*
D03*
X674247D02*
D03*
X775847Y513576D02*
D03*
X759831D02*
D03*
X648847Y386576D02*
D03*
X632831D02*
D03*
X386839Y513576D02*
D03*
X370823D02*
D03*
D21*
X1101080Y157976D02*
D03*
Y141960D02*
D03*
X1021839Y157976D02*
D03*
Y141960D02*
D03*
X1109188Y241618D02*
D03*
Y225602D02*
D03*
X1075607Y242184D02*
D03*
Y226168D02*
D03*
X1061808Y141960D02*
D03*
Y157976D02*
D03*
X82457Y376625D02*
D03*
Y360609D02*
D03*
X500458Y443287D02*
D03*
Y459303D02*
D03*
D22*
X762599Y159493D02*
D03*
X744099D02*
D03*
X631589Y157976D02*
D03*
X650089D02*
D03*
X796642Y553254D02*
D03*
X778142D02*
D03*
X624689Y437376D02*
D03*
X606189D02*
D03*
X726289Y386576D02*
D03*
X707789D02*
D03*
X700889Y488176D02*
D03*
X682389D02*
D03*
X606189Y335776D02*
D03*
X624689D02*
D03*
D23*
X209039Y505956D02*
D03*
X259839D02*
D03*
Y418326D02*
D03*
X209039D02*
D03*
X82039Y505956D02*
D03*
X132839D02*
D03*
Y418326D02*
D03*
X82039D02*
D03*
D24*
X473182Y211582D02*
D03*
X492182D02*
D03*
X482682Y231582D02*
D03*
X469775Y138788D02*
D03*
X450775D02*
D03*
X460275Y118788D02*
D03*
D25*
X513839Y142826D02*
D03*
Y122326D02*
D03*
D26*
X1201745Y523379D02*
D03*
D27*
X1205280Y526914D02*
D03*
X1208816Y530450D02*
D03*
X1212352Y533985D02*
D03*
X1215887Y537521D02*
D03*
X1219423Y541057D02*
D03*
X1222958Y544592D02*
D03*
X1226494Y548128D02*
D03*
X1230029Y551663D02*
D03*
X1233565Y555199D02*
D03*
X1237100Y558734D02*
D03*
X1240636Y562270D02*
D03*
X1182293Y620613D02*
D03*
X1178757Y617077D02*
D03*
X1175222Y613542D02*
D03*
X1171686Y610006D02*
D03*
X1168150Y606471D02*
D03*
X1164615Y602935D02*
D03*
X1161079Y599400D02*
D03*
X1157544Y595864D02*
D03*
X1154008Y592329D02*
D03*
X1150473Y588793D02*
D03*
X1146937Y585258D02*
D03*
X1143402Y581722D02*
D03*
D28*
X1240636D02*
D03*
X1237100Y585258D02*
D03*
X1233565Y588793D02*
D03*
X1230029Y592329D02*
D03*
X1226494Y595864D02*
D03*
X1222958Y599400D02*
D03*
X1219423Y602935D02*
D03*
X1215887Y606471D02*
D03*
X1212352Y610006D02*
D03*
X1208816Y613542D02*
D03*
X1205280Y617077D02*
D03*
X1201745Y620613D02*
D03*
X1143402Y562270D02*
D03*
X1146937Y558734D02*
D03*
X1150473Y555199D02*
D03*
X1154008Y551663D02*
D03*
X1157544Y548128D02*
D03*
X1161079Y544592D02*
D03*
X1164615Y541057D02*
D03*
X1168150Y537521D02*
D03*
X1171686Y533985D02*
D03*
X1175222Y530450D02*
D03*
X1178757Y526914D02*
D03*
X1182293Y523379D02*
D03*
D29*
X588409Y532645D02*
D03*
Y472645D02*
D03*
D30*
X732439Y599276D02*
D03*
Y580276D02*
D03*
X752439Y589776D02*
D03*
X549239Y208776D02*
D03*
X529239Y199276D02*
D03*
Y218276D02*
D03*
D31*
X768942Y399327D02*
D03*
X801642D02*
D03*
X405427Y283804D02*
D03*
X372727D02*
D03*
D32*
X450389Y185219D02*
D03*
Y199234D02*
D03*
X349842Y271376D02*
D03*
Y285392D02*
D03*
D33*
X460789Y602476D02*
D03*
Y627876D02*
D03*
X566889D02*
D03*
Y602476D02*
D03*
D34*
X379831Y310376D02*
D03*
X393847D02*
D03*
D35*
X386839Y183376D02*
D03*
D36*
X409639Y115376D02*
D03*
X364039D02*
D03*
D37*
X386839Y597076D02*
D03*
Y564376D02*
D03*
D59*
X1268219Y767576D02*
D03*
D60*
X1293619D02*
D03*
D64*
X611121Y157976D02*
X631589D01*
X610867Y157722D02*
X611121Y157976D01*
X513839Y142826D02*
Y162802D01*
X513585Y163056D02*
X513839Y162802D01*
X513585Y184122D02*
X528739Y199276D01*
X513585Y163056D02*
Y184122D01*
X340865Y249924D02*
X349247Y258306D01*
Y270781D01*
X364039Y115376D02*
X364255Y115160D01*
Y84200D02*
Y115160D01*
X460275Y100212D02*
Y118788D01*
Y100212D02*
X460374Y100112D01*
X492182Y211582D02*
X509007D01*
X515700Y218276D02*
X529239D01*
X509007Y211582D02*
X515700Y218276D01*
X361439Y296642D02*
X372727Y285354D01*
X349876Y298813D02*
X361439Y310376D01*
X379831D01*
X349876Y287525D02*
Y298813D01*
D65*
X651137Y465824D02*
X665731D01*
X624689Y437376D02*
Y439376D01*
X651137Y465824D01*
X320291Y249924D02*
X340865D01*
X349247Y270781D02*
X349842Y271376D01*
X985812Y231636D02*
X994661D01*
X995423Y230874D01*
X965421Y211244D02*
X985812Y231636D01*
X624985Y294226D02*
X640839D01*
X608835Y310376D02*
X624985Y294226D01*
X569647Y310376D02*
X608835D01*
X566671Y313352D02*
X569647Y310376D01*
X566671Y313352D02*
Y344590D01*
X561389Y349872D02*
X566671Y344590D01*
X567993Y354255D02*
Y354399D01*
Y354255D02*
X586472Y335776D01*
X783587Y306499D02*
Y312414D01*
X783211Y312790D02*
Y323202D01*
Y312790D02*
X783587Y312414D01*
Y306499D02*
X795284Y294802D01*
X783587Y370527D02*
X794382Y381322D01*
X783587Y323578D02*
Y370527D01*
X783211Y323202D02*
X783587Y323578D01*
X1021839Y157976D02*
Y224926D01*
X1047239D01*
X1076354Y242681D02*
X1077134Y241901D01*
X1108905D01*
X940021Y211244D02*
X993289Y157976D01*
X1021839D01*
X742439Y208776D02*
X760717Y227055D01*
X798218D01*
X743269Y160323D02*
Y207946D01*
Y160323D02*
X744099Y159493D01*
X742439Y208776D02*
X743269Y207946D01*
X841730Y381322D02*
X847356Y386949D01*
Y395344D01*
X851339Y399327D01*
X798218Y227055D02*
X816496Y208776D01*
X869439D01*
X794382Y381322D02*
X841730D01*
X975157Y243426D02*
X1021839D01*
X968535Y236804D02*
X975157Y243426D01*
X965509Y236804D02*
X968535D01*
X1047860Y225547D02*
X1074986D01*
X1047239Y224926D02*
X1047860Y225547D01*
X1021839Y157976D02*
X1061808D01*
X1021839Y157976D02*
X1021839Y157976D01*
X1061808D02*
X1061808Y157976D01*
X1101080D01*
X871907Y211244D02*
X940021D01*
X869439Y208776D02*
X871907Y211244D01*
X762599Y161493D02*
X767839Y166732D01*
Y208776D01*
X762599Y159493D02*
Y161493D01*
X801642Y399327D02*
X835324D01*
X768942Y321144D02*
Y399327D01*
Y321144D02*
X769884Y320202D01*
X691639Y319626D02*
X693639D01*
X638839D02*
X691639D01*
X624689Y333776D02*
X638839Y319626D01*
X696349Y324336D02*
X726289Y354276D01*
Y386576D01*
X696349Y322336D02*
Y324336D01*
X693639Y319626D02*
X696349Y322336D01*
X731939Y580276D02*
X732439D01*
X728161Y556230D02*
X731136Y553254D01*
X778142D01*
X730479Y578816D02*
X731939Y580276D01*
X730479Y578158D02*
Y578816D01*
X728161Y575840D02*
X730479Y578158D01*
X728161Y556230D02*
Y575840D01*
X691639Y564376D02*
Y589776D01*
X701139Y599276D02*
X732439D01*
X691639Y589776D02*
X701139Y599276D01*
X668239Y557476D02*
X726289Y499426D01*
Y386576D02*
Y499426D01*
X666239Y557476D02*
X668239D01*
X742439Y495426D02*
X759831Y512818D01*
X742439Y462776D02*
Y495426D01*
X759831Y512818D02*
Y513576D01*
X615439Y608276D02*
Y665976D01*
Y608276D02*
X666239Y557476D01*
X563839Y717576D02*
X615439Y665976D01*
X563839Y717576D02*
Y742176D01*
X599908Y472645D02*
X630718Y503456D01*
X588409Y472645D02*
X599908D01*
X664239Y538976D02*
X666239D01*
X630718Y505456D02*
X664239Y538976D01*
X630718Y503456D02*
Y505456D01*
X640839Y488176D02*
X682389D01*
X590039Y437376D02*
X640839Y488176D01*
X402795Y583595D02*
X405771Y580619D01*
X401870Y583595D02*
X402795D01*
X405771Y578658D02*
Y580619D01*
X388389Y597076D02*
X401870Y583595D01*
X386839Y597076D02*
X388389D01*
X600447Y268171D02*
X610747D01*
X611208Y268632D01*
X588441Y280177D02*
X600447Y268171D01*
X597648Y243426D02*
X615439D01*
X574711Y266362D02*
X597648Y243426D01*
X561168Y266362D02*
X574711D01*
X588441Y280177D02*
Y289838D01*
X584458Y293821D02*
X588441Y289838D01*
X700889Y446626D02*
Y488176D01*
X666239Y428126D02*
X682389D01*
X700889Y446626D01*
X590039Y437376D02*
X606189D01*
X564639D02*
X590039D01*
X634482Y235264D02*
X690550D01*
X615439Y224926D02*
X617645Y227132D01*
X626349D02*
X634482Y235264D01*
X690550D02*
X691639Y234176D01*
X617645Y227132D02*
X626349D01*
X527405Y304333D02*
X534987Y311916D01*
X527405Y300125D02*
X561168Y266362D01*
X534987Y311916D02*
X550946D01*
X527405Y300125D02*
Y304333D01*
X550946Y311916D02*
X554599Y315569D01*
X631851Y391303D02*
Y401617D01*
X634827Y404593D02*
X660441D01*
X631851Y401617D02*
X634827Y404593D01*
X660441D02*
X678457Y386576D01*
X628848Y391317D02*
X632831Y387334D01*
Y386576D02*
Y387334D01*
Y386576D02*
Y391303D01*
X628862D02*
X632831D01*
X624135Y386576D02*
X628862Y391303D01*
X615439Y386576D02*
X624135D01*
X678457D02*
X707789D01*
X643549Y291516D02*
X650799D01*
X640839Y294226D02*
X643549Y291516D01*
X689639Y252676D02*
X691639D01*
X650799Y291516D02*
X689639Y252676D01*
X624689Y333776D02*
Y335776D01*
X606189Y350528D02*
X616837Y361176D01*
X606189Y335776D02*
Y350528D01*
X616837Y361176D02*
X658231D01*
X586472Y335776D02*
X606189D01*
X554809Y294973D02*
X583305D01*
X553656Y296126D02*
X554809Y294973D01*
X583305D02*
X584458Y293821D01*
X594583Y407432D02*
X615439Y386576D01*
X583559Y419561D02*
X637993D01*
X576061Y427058D02*
X583559Y419561D01*
X637993D02*
X646559Y428126D01*
X571853Y427058D02*
X576061D01*
X568179Y423384D02*
X571853Y427058D01*
X646559Y428126D02*
X666239D01*
X561389Y434126D02*
X564639Y437376D01*
X501620Y413164D02*
X539239Y450783D01*
Y462776D01*
X549108Y472645D01*
X588409D01*
X503682Y413164D02*
X509270Y407576D01*
X501620Y413164D02*
X503682D01*
X501039Y413745D02*
Y442706D01*
X500458Y443287D02*
X501039Y442706D01*
Y413745D02*
X501620Y413164D01*
X528739Y199276D02*
X529239D01*
X450582Y138981D02*
X450775Y138788D01*
X450582Y138981D02*
Y185026D01*
X450389Y185219D02*
X450582Y185026D01*
X450389Y185219D02*
X466318D01*
X492182Y211082D02*
Y211582D01*
X466318Y185219D02*
X492182Y211082D01*
X361439Y296642D02*
Y310376D01*
X372727Y283804D02*
Y285354D01*
X386839Y437576D02*
Y513576D01*
Y564376D01*
X336839Y564976D02*
X386239D01*
X336239Y565576D02*
X336839Y564976D01*
X386239D02*
X386839Y564376D01*
X336239Y640576D02*
X377729Y599086D01*
X384829D01*
X386839Y597076D01*
D66*
X395714Y198501D02*
X402389Y205176D01*
X412239Y208776D02*
X463039D01*
X362839Y207376D02*
X386839D01*
X183639Y259576D02*
X193291Y249924D01*
X320291D01*
X362839Y207376D01*
X112519Y678423D02*
X132039Y697943D01*
X112519Y655180D02*
Y678423D01*
X108261Y590554D02*
X133239Y565576D01*
X108261Y650922D02*
X112519Y655180D01*
X108261Y590554D02*
Y650922D01*
X178032Y646182D02*
Y691376D01*
Y646182D02*
X183639Y640576D01*
X178032Y691376D02*
Y772782D01*
X513839Y284976D02*
X564639Y234176D01*
X575160Y168497D02*
Y234176D01*
X564639D02*
X575160D01*
X482668Y284976D02*
X513839D01*
X325879Y147386D02*
Y158904D01*
Y147386D02*
X356339Y116926D01*
X424928Y602335D02*
X460648D01*
X386439Y640824D02*
X424928Y602335D01*
X386439Y640824D02*
Y742176D01*
X460648Y602335D02*
X460789Y602476D01*
X386839Y189626D02*
X395714Y198501D01*
X375580Y247060D02*
X467803D01*
X482682Y231582D02*
Y232181D01*
X467803Y247060D02*
X482682Y232181D01*
X412239Y95926D02*
Y113826D01*
X438109Y70056D02*
X549760D01*
X412239Y95926D02*
X438109Y70056D01*
X564639Y84935D02*
Y157976D01*
X549760Y70056D02*
X564639Y84935D01*
X457114Y310530D02*
Y523512D01*
X485368Y551767D01*
X457114Y310530D02*
X482668Y284976D01*
X485368Y551767D02*
X511329D01*
X558239Y598676D01*
X409639Y115376D02*
X410689D01*
X412239Y113826D01*
X564639Y157976D02*
X575160Y168497D01*
X463039Y640576D02*
Y716776D01*
X398533Y781282D02*
X463039Y716776D01*
X353705Y781282D02*
X398533D01*
X336439Y764015D02*
X353705Y781282D01*
X336439Y742176D02*
Y764015D01*
X402389Y205176D02*
X408639D01*
X412239Y208776D01*
X386839Y183376D02*
Y189626D01*
X224769Y470886D02*
X259839Y505956D01*
X82039Y493334D02*
Y514376D01*
Y493334D02*
X104487Y470886D01*
X224769D01*
X209039Y505956D02*
X211935D01*
X239610Y533632D01*
X178032Y772782D02*
X192911Y787661D01*
X213686Y627492D02*
Y737929D01*
X209439Y742176D02*
X213686Y737929D01*
X82039Y418326D02*
X122161Y378204D01*
X82039Y386576D02*
Y418326D01*
X378466Y378204D02*
X386839Y386576D01*
X122161Y378204D02*
X378466D01*
X183639Y411976D02*
X189989Y418326D01*
X209039D01*
X183639Y259576D02*
Y335776D01*
X175969Y589776D02*
X213686Y627492D01*
X158239Y589776D02*
X175969D01*
X213953Y787661D02*
X259439Y742176D01*
X192911Y787661D02*
X213953D01*
X132039Y697943D02*
Y742176D01*
X82039Y514376D02*
X133239Y565576D01*
X132839Y513576D02*
X158239D01*
D67*
X1096769Y563614D02*
Y563868D01*
X1097277Y564376D01*
X1093636Y560481D02*
X1096769Y563614D01*
X1093636Y526771D02*
Y560481D01*
X1113379Y484266D02*
X1134615Y463030D01*
X1113379Y484266D02*
Y507027D01*
X1093636Y526771D02*
X1113379Y507027D01*
X1158745Y522212D02*
Y534031D01*
X1159610Y534897D02*
Y536051D01*
X1164615Y541057D01*
X1158745Y534031D02*
X1159610Y534897D01*
D68*
X568179Y413536D02*
Y423384D01*
D69*
X567948Y354444D02*
Y359489D01*
Y354444D02*
X567993Y354399D01*
X574679Y407432D02*
X594583D01*
X561389Y407576D02*
Y434126D01*
D70*
X561371Y351716D02*
Y359362D01*
Y351716D02*
X561389Y351699D01*
Y349872D02*
Y351699D01*
X554599Y315569D02*
Y365286D01*
X509270Y407576D02*
X554889D01*
D71*
X336239Y640576D02*
D03*
X183639D02*
D03*
X133239D02*
D03*
X82839D02*
D03*
Y565576D02*
D03*
X133239D02*
D03*
X183639D02*
D03*
X336239D02*
D03*
D72*
X940021Y312844D02*
D03*
Y287444D02*
D03*
X965421Y312844D02*
D03*
Y287444D02*
D03*
X940021Y262044D02*
D03*
X965421D02*
D03*
X940021Y236644D02*
D03*
X965421D02*
D03*
X940021Y211244D02*
D03*
X678939Y721856D02*
D03*
Y696456D02*
D03*
X1176779Y767576D02*
D03*
X1202179D02*
D03*
X874519Y759956D02*
D03*
X899919D02*
D03*
X849119D02*
D03*
X823719D02*
D03*
X742439Y208776D02*
D03*
X767839D02*
D03*
X869439Y284976D02*
D03*
Y259576D02*
D03*
Y234176D02*
D03*
X336439Y742176D02*
D03*
X563839D02*
D03*
X209439D02*
D03*
X82039D02*
D03*
D73*
X965421Y211244D02*
D03*
X678939Y747256D02*
D03*
X869439Y208776D02*
D03*
D74*
X795779Y267196D02*
D03*
Y292596D02*
D03*
X770379Y267196D02*
D03*
Y292596D02*
D03*
X795779Y317996D02*
D03*
D75*
X770379D02*
D03*
D76*
X183639Y159576D02*
D03*
Y259576D02*
D03*
D77*
X386839Y386576D02*
D03*
Y412576D02*
D03*
Y437576D02*
D03*
D78*
X1227579Y767576D02*
D03*
X925319Y759956D02*
D03*
X793239Y208776D02*
D03*
X386439Y742176D02*
D03*
X513839D02*
D03*
X259439D02*
D03*
X132039D02*
D03*
D79*
X1344419Y817360D02*
D03*
X1340609Y36310D02*
D03*
X25651Y25134D02*
D03*
X24127Y822186D02*
D03*
D80*
X610867Y157722D02*
D03*
X1205227Y657848D02*
D03*
X665731Y465824D02*
D03*
X513585Y163056D02*
D03*
X1254503Y702806D02*
D03*
X1013203Y564122D02*
D03*
X1097277Y564376D02*
D03*
X1134615Y463030D02*
D03*
X1117324Y523650D02*
D03*
X1102907Y542874D02*
D03*
X1083053Y495542D02*
D03*
X1158745Y522212D02*
D03*
X1134107Y189472D02*
D03*
X1134361Y233160D02*
D03*
X1103890Y637689D02*
D03*
X1262123Y601714D02*
D03*
X1131369Y625981D02*
D03*
X1121661Y641592D02*
D03*
X995423Y230874D02*
D03*
X1075471Y475476D02*
D03*
X1161031Y574536D02*
D03*
X1179827Y576717D02*
D03*
X1192019Y602476D02*
D03*
X1189479Y671056D02*
D03*
X1174239Y348476D02*
D03*
X1192864Y546390D02*
D03*
X1207259Y564376D02*
D03*
X1044699Y203696D02*
D03*
X1098039Y432296D02*
D03*
X1047239Y262116D02*
D03*
X1245359Y444996D02*
D03*
X1250439Y470396D02*
D03*
X1247899Y490716D02*
D03*
X1049779Y584696D02*
D03*
X1260599Y528816D02*
D03*
X894839Y356096D02*
D03*
X1143759Y500876D02*
D03*
X1125851Y495835D02*
D03*
X1057399Y439916D02*
D03*
X836419Y444996D02*
D03*
X976119Y475476D02*
D03*
X1115819Y584696D02*
D03*
X894839Y597396D02*
D03*
X1100579Y594856D02*
D03*
X1062479Y610096D02*
D03*
X1098039Y612636D02*
D03*
X879599Y663436D02*
D03*
X828799Y554216D02*
D03*
X1242819Y635496D02*
D03*
X1245359Y678676D02*
D03*
X325879Y158904D02*
D03*
X1275839Y688836D02*
D03*
X691639Y564376D02*
D03*
X742439Y462776D02*
D03*
X405771Y578658D02*
D03*
X310639Y310376D02*
D03*
X611208Y268632D02*
D03*
X501620Y413164D02*
D03*
X364255Y84200D02*
D03*
X460374Y100112D02*
D03*
X375580Y247060D02*
D03*
X239610Y533632D02*
D03*
X178032Y691376D02*
D03*
X183639Y411976D02*
D03*
Y335776D02*
D03*
X158239Y589776D02*
D03*
Y513576D02*
D03*
D81*
X1212197Y587056D02*
D03*
M02*
