G04*
G04 #@! TF.GenerationSoftware,Altium Limited,Altium Designer,23.3.1 (30)*
G04*
G04 Layer_Color=8421504*
%FSLAX44Y44*%
%MOMM*%
G71*
G04*
G04 #@! TF.SameCoordinates,6291D12B-1A57-4E1F-9114-C69F7EA01FE8*
G04*
G04*
G04 #@! TF.FilePolarity,Positive*
G04*
G01*
G75*
%ADD18O,0.3500X1.7000*%
%ADD19R,1.4500X1.0500*%
%ADD20R,1.3046X1.4562*%
%ADD21R,1.4562X1.3046*%
%ADD22R,1.0500X1.4500*%
%ADD23R,1.7000X1.5000*%
%ADD24R,0.8000X0.9000*%
%ADD25R,1.5500X1.2500*%
G04:AMPARAMS|DCode=26|XSize=1.6552mm|YSize=0.2525mm|CornerRadius=0mm|HoleSize=0mm|Usage=FLASHONLY|Rotation=135.000|XOffset=0mm|YOffset=0mm|HoleType=Round|Shape=Rectangle|*
%AMROTATEDRECTD26*
4,1,4,0.6745,-0.4960,0.4960,-0.6745,-0.6745,0.4960,-0.4960,0.6745,0.6745,-0.4960,0.0*
%
%ADD26ROTATEDRECTD26*%

G04:AMPARAMS|DCode=27|XSize=1.6552mm|YSize=0.2525mm|CornerRadius=0.1262mm|HoleSize=0mm|Usage=FLASHONLY|Rotation=135.000|XOffset=0mm|YOffset=0mm|HoleType=Round|Shape=RoundedRectangle|*
%AMROUNDEDRECTD27*
21,1,1.6552,0.0000,0,0,135.0*
21,1,1.4028,0.2525,0,0,135.0*
1,1,0.2525,-0.4960,0.4960*
1,1,0.2525,0.4960,-0.4960*
1,1,0.2525,0.4960,-0.4960*
1,1,0.2525,-0.4960,0.4960*
%
%ADD27ROUNDEDRECTD27*%
G04:AMPARAMS|DCode=28|XSize=0.2525mm|YSize=1.6552mm|CornerRadius=0.1262mm|HoleSize=0mm|Usage=FLASHONLY|Rotation=135.000|XOffset=0mm|YOffset=0mm|HoleType=Round|Shape=RoundedRectangle|*
%AMROUNDEDRECTD28*
21,1,0.2525,1.4028,0,0,135.0*
21,1,0.0000,1.6552,0,0,135.0*
1,1,0.2525,0.4960,0.4960*
1,1,0.2525,0.4960,0.4960*
1,1,0.2525,-0.4960,-0.4960*
1,1,0.2525,-0.4960,-0.4960*
%
%ADD28ROUNDEDRECTD28*%
%ADD29R,1.1000X2.9000*%
%ADD30R,0.9000X0.8000*%
%ADD31R,0.9100X1.2200*%
%ADD32R,1.3562X1.1046*%
%ADD33R,4.2700X1.7800*%
%ADD34R,1.1046X1.3562*%
%ADD35R,5.6500X6.9000*%
%ADD36R,1.0000X2.8500*%
%ADD37R,1.2200X0.9100*%
D18*
X574389Y407576D02*
D03*
X567889D02*
D03*
X561389D02*
D03*
X554889D02*
D03*
X574389Y365576D02*
D03*
X567889D02*
D03*
X561389D02*
D03*
X554889D02*
D03*
D19*
X666239Y538976D02*
D03*
Y557476D02*
D03*
X1047239Y243426D02*
D03*
Y224926D02*
D03*
X1021839Y243426D02*
D03*
Y224926D02*
D03*
X691639Y252676D02*
D03*
Y234176D02*
D03*
X640839Y294226D02*
D03*
Y275726D02*
D03*
X691639Y319626D02*
D03*
Y301126D02*
D03*
X666239Y428126D02*
D03*
Y446626D02*
D03*
X736939Y549343D02*
D03*
Y530843D02*
D03*
X615439Y224926D02*
D03*
Y243426D02*
D03*
X553656Y314626D02*
D03*
Y296126D02*
D03*
D20*
X835324Y399327D02*
D03*
X851339D02*
D03*
X600473Y293821D02*
D03*
X584458D02*
D03*
X658231Y361176D02*
D03*
X674247D02*
D03*
X775847Y513576D02*
D03*
X759831D02*
D03*
X648847Y386576D02*
D03*
X632831D02*
D03*
X386839Y513576D02*
D03*
X370823D02*
D03*
D21*
X1101080Y157976D02*
D03*
Y141960D02*
D03*
X1021839Y157976D02*
D03*
Y141960D02*
D03*
X1109188Y241618D02*
D03*
Y225602D02*
D03*
X1075607Y242184D02*
D03*
Y226168D02*
D03*
X1061808Y141960D02*
D03*
Y157976D02*
D03*
X82457Y376625D02*
D03*
Y360609D02*
D03*
X500458Y443287D02*
D03*
Y459303D02*
D03*
D22*
X762599Y159493D02*
D03*
X744099D02*
D03*
X631589Y157976D02*
D03*
X650089D02*
D03*
X796642Y553254D02*
D03*
X778142D02*
D03*
X624689Y437376D02*
D03*
X606189D02*
D03*
X726289Y386576D02*
D03*
X707789D02*
D03*
X700889Y488176D02*
D03*
X682389D02*
D03*
X606189Y335776D02*
D03*
X624689D02*
D03*
D23*
X209039Y505956D02*
D03*
X259839D02*
D03*
Y418326D02*
D03*
X209039D02*
D03*
X82039Y505956D02*
D03*
X132839D02*
D03*
Y418326D02*
D03*
X82039D02*
D03*
D24*
X473182Y211582D02*
D03*
X492182D02*
D03*
X482682Y231582D02*
D03*
X469775Y138788D02*
D03*
X450775D02*
D03*
X460275Y118788D02*
D03*
D25*
X513839Y142826D02*
D03*
Y122326D02*
D03*
D26*
X1201745Y523379D02*
D03*
D27*
X1205280Y526914D02*
D03*
X1208816Y530450D02*
D03*
X1212352Y533985D02*
D03*
X1215887Y537521D02*
D03*
X1219423Y541057D02*
D03*
X1222958Y544592D02*
D03*
X1226494Y548128D02*
D03*
X1230029Y551663D02*
D03*
X1233565Y555199D02*
D03*
X1237100Y558734D02*
D03*
X1240636Y562270D02*
D03*
X1182293Y620613D02*
D03*
X1178757Y617077D02*
D03*
X1175222Y613542D02*
D03*
X1171686Y610006D02*
D03*
X1168150Y606471D02*
D03*
X1164615Y602935D02*
D03*
X1161079Y599400D02*
D03*
X1157544Y595864D02*
D03*
X1154008Y592329D02*
D03*
X1150473Y588793D02*
D03*
X1146937Y585258D02*
D03*
X1143402Y581722D02*
D03*
D28*
X1240636D02*
D03*
X1237100Y585258D02*
D03*
X1233565Y588793D02*
D03*
X1230029Y592329D02*
D03*
X1226494Y595864D02*
D03*
X1222958Y599400D02*
D03*
X1219423Y602935D02*
D03*
X1215887Y606471D02*
D03*
X1212352Y610006D02*
D03*
X1208816Y613542D02*
D03*
X1205280Y617077D02*
D03*
X1201745Y620613D02*
D03*
X1143402Y562270D02*
D03*
X1146937Y558734D02*
D03*
X1150473Y555199D02*
D03*
X1154008Y551663D02*
D03*
X1157544Y548128D02*
D03*
X1161079Y544592D02*
D03*
X1164615Y541057D02*
D03*
X1168150Y537521D02*
D03*
X1171686Y533985D02*
D03*
X1175222Y530450D02*
D03*
X1178757Y526914D02*
D03*
X1182293Y523379D02*
D03*
D29*
X588409Y532645D02*
D03*
Y472645D02*
D03*
D30*
X732439Y599276D02*
D03*
Y580276D02*
D03*
X752439Y589776D02*
D03*
X549239Y208776D02*
D03*
X529239Y199276D02*
D03*
Y218276D02*
D03*
D31*
X768942Y399327D02*
D03*
X801642D02*
D03*
X405427Y283804D02*
D03*
X372727D02*
D03*
D32*
X450389Y185219D02*
D03*
Y199234D02*
D03*
X349842Y271376D02*
D03*
Y285392D02*
D03*
D33*
X460789Y602476D02*
D03*
Y627876D02*
D03*
X566889D02*
D03*
Y602476D02*
D03*
D34*
X379831Y310376D02*
D03*
X393847D02*
D03*
D35*
X386839Y183376D02*
D03*
D36*
X409639Y115376D02*
D03*
X364039D02*
D03*
D37*
X386839Y597076D02*
D03*
Y564376D02*
D03*
M02*
